G04 #@! TF.GenerationSoftware,KiCad,Pcbnew,(5.1.4)-1*
G04 #@! TF.CreationDate,2020-09-15T19:50:09+03:00*
G04 #@! TF.ProjectId,FinalPCB,46696e61-6c50-4434-922e-6b696361645f,rev?*
G04 #@! TF.SameCoordinates,Original*
G04 #@! TF.FileFunction,Soldermask,Top*
G04 #@! TF.FilePolarity,Negative*
%FSLAX46Y46*%
G04 Gerber Fmt 4.6, Leading zero omitted, Abs format (unit mm)*
G04 Created by KiCad (PCBNEW (5.1.4)-1) date 2020-09-15 19:50:09*
%MOMM*%
%LPD*%
G04 APERTURE LIST*
%ADD10C,0.050000*%
%ADD11C,0.100000*%
G04 APERTURE END LIST*
D10*
X89700000Y-100100000D02*
X116800000Y-100100000D01*
X89700000Y-83600000D02*
X89700000Y-100100000D01*
X85200000Y-83600000D02*
X89700000Y-83600000D01*
X85200000Y-66100000D02*
X85200000Y-83600000D01*
X96800000Y-66100000D02*
X85200000Y-66100000D01*
X96800000Y-52800000D02*
X96800000Y-66100000D01*
X169300000Y-52800000D02*
X96800000Y-52800000D01*
X169300000Y-100100000D02*
X169300000Y-52800000D01*
X116800000Y-100100000D02*
X169300000Y-100100000D01*
D11*
G36*
X116176000Y-99551000D02*
G01*
X115324000Y-99551000D01*
X115324000Y-98649000D01*
X116176000Y-98649000D01*
X116176000Y-99551000D01*
X116176000Y-99551000D01*
G37*
G36*
X129951000Y-99276000D02*
G01*
X126049000Y-99276000D01*
X126049000Y-97174000D01*
X129951000Y-97174000D01*
X129951000Y-99276000D01*
X129951000Y-99276000D01*
G37*
G36*
X95051000Y-99156000D02*
G01*
X92949000Y-99156000D01*
X92949000Y-98154000D01*
X95051000Y-98154000D01*
X95051000Y-99156000D01*
X95051000Y-99156000D01*
G37*
G36*
X112051000Y-99156000D02*
G01*
X109949000Y-99156000D01*
X109949000Y-98154000D01*
X112051000Y-98154000D01*
X112051000Y-99156000D01*
X112051000Y-99156000D01*
G37*
G36*
X118751000Y-99151000D02*
G01*
X117049000Y-99151000D01*
X117049000Y-98049000D01*
X118751000Y-98049000D01*
X118751000Y-99151000D01*
X118751000Y-99151000D01*
G37*
G36*
X116176000Y-98051000D02*
G01*
X115324000Y-98051000D01*
X115324000Y-97149000D01*
X116176000Y-97149000D01*
X116176000Y-98051000D01*
X116176000Y-98051000D01*
G37*
G36*
X95051000Y-97886000D02*
G01*
X92949000Y-97886000D01*
X92949000Y-96884000D01*
X95051000Y-96884000D01*
X95051000Y-97886000D01*
X95051000Y-97886000D01*
G37*
G36*
X112051000Y-97886000D02*
G01*
X109949000Y-97886000D01*
X109949000Y-96884000D01*
X112051000Y-96884000D01*
X112051000Y-97886000D01*
X112051000Y-97886000D01*
G37*
G36*
X91360443Y-95705519D02*
G01*
X91426627Y-95712037D01*
X91596466Y-95763557D01*
X91752991Y-95847222D01*
X91788729Y-95876552D01*
X91890186Y-95959814D01*
X91973448Y-96061271D01*
X92002778Y-96097009D01*
X92086443Y-96253534D01*
X92137963Y-96423373D01*
X92155359Y-96600000D01*
X92137963Y-96776627D01*
X92086443Y-96946466D01*
X92002778Y-97102991D01*
X91973448Y-97138729D01*
X91890186Y-97240186D01*
X91788729Y-97323448D01*
X91752991Y-97352778D01*
X91596466Y-97436443D01*
X91426627Y-97487963D01*
X91360442Y-97494482D01*
X91294260Y-97501000D01*
X91205740Y-97501000D01*
X91139558Y-97494482D01*
X91073373Y-97487963D01*
X90903534Y-97436443D01*
X90747009Y-97352778D01*
X90711271Y-97323448D01*
X90609814Y-97240186D01*
X90526552Y-97138729D01*
X90497222Y-97102991D01*
X90413557Y-96946466D01*
X90362037Y-96776627D01*
X90344641Y-96600000D01*
X90362037Y-96423373D01*
X90413557Y-96253534D01*
X90497222Y-96097009D01*
X90526552Y-96061271D01*
X90609814Y-95959814D01*
X90711271Y-95876552D01*
X90747009Y-95847222D01*
X90903534Y-95763557D01*
X91073373Y-95712037D01*
X91139557Y-95705519D01*
X91205740Y-95699000D01*
X91294260Y-95699000D01*
X91360443Y-95705519D01*
X91360443Y-95705519D01*
G37*
G36*
X112051000Y-96616000D02*
G01*
X109949000Y-96616000D01*
X109949000Y-95614000D01*
X112051000Y-95614000D01*
X112051000Y-96616000D01*
X112051000Y-96616000D01*
G37*
G36*
X95051000Y-96616000D02*
G01*
X92949000Y-96616000D01*
X92949000Y-95614000D01*
X95051000Y-95614000D01*
X95051000Y-96616000D01*
X95051000Y-96616000D01*
G37*
G36*
X114601000Y-96476000D02*
G01*
X113699000Y-96476000D01*
X113699000Y-95624000D01*
X114601000Y-95624000D01*
X114601000Y-96476000D01*
X114601000Y-96476000D01*
G37*
G36*
X116101000Y-96476000D02*
G01*
X115199000Y-96476000D01*
X115199000Y-95624000D01*
X116101000Y-95624000D01*
X116101000Y-96476000D01*
X116101000Y-96476000D01*
G37*
G36*
X118751000Y-96151000D02*
G01*
X117049000Y-96151000D01*
X117049000Y-95049000D01*
X118751000Y-95049000D01*
X118751000Y-96151000D01*
X118751000Y-96151000D01*
G37*
G36*
X169351000Y-95651000D02*
G01*
X165049000Y-95651000D01*
X165049000Y-94199000D01*
X169351000Y-94199000D01*
X169351000Y-95651000D01*
X169351000Y-95651000D01*
G37*
G36*
X112051000Y-95346000D02*
G01*
X109949000Y-95346000D01*
X109949000Y-94344000D01*
X112051000Y-94344000D01*
X112051000Y-95346000D01*
X112051000Y-95346000D01*
G37*
G36*
X95051000Y-95346000D02*
G01*
X92949000Y-95346000D01*
X92949000Y-94344000D01*
X95051000Y-94344000D01*
X95051000Y-95346000D01*
X95051000Y-95346000D01*
G37*
G36*
X91360443Y-93165519D02*
G01*
X91426627Y-93172037D01*
X91596466Y-93223557D01*
X91752991Y-93307222D01*
X91788729Y-93336552D01*
X91890186Y-93419814D01*
X91973448Y-93521271D01*
X92002778Y-93557009D01*
X92086443Y-93713534D01*
X92137963Y-93883373D01*
X92155359Y-94060000D01*
X92137963Y-94236627D01*
X92086443Y-94406466D01*
X92002778Y-94562991D01*
X91973448Y-94598729D01*
X91890186Y-94700186D01*
X91788729Y-94783448D01*
X91752991Y-94812778D01*
X91596466Y-94896443D01*
X91426627Y-94947963D01*
X91360443Y-94954481D01*
X91294260Y-94961000D01*
X91205740Y-94961000D01*
X91139557Y-94954481D01*
X91073373Y-94947963D01*
X90903534Y-94896443D01*
X90747009Y-94812778D01*
X90711271Y-94783448D01*
X90609814Y-94700186D01*
X90526552Y-94598729D01*
X90497222Y-94562991D01*
X90413557Y-94406466D01*
X90362037Y-94236627D01*
X90344641Y-94060000D01*
X90362037Y-93883373D01*
X90413557Y-93713534D01*
X90497222Y-93557009D01*
X90526552Y-93521271D01*
X90609814Y-93419814D01*
X90711271Y-93336552D01*
X90747009Y-93307222D01*
X90903534Y-93223557D01*
X91073373Y-93172037D01*
X91139557Y-93165519D01*
X91205740Y-93159000D01*
X91294260Y-93159000D01*
X91360443Y-93165519D01*
X91360443Y-93165519D01*
G37*
G36*
X114751000Y-94951000D02*
G01*
X114149000Y-94951000D01*
X114149000Y-93949000D01*
X114751000Y-93949000D01*
X114751000Y-94951000D01*
X114751000Y-94951000D01*
G37*
G36*
X116251000Y-94951000D02*
G01*
X115649000Y-94951000D01*
X115649000Y-93949000D01*
X116251000Y-93949000D01*
X116251000Y-94951000D01*
X116251000Y-94951000D01*
G37*
G36*
X95051000Y-94076000D02*
G01*
X92949000Y-94076000D01*
X92949000Y-93074000D01*
X95051000Y-93074000D01*
X95051000Y-94076000D01*
X95051000Y-94076000D01*
G37*
G36*
X112051000Y-94076000D02*
G01*
X109949000Y-94076000D01*
X109949000Y-93074000D01*
X112051000Y-93074000D01*
X112051000Y-94076000D01*
X112051000Y-94076000D01*
G37*
G36*
X106051000Y-93706000D02*
G01*
X100949000Y-93706000D01*
X100949000Y-88604000D01*
X106051000Y-88604000D01*
X106051000Y-93706000D01*
X106051000Y-93706000D01*
G37*
G36*
X114751000Y-93401000D02*
G01*
X114149000Y-93401000D01*
X114149000Y-92399000D01*
X114751000Y-92399000D01*
X114751000Y-93401000D01*
X114751000Y-93401000D01*
G37*
G36*
X116251000Y-93401000D02*
G01*
X115649000Y-93401000D01*
X115649000Y-92399000D01*
X116251000Y-92399000D01*
X116251000Y-93401000D01*
X116251000Y-93401000D01*
G37*
G36*
X131101000Y-92976000D02*
G01*
X129499000Y-92976000D01*
X129499000Y-90874000D01*
X131101000Y-90874000D01*
X131101000Y-92976000D01*
X131101000Y-92976000D01*
G37*
G36*
X128801000Y-92976000D02*
G01*
X127199000Y-92976000D01*
X127199000Y-90874000D01*
X128801000Y-90874000D01*
X128801000Y-92976000D01*
X128801000Y-92976000D01*
G37*
G36*
X126501000Y-92976000D02*
G01*
X124899000Y-92976000D01*
X124899000Y-90874000D01*
X126501000Y-90874000D01*
X126501000Y-92976000D01*
X126501000Y-92976000D01*
G37*
G36*
X95051000Y-92806000D02*
G01*
X92949000Y-92806000D01*
X92949000Y-91804000D01*
X95051000Y-91804000D01*
X95051000Y-92806000D01*
X95051000Y-92806000D01*
G37*
G36*
X112051000Y-92806000D02*
G01*
X109949000Y-92806000D01*
X109949000Y-91804000D01*
X112051000Y-91804000D01*
X112051000Y-92806000D01*
X112051000Y-92806000D01*
G37*
G36*
X169251000Y-92786000D02*
G01*
X165549000Y-92786000D01*
X165549000Y-91414000D01*
X169251000Y-91414000D01*
X169251000Y-92786000D01*
X169251000Y-92786000D01*
G37*
G36*
X91360442Y-90625518D02*
G01*
X91426627Y-90632037D01*
X91596466Y-90683557D01*
X91596468Y-90683558D01*
X91674728Y-90725389D01*
X91752991Y-90767222D01*
X91788729Y-90796552D01*
X91890186Y-90879814D01*
X91973448Y-90981271D01*
X92002778Y-91017009D01*
X92086443Y-91173534D01*
X92137963Y-91343373D01*
X92155359Y-91520000D01*
X92137963Y-91696627D01*
X92086443Y-91866466D01*
X92002778Y-92022991D01*
X91973448Y-92058729D01*
X91890186Y-92160186D01*
X91788729Y-92243448D01*
X91752991Y-92272778D01*
X91596466Y-92356443D01*
X91426627Y-92407963D01*
X91360443Y-92414481D01*
X91294260Y-92421000D01*
X91205740Y-92421000D01*
X91139557Y-92414481D01*
X91073373Y-92407963D01*
X90903534Y-92356443D01*
X90747009Y-92272778D01*
X90711271Y-92243448D01*
X90609814Y-92160186D01*
X90526552Y-92058729D01*
X90497222Y-92022991D01*
X90413557Y-91866466D01*
X90362037Y-91696627D01*
X90344641Y-91520000D01*
X90362037Y-91343373D01*
X90413557Y-91173534D01*
X90497222Y-91017009D01*
X90526552Y-90981271D01*
X90609814Y-90879814D01*
X90711271Y-90796552D01*
X90747009Y-90767222D01*
X90825272Y-90725389D01*
X90903532Y-90683558D01*
X90903534Y-90683557D01*
X91073373Y-90632037D01*
X91139558Y-90625518D01*
X91205740Y-90619000D01*
X91294260Y-90619000D01*
X91360442Y-90625518D01*
X91360442Y-90625518D01*
G37*
G36*
X153551000Y-91776000D02*
G01*
X152699000Y-91776000D01*
X152699000Y-90874000D01*
X153551000Y-90874000D01*
X153551000Y-91776000D01*
X153551000Y-91776000D01*
G37*
G36*
X150270285Y-89638234D02*
G01*
X150366981Y-89657468D01*
X150467247Y-89699000D01*
X150548797Y-89732779D01*
X150549151Y-89732926D01*
X150713100Y-89842473D01*
X150852527Y-89981900D01*
X150962074Y-90145849D01*
X151011843Y-90266000D01*
X151037532Y-90328020D01*
X151076000Y-90521409D01*
X151076000Y-90718591D01*
X151056766Y-90815285D01*
X151037532Y-90911981D01*
X150962074Y-91094151D01*
X150852527Y-91258100D01*
X150713100Y-91397527D01*
X150549151Y-91507074D01*
X150366981Y-91582532D01*
X150173591Y-91621000D01*
X149976409Y-91621000D01*
X149879715Y-91601766D01*
X149783019Y-91582532D01*
X149600849Y-91507074D01*
X149436900Y-91397527D01*
X149297473Y-91258100D01*
X149187926Y-91094151D01*
X149112468Y-90911981D01*
X149074000Y-90718591D01*
X149074000Y-90521409D01*
X149112468Y-90328020D01*
X149138158Y-90266000D01*
X149187926Y-90145849D01*
X149297473Y-89981900D01*
X149436900Y-89842473D01*
X149600849Y-89732926D01*
X149601204Y-89732779D01*
X149682753Y-89699000D01*
X149783019Y-89657468D01*
X149879715Y-89638234D01*
X149976409Y-89619000D01*
X150173591Y-89619000D01*
X150270285Y-89638234D01*
X150270285Y-89638234D01*
G37*
G36*
X95051000Y-91536000D02*
G01*
X92949000Y-91536000D01*
X92949000Y-90534000D01*
X95051000Y-90534000D01*
X95051000Y-91536000D01*
X95051000Y-91536000D01*
G37*
G36*
X112051000Y-91536000D02*
G01*
X109949000Y-91536000D01*
X109949000Y-90534000D01*
X112051000Y-90534000D01*
X112051000Y-91536000D01*
X112051000Y-91536000D01*
G37*
G36*
X157526000Y-90701000D02*
G01*
X156924000Y-90701000D01*
X156924000Y-89699000D01*
X157526000Y-89699000D01*
X157526000Y-90701000D01*
X157526000Y-90701000D01*
G37*
G36*
X156026000Y-90701000D02*
G01*
X155424000Y-90701000D01*
X155424000Y-89699000D01*
X156026000Y-89699000D01*
X156026000Y-90701000D01*
X156026000Y-90701000D01*
G37*
G36*
X153551000Y-90276000D02*
G01*
X152699000Y-90276000D01*
X152699000Y-89374000D01*
X153551000Y-89374000D01*
X153551000Y-90276000D01*
X153551000Y-90276000D01*
G37*
G36*
X95051000Y-90266000D02*
G01*
X92949000Y-90266000D01*
X92949000Y-89264000D01*
X95051000Y-89264000D01*
X95051000Y-90266000D01*
X95051000Y-90266000D01*
G37*
G36*
X112051000Y-90266000D02*
G01*
X109949000Y-90266000D01*
X109949000Y-89264000D01*
X112051000Y-89264000D01*
X112051000Y-90266000D01*
X112051000Y-90266000D01*
G37*
G36*
X169351000Y-90001000D02*
G01*
X165049000Y-90001000D01*
X165049000Y-88549000D01*
X169351000Y-88549000D01*
X169351000Y-90001000D01*
X169351000Y-90001000D01*
G37*
G36*
X126151000Y-89951000D02*
G01*
X125249000Y-89951000D01*
X125249000Y-89099000D01*
X126151000Y-89099000D01*
X126151000Y-89951000D01*
X126151000Y-89951000D01*
G37*
G36*
X124651000Y-89951000D02*
G01*
X123749000Y-89951000D01*
X123749000Y-89099000D01*
X124651000Y-89099000D01*
X124651000Y-89951000D01*
X124651000Y-89951000D01*
G37*
G36*
X91360443Y-88085519D02*
G01*
X91426627Y-88092037D01*
X91596466Y-88143557D01*
X91596468Y-88143558D01*
X91674729Y-88185390D01*
X91752991Y-88227222D01*
X91788729Y-88256552D01*
X91890186Y-88339814D01*
X91973448Y-88441271D01*
X92002778Y-88477009D01*
X92086443Y-88633534D01*
X92137963Y-88803373D01*
X92155359Y-88980000D01*
X92137963Y-89156627D01*
X92086443Y-89326466D01*
X92002778Y-89482991D01*
X91973448Y-89518729D01*
X91890186Y-89620186D01*
X91822175Y-89676000D01*
X91752991Y-89732778D01*
X91596466Y-89816443D01*
X91426627Y-89867963D01*
X91360443Y-89874481D01*
X91294260Y-89881000D01*
X91205740Y-89881000D01*
X91139557Y-89874481D01*
X91073373Y-89867963D01*
X90903534Y-89816443D01*
X90747009Y-89732778D01*
X90677825Y-89676000D01*
X90609814Y-89620186D01*
X90526552Y-89518729D01*
X90497222Y-89482991D01*
X90413557Y-89326466D01*
X90362037Y-89156627D01*
X90344641Y-88980000D01*
X90362037Y-88803373D01*
X90413557Y-88633534D01*
X90497222Y-88477009D01*
X90526552Y-88441271D01*
X90609814Y-88339814D01*
X90711271Y-88256552D01*
X90747009Y-88227222D01*
X90825271Y-88185390D01*
X90903532Y-88143558D01*
X90903534Y-88143557D01*
X91073373Y-88092037D01*
X91139557Y-88085519D01*
X91205740Y-88079000D01*
X91294260Y-88079000D01*
X91360443Y-88085519D01*
X91360443Y-88085519D01*
G37*
G36*
X132326000Y-89676000D02*
G01*
X130274000Y-89676000D01*
X130274000Y-87074000D01*
X132326000Y-87074000D01*
X132326000Y-89676000D01*
X132326000Y-89676000D01*
G37*
G36*
X129276000Y-89676000D02*
G01*
X127224000Y-89676000D01*
X127224000Y-87074000D01*
X129276000Y-87074000D01*
X129276000Y-89676000D01*
X129276000Y-89676000D01*
G37*
G36*
X150366981Y-87117468D02*
G01*
X150495795Y-87170825D01*
X150548797Y-87192779D01*
X150549151Y-87192926D01*
X150713100Y-87302473D01*
X150852527Y-87441900D01*
X150962074Y-87605849D01*
X151011843Y-87726000D01*
X151037532Y-87788020D01*
X151076000Y-87981409D01*
X151076000Y-88178591D01*
X151056766Y-88275285D01*
X151037532Y-88371981D01*
X150962074Y-88554151D01*
X150852527Y-88718100D01*
X150713100Y-88857527D01*
X150549151Y-88967074D01*
X150366981Y-89042532D01*
X150270285Y-89061766D01*
X150173591Y-89081000D01*
X149976409Y-89081000D01*
X149879715Y-89061766D01*
X149783019Y-89042532D01*
X149600849Y-88967074D01*
X149436900Y-88857527D01*
X149297473Y-88718100D01*
X149187926Y-88554151D01*
X149112468Y-88371981D01*
X149093234Y-88275285D01*
X149074000Y-88178591D01*
X149074000Y-87981409D01*
X149112468Y-87788020D01*
X149138158Y-87726000D01*
X149187926Y-87605849D01*
X149297473Y-87441900D01*
X149436900Y-87302473D01*
X149600849Y-87192926D01*
X149601204Y-87192779D01*
X149654205Y-87170825D01*
X149783019Y-87117468D01*
X149879715Y-87098234D01*
X149976409Y-87079000D01*
X150173591Y-87079000D01*
X150366981Y-87117468D01*
X150366981Y-87117468D01*
G37*
G36*
X157701000Y-89026000D02*
G01*
X156699000Y-89026000D01*
X156699000Y-88124000D01*
X157701000Y-88124000D01*
X157701000Y-89026000D01*
X157701000Y-89026000D01*
G37*
G36*
X112051000Y-88996000D02*
G01*
X109949000Y-88996000D01*
X109949000Y-87994000D01*
X112051000Y-87994000D01*
X112051000Y-88996000D01*
X112051000Y-88996000D01*
G37*
G36*
X95051000Y-88996000D02*
G01*
X92949000Y-88996000D01*
X92949000Y-87994000D01*
X95051000Y-87994000D01*
X95051000Y-88996000D01*
X95051000Y-88996000D01*
G37*
G36*
X154001000Y-88676000D02*
G01*
X152599000Y-88676000D01*
X152599000Y-87874000D01*
X154001000Y-87874000D01*
X154001000Y-88676000D01*
X154001000Y-88676000D01*
G37*
G36*
X155701000Y-88076000D02*
G01*
X154699000Y-88076000D01*
X154699000Y-87174000D01*
X155701000Y-87174000D01*
X155701000Y-88076000D01*
X155701000Y-88076000D01*
G37*
G36*
X117201000Y-87851000D02*
G01*
X116199000Y-87851000D01*
X116199000Y-87249000D01*
X117201000Y-87249000D01*
X117201000Y-87851000D01*
X117201000Y-87851000D01*
G37*
G36*
X119201000Y-87851000D02*
G01*
X118199000Y-87851000D01*
X118199000Y-87249000D01*
X119201000Y-87249000D01*
X119201000Y-87851000D01*
X119201000Y-87851000D01*
G37*
G36*
X95051000Y-87726000D02*
G01*
X92949000Y-87726000D01*
X92949000Y-86724000D01*
X95051000Y-86724000D01*
X95051000Y-87726000D01*
X95051000Y-87726000D01*
G37*
G36*
X112051000Y-87726000D02*
G01*
X109949000Y-87726000D01*
X109949000Y-86724000D01*
X112051000Y-86724000D01*
X112051000Y-87726000D01*
X112051000Y-87726000D01*
G37*
G36*
X91360443Y-85545519D02*
G01*
X91426627Y-85552037D01*
X91596466Y-85603557D01*
X91596468Y-85603558D01*
X91674729Y-85645390D01*
X91752991Y-85687222D01*
X91788729Y-85716552D01*
X91890186Y-85799814D01*
X91973448Y-85901271D01*
X92002778Y-85937009D01*
X92086443Y-86093534D01*
X92137963Y-86263373D01*
X92155359Y-86440000D01*
X92137963Y-86616627D01*
X92086443Y-86786466D01*
X92002778Y-86942991D01*
X91973448Y-86978729D01*
X91890186Y-87080186D01*
X91788729Y-87163448D01*
X91752991Y-87192778D01*
X91596466Y-87276443D01*
X91426627Y-87327963D01*
X91360442Y-87334482D01*
X91294260Y-87341000D01*
X91205740Y-87341000D01*
X91139558Y-87334482D01*
X91073373Y-87327963D01*
X90903534Y-87276443D01*
X90747009Y-87192778D01*
X90711271Y-87163448D01*
X90609814Y-87080186D01*
X90526552Y-86978729D01*
X90497222Y-86942991D01*
X90413557Y-86786466D01*
X90362037Y-86616627D01*
X90344641Y-86440000D01*
X90362037Y-86263373D01*
X90413557Y-86093534D01*
X90497222Y-85937009D01*
X90526552Y-85901271D01*
X90609814Y-85799814D01*
X90711271Y-85716552D01*
X90747009Y-85687222D01*
X90825271Y-85645390D01*
X90903532Y-85603558D01*
X90903534Y-85603557D01*
X91073373Y-85552037D01*
X91139557Y-85545519D01*
X91205740Y-85539000D01*
X91294260Y-85539000D01*
X91360443Y-85545519D01*
X91360443Y-85545519D01*
G37*
G36*
X157701000Y-87126000D02*
G01*
X156699000Y-87126000D01*
X156699000Y-86224000D01*
X157701000Y-86224000D01*
X157701000Y-87126000D01*
X157701000Y-87126000D01*
G37*
G36*
X154001000Y-86776000D02*
G01*
X152599000Y-86776000D01*
X152599000Y-85974000D01*
X154001000Y-85974000D01*
X154001000Y-86776000D01*
X154001000Y-86776000D01*
G37*
G36*
X150270285Y-84558234D02*
G01*
X150366981Y-84577468D01*
X150549151Y-84652926D01*
X150713100Y-84762473D01*
X150852527Y-84901900D01*
X150962074Y-85065849D01*
X151011843Y-85186000D01*
X151037532Y-85248020D01*
X151076000Y-85441409D01*
X151076000Y-85638591D01*
X151037532Y-85831981D01*
X150962074Y-86014151D01*
X150852527Y-86178100D01*
X150713100Y-86317527D01*
X150549151Y-86427074D01*
X150366981Y-86502532D01*
X150270285Y-86521766D01*
X150173591Y-86541000D01*
X149976409Y-86541000D01*
X149783019Y-86502532D01*
X149600849Y-86427074D01*
X149436900Y-86317527D01*
X149297473Y-86178100D01*
X149187926Y-86014151D01*
X149112468Y-85831981D01*
X149093234Y-85735285D01*
X149074000Y-85638591D01*
X149074000Y-85441409D01*
X149112468Y-85248020D01*
X149138158Y-85186000D01*
X149187926Y-85065849D01*
X149297473Y-84901900D01*
X149436900Y-84762473D01*
X149600849Y-84652926D01*
X149783019Y-84577468D01*
X149879715Y-84558234D01*
X149976409Y-84539000D01*
X150173591Y-84539000D01*
X150270285Y-84558234D01*
X150270285Y-84558234D01*
G37*
G36*
X112051000Y-86456000D02*
G01*
X109949000Y-86456000D01*
X109949000Y-85454000D01*
X112051000Y-85454000D01*
X112051000Y-86456000D01*
X112051000Y-86456000D01*
G37*
G36*
X95051000Y-86456000D02*
G01*
X92949000Y-86456000D01*
X92949000Y-85454000D01*
X95051000Y-85454000D01*
X95051000Y-86456000D01*
X95051000Y-86456000D01*
G37*
G36*
X119201000Y-86351000D02*
G01*
X118199000Y-86351000D01*
X118199000Y-85749000D01*
X119201000Y-85749000D01*
X119201000Y-86351000D01*
X119201000Y-86351000D01*
G37*
G36*
X117201000Y-86351000D02*
G01*
X116199000Y-86351000D01*
X116199000Y-85749000D01*
X117201000Y-85749000D01*
X117201000Y-86351000D01*
X117201000Y-86351000D01*
G37*
G36*
X95051000Y-85186000D02*
G01*
X92949000Y-85186000D01*
X92949000Y-84184000D01*
X95051000Y-84184000D01*
X95051000Y-85186000D01*
X95051000Y-85186000D01*
G37*
G36*
X112051000Y-85186000D02*
G01*
X109949000Y-85186000D01*
X109949000Y-84184000D01*
X112051000Y-84184000D01*
X112051000Y-85186000D01*
X112051000Y-85186000D01*
G37*
G36*
X156901000Y-85051000D02*
G01*
X155899000Y-85051000D01*
X155899000Y-83749000D01*
X156901000Y-83749000D01*
X156901000Y-85051000D01*
X156901000Y-85051000D01*
G37*
G36*
X153601000Y-85051000D02*
G01*
X152599000Y-85051000D01*
X152599000Y-83749000D01*
X153601000Y-83749000D01*
X153601000Y-85051000D01*
X153601000Y-85051000D01*
G37*
G36*
X92151000Y-84801000D02*
G01*
X90349000Y-84801000D01*
X90349000Y-82999000D01*
X92151000Y-82999000D01*
X92151000Y-84801000D01*
X92151000Y-84801000D01*
G37*
G36*
X123626000Y-84126000D02*
G01*
X119624000Y-84126000D01*
X119624000Y-81824000D01*
X123626000Y-81824000D01*
X123626000Y-84126000D01*
X123626000Y-84126000D01*
G37*
G36*
X150270285Y-82018234D02*
G01*
X150366981Y-82037468D01*
X150549151Y-82112926D01*
X150713100Y-82222473D01*
X150852527Y-82361900D01*
X150962074Y-82525849D01*
X151037532Y-82708019D01*
X151076000Y-82901410D01*
X151076000Y-83098590D01*
X151037532Y-83291981D01*
X150962074Y-83474151D01*
X150852527Y-83638100D01*
X150713100Y-83777527D01*
X150549151Y-83887074D01*
X150366981Y-83962532D01*
X150173591Y-84001000D01*
X149976409Y-84001000D01*
X149879715Y-83981766D01*
X149783019Y-83962532D01*
X149600849Y-83887074D01*
X149436900Y-83777527D01*
X149297473Y-83638100D01*
X149187926Y-83474151D01*
X149112468Y-83291981D01*
X149074000Y-83098590D01*
X149074000Y-82901410D01*
X149112468Y-82708019D01*
X149187926Y-82525849D01*
X149297473Y-82361900D01*
X149436900Y-82222473D01*
X149600849Y-82112926D01*
X149783019Y-82037468D01*
X149879715Y-82018234D01*
X149976409Y-81999000D01*
X150173591Y-81999000D01*
X150270285Y-82018234D01*
X150270285Y-82018234D01*
G37*
G36*
X112051000Y-83916000D02*
G01*
X109949000Y-83916000D01*
X109949000Y-82914000D01*
X112051000Y-82914000D01*
X112051000Y-83916000D01*
X112051000Y-83916000D01*
G37*
G36*
X95051000Y-83916000D02*
G01*
X92949000Y-83916000D01*
X92949000Y-82914000D01*
X95051000Y-82914000D01*
X95051000Y-83916000D01*
X95051000Y-83916000D01*
G37*
G36*
X156851000Y-82851000D02*
G01*
X155949000Y-82851000D01*
X155949000Y-80949000D01*
X156851000Y-80949000D01*
X156851000Y-82851000D01*
X156851000Y-82851000D01*
G37*
G36*
X164451000Y-82851000D02*
G01*
X163549000Y-82851000D01*
X163549000Y-80949000D01*
X164451000Y-80949000D01*
X164451000Y-82851000D01*
X164451000Y-82851000D01*
G37*
G36*
X160051000Y-82851000D02*
G01*
X159149000Y-82851000D01*
X159149000Y-80949000D01*
X160051000Y-80949000D01*
X160051000Y-82851000D01*
X160051000Y-82851000D01*
G37*
G36*
X162251000Y-82851000D02*
G01*
X161349000Y-82851000D01*
X161349000Y-80949000D01*
X162251000Y-80949000D01*
X162251000Y-82851000D01*
X162251000Y-82851000D01*
G37*
G36*
X95051000Y-82646000D02*
G01*
X92949000Y-82646000D01*
X92949000Y-81644000D01*
X95051000Y-81644000D01*
X95051000Y-82646000D01*
X95051000Y-82646000D01*
G37*
G36*
X112051000Y-82646000D02*
G01*
X109949000Y-82646000D01*
X109949000Y-81644000D01*
X112051000Y-81644000D01*
X112051000Y-82646000D01*
X112051000Y-82646000D01*
G37*
G36*
X132026000Y-82526000D02*
G01*
X129724000Y-82526000D01*
X129724000Y-78524000D01*
X132026000Y-78524000D01*
X132026000Y-82526000D01*
X132026000Y-82526000D01*
G37*
G36*
X128226000Y-82526000D02*
G01*
X125924000Y-82526000D01*
X125924000Y-78524000D01*
X128226000Y-78524000D01*
X128226000Y-82526000D01*
X128226000Y-82526000D01*
G37*
G36*
X97286000Y-82196000D02*
G01*
X96284000Y-82196000D01*
X96284000Y-80094000D01*
X97286000Y-80094000D01*
X97286000Y-82196000D01*
X97286000Y-82196000D01*
G37*
G36*
X98556000Y-82196000D02*
G01*
X97554000Y-82196000D01*
X97554000Y-80094000D01*
X98556000Y-80094000D01*
X98556000Y-82196000D01*
X98556000Y-82196000D01*
G37*
G36*
X107446000Y-82196000D02*
G01*
X106444000Y-82196000D01*
X106444000Y-80094000D01*
X107446000Y-80094000D01*
X107446000Y-82196000D01*
X107446000Y-82196000D01*
G37*
G36*
X99826000Y-82196000D02*
G01*
X98824000Y-82196000D01*
X98824000Y-80094000D01*
X99826000Y-80094000D01*
X99826000Y-82196000D01*
X99826000Y-82196000D01*
G37*
G36*
X101096000Y-82196000D02*
G01*
X100094000Y-82196000D01*
X100094000Y-80094000D01*
X101096000Y-80094000D01*
X101096000Y-82196000D01*
X101096000Y-82196000D01*
G37*
G36*
X104906000Y-82196000D02*
G01*
X103904000Y-82196000D01*
X103904000Y-80094000D01*
X104906000Y-80094000D01*
X104906000Y-82196000D01*
X104906000Y-82196000D01*
G37*
G36*
X106176000Y-82196000D02*
G01*
X105174000Y-82196000D01*
X105174000Y-80094000D01*
X106176000Y-80094000D01*
X106176000Y-82196000D01*
X106176000Y-82196000D01*
G37*
G36*
X108716000Y-82196000D02*
G01*
X107714000Y-82196000D01*
X107714000Y-80094000D01*
X108716000Y-80094000D01*
X108716000Y-82196000D01*
X108716000Y-82196000D01*
G37*
G36*
X103636000Y-82196000D02*
G01*
X102634000Y-82196000D01*
X102634000Y-80094000D01*
X103636000Y-80094000D01*
X103636000Y-82196000D01*
X103636000Y-82196000D01*
G37*
G36*
X102366000Y-82196000D02*
G01*
X101364000Y-82196000D01*
X101364000Y-80094000D01*
X102366000Y-80094000D01*
X102366000Y-82196000D01*
X102366000Y-82196000D01*
G37*
G36*
X125051000Y-81751000D02*
G01*
X124199000Y-81751000D01*
X124199000Y-80849000D01*
X125051000Y-80849000D01*
X125051000Y-81751000D01*
X125051000Y-81751000D01*
G37*
G36*
X150366981Y-79497468D02*
G01*
X150549151Y-79572926D01*
X150713100Y-79682473D01*
X150852527Y-79821900D01*
X150962074Y-79985849D01*
X151009772Y-80101000D01*
X151037532Y-80168020D01*
X151068957Y-80326000D01*
X151076000Y-80361410D01*
X151076000Y-80558590D01*
X151037532Y-80751981D01*
X150962074Y-80934151D01*
X150852527Y-81098100D01*
X150713100Y-81237527D01*
X150549151Y-81347074D01*
X150366981Y-81422532D01*
X150173591Y-81461000D01*
X149976409Y-81461000D01*
X149879715Y-81441766D01*
X149783019Y-81422532D01*
X149600849Y-81347074D01*
X149436900Y-81237527D01*
X149297473Y-81098100D01*
X149187926Y-80934151D01*
X149112468Y-80751981D01*
X149074000Y-80558590D01*
X149074000Y-80361410D01*
X149081044Y-80326000D01*
X149112468Y-80168020D01*
X149140229Y-80101000D01*
X149187926Y-79985849D01*
X149297473Y-79821900D01*
X149436900Y-79682473D01*
X149600849Y-79572926D01*
X149783019Y-79497468D01*
X149879715Y-79478234D01*
X149976409Y-79459000D01*
X150173591Y-79459000D01*
X150366981Y-79497468D01*
X150366981Y-79497468D01*
G37*
G36*
X87351000Y-80651000D02*
G01*
X86449000Y-80651000D01*
X86449000Y-79749000D01*
X87351000Y-79749000D01*
X87351000Y-80651000D01*
X87351000Y-80651000D01*
G37*
G36*
X123626000Y-80326000D02*
G01*
X119624000Y-80326000D01*
X119624000Y-78024000D01*
X123626000Y-78024000D01*
X123626000Y-80326000D01*
X123626000Y-80326000D01*
G37*
G36*
X125051000Y-80251000D02*
G01*
X124199000Y-80251000D01*
X124199000Y-79349000D01*
X125051000Y-79349000D01*
X125051000Y-80251000D01*
X125051000Y-80251000D01*
G37*
G36*
X116351000Y-80101000D02*
G01*
X115349000Y-80101000D01*
X115349000Y-79199000D01*
X116351000Y-79199000D01*
X116351000Y-80101000D01*
X116351000Y-80101000D01*
G37*
G36*
X90801000Y-79801000D02*
G01*
X90199000Y-79801000D01*
X90199000Y-78799000D01*
X90801000Y-78799000D01*
X90801000Y-79801000D01*
X90801000Y-79801000D01*
G37*
G36*
X89301000Y-79801000D02*
G01*
X88699000Y-79801000D01*
X88699000Y-78799000D01*
X89301000Y-78799000D01*
X89301000Y-79801000D01*
X89301000Y-79801000D01*
G37*
G36*
X97001000Y-79651000D02*
G01*
X96399000Y-79651000D01*
X96399000Y-78649000D01*
X97001000Y-78649000D01*
X97001000Y-79651000D01*
X97001000Y-79651000D01*
G37*
G36*
X95501000Y-79651000D02*
G01*
X94899000Y-79651000D01*
X94899000Y-78649000D01*
X95501000Y-78649000D01*
X95501000Y-79651000D01*
X95501000Y-79651000D01*
G37*
G36*
X114351000Y-79151000D02*
G01*
X113349000Y-79151000D01*
X113349000Y-78249000D01*
X114351000Y-78249000D01*
X114351000Y-79151000D01*
X114351000Y-79151000D01*
G37*
G36*
X87351000Y-79051000D02*
G01*
X86449000Y-79051000D01*
X86449000Y-78149000D01*
X87351000Y-78149000D01*
X87351000Y-79051000D01*
X87351000Y-79051000D01*
G37*
G36*
X150366981Y-76957468D02*
G01*
X150495795Y-77010825D01*
X150532431Y-77026000D01*
X150549151Y-77032926D01*
X150713100Y-77142473D01*
X150852527Y-77281900D01*
X150962074Y-77445849D01*
X151037532Y-77628019D01*
X151076000Y-77821410D01*
X151076000Y-78018590D01*
X151037532Y-78211981D01*
X150962074Y-78394151D01*
X150852527Y-78558100D01*
X150713100Y-78697527D01*
X150549151Y-78807074D01*
X150366981Y-78882532D01*
X150173591Y-78921000D01*
X149976409Y-78921000D01*
X149879715Y-78901766D01*
X149783019Y-78882532D01*
X149600849Y-78807074D01*
X149436900Y-78697527D01*
X149297473Y-78558100D01*
X149187926Y-78394151D01*
X149112468Y-78211981D01*
X149074000Y-78018590D01*
X149074000Y-77821410D01*
X149112468Y-77628019D01*
X149187926Y-77445849D01*
X149297473Y-77281900D01*
X149436900Y-77142473D01*
X149600849Y-77032926D01*
X149617570Y-77026000D01*
X149654205Y-77010825D01*
X149783019Y-76957468D01*
X149976409Y-76919000D01*
X150173591Y-76919000D01*
X150366981Y-76957468D01*
X150366981Y-76957468D01*
G37*
G36*
X116351000Y-78201000D02*
G01*
X115349000Y-78201000D01*
X115349000Y-77299000D01*
X116351000Y-77299000D01*
X116351000Y-78201000D01*
X116351000Y-78201000D01*
G37*
G36*
X112101000Y-77601000D02*
G01*
X109499000Y-77601000D01*
X109499000Y-74999000D01*
X112101000Y-74999000D01*
X112101000Y-77601000D01*
X112101000Y-77601000D01*
G37*
G36*
X105401000Y-77601000D02*
G01*
X102799000Y-77601000D01*
X102799000Y-74999000D01*
X105401000Y-74999000D01*
X105401000Y-77601000D01*
X105401000Y-77601000D01*
G37*
G36*
X108501000Y-77601000D02*
G01*
X105899000Y-77601000D01*
X105899000Y-74999000D01*
X108501000Y-74999000D01*
X108501000Y-77601000D01*
X108501000Y-77601000D01*
G37*
G36*
X125297066Y-74943447D02*
G01*
X125312611Y-74962389D01*
X125331553Y-74977934D01*
X125353164Y-74989485D01*
X125376613Y-74996598D01*
X125400999Y-74999000D01*
X127349001Y-74999000D01*
X127373387Y-74996598D01*
X127396836Y-74989485D01*
X127418447Y-74977934D01*
X127437389Y-74962389D01*
X127452934Y-74943447D01*
X127463328Y-74924000D01*
X128276000Y-74924000D01*
X128276000Y-77576000D01*
X127463328Y-77576000D01*
X127452934Y-77556553D01*
X127437389Y-77537611D01*
X127418447Y-77522066D01*
X127396836Y-77510515D01*
X127373387Y-77503402D01*
X127349001Y-77501000D01*
X125400999Y-77501000D01*
X125376613Y-77503402D01*
X125353164Y-77510515D01*
X125331553Y-77522066D01*
X125312611Y-77537611D01*
X125297066Y-77556553D01*
X125286672Y-77576000D01*
X124474000Y-77576000D01*
X124474000Y-74924000D01*
X125286672Y-74924000D01*
X125297066Y-74943447D01*
X125297066Y-74943447D01*
G37*
G36*
X133851000Y-77501000D02*
G01*
X132999000Y-77501000D01*
X132999000Y-76599000D01*
X133851000Y-76599000D01*
X133851000Y-77501000D01*
X133851000Y-77501000D01*
G37*
G36*
X130401000Y-77451000D02*
G01*
X129549000Y-77451000D01*
X129549000Y-76549000D01*
X130401000Y-76549000D01*
X130401000Y-77451000D01*
X130401000Y-77451000D01*
G37*
G36*
X131976000Y-77401000D02*
G01*
X130974000Y-77401000D01*
X130974000Y-76799000D01*
X131976000Y-76799000D01*
X131976000Y-77401000D01*
X131976000Y-77401000D01*
G37*
G36*
X123301000Y-77101000D02*
G01*
X122449000Y-77101000D01*
X122449000Y-76199000D01*
X123301000Y-76199000D01*
X123301000Y-77101000D01*
X123301000Y-77101000D01*
G37*
G36*
X120551000Y-77026000D02*
G01*
X119699000Y-77026000D01*
X119699000Y-76124000D01*
X120551000Y-76124000D01*
X120551000Y-77026000D01*
X120551000Y-77026000D01*
G37*
G36*
X102401000Y-77001000D02*
G01*
X101399000Y-77001000D01*
X101399000Y-76399000D01*
X102401000Y-76399000D01*
X102401000Y-77001000D01*
X102401000Y-77001000D01*
G37*
G36*
X99601000Y-77001000D02*
G01*
X98599000Y-77001000D01*
X98599000Y-76399000D01*
X99601000Y-76399000D01*
X99601000Y-77001000D01*
X99601000Y-77001000D01*
G37*
G36*
X101001000Y-77001000D02*
G01*
X99999000Y-77001000D01*
X99999000Y-76399000D01*
X101001000Y-76399000D01*
X101001000Y-77001000D01*
X101001000Y-77001000D01*
G37*
G36*
X121976000Y-76951000D02*
G01*
X120974000Y-76951000D01*
X120974000Y-76349000D01*
X121976000Y-76349000D01*
X121976000Y-76951000D01*
X121976000Y-76951000D01*
G37*
G36*
X91688015Y-67186973D02*
G01*
X91791879Y-67218479D01*
X91819055Y-67233005D01*
X91887600Y-67269643D01*
X91971501Y-67338499D01*
X92040357Y-67422400D01*
X92076995Y-67490945D01*
X92091521Y-67518121D01*
X92123027Y-67621985D01*
X92133666Y-67730000D01*
X92123027Y-67838015D01*
X92091521Y-67941879D01*
X92091519Y-67941882D01*
X92040357Y-68037600D01*
X91971501Y-68121501D01*
X91887603Y-68190354D01*
X91887601Y-68190355D01*
X91887600Y-68190356D01*
X91797025Y-68238770D01*
X91776665Y-68252375D01*
X91759338Y-68269702D01*
X91745724Y-68290076D01*
X91736347Y-68312715D01*
X91731566Y-68336748D01*
X91731566Y-68361252D01*
X91736346Y-68385286D01*
X91745723Y-68407925D01*
X91759337Y-68428299D01*
X91776664Y-68445626D01*
X91797038Y-68459240D01*
X91819677Y-68468617D01*
X91843710Y-68473398D01*
X91855963Y-68474000D01*
X93721000Y-68474000D01*
X93721000Y-75626000D01*
X91855963Y-75626000D01*
X91831577Y-75628402D01*
X91808128Y-75635515D01*
X91786517Y-75647066D01*
X91767575Y-75662611D01*
X91752030Y-75681553D01*
X91740479Y-75703164D01*
X91733366Y-75726613D01*
X91730964Y-75750999D01*
X91733366Y-75775385D01*
X91740479Y-75798834D01*
X91752030Y-75820445D01*
X91767575Y-75839387D01*
X91786517Y-75854932D01*
X91797010Y-75861222D01*
X91887600Y-75909644D01*
X91887601Y-75909645D01*
X91887603Y-75909646D01*
X91971501Y-75978499D01*
X92040357Y-76062400D01*
X92073283Y-76124000D01*
X92091521Y-76158121D01*
X92123027Y-76261985D01*
X92133666Y-76370000D01*
X92123027Y-76478015D01*
X92091521Y-76581879D01*
X92091519Y-76581882D01*
X92040357Y-76677600D01*
X91971501Y-76761501D01*
X91887600Y-76830357D01*
X91819055Y-76866995D01*
X91791879Y-76881521D01*
X91688015Y-76913027D01*
X91607067Y-76921000D01*
X90452933Y-76921000D01*
X90371985Y-76913027D01*
X90268121Y-76881521D01*
X90240945Y-76866995D01*
X90172400Y-76830357D01*
X90088499Y-76761501D01*
X90019643Y-76677600D01*
X89968481Y-76581882D01*
X89968479Y-76581879D01*
X89936973Y-76478015D01*
X89926334Y-76370000D01*
X89936973Y-76261985D01*
X89968479Y-76158121D01*
X89986717Y-76124000D01*
X90019643Y-76062400D01*
X90088499Y-75978499D01*
X90172400Y-75909643D01*
X90262958Y-75861239D01*
X90268121Y-75858479D01*
X90371985Y-75826973D01*
X90452933Y-75819000D01*
X91044001Y-75819000D01*
X91068387Y-75816598D01*
X91091836Y-75809485D01*
X91113447Y-75797934D01*
X91132389Y-75782389D01*
X91147934Y-75763447D01*
X91159485Y-75741836D01*
X91166598Y-75718387D01*
X91169000Y-75694001D01*
X91169000Y-68405999D01*
X91166598Y-68381613D01*
X91159485Y-68358164D01*
X91147934Y-68336553D01*
X91132389Y-68317611D01*
X91113447Y-68302066D01*
X91091836Y-68290515D01*
X91068387Y-68283402D01*
X91044001Y-68281000D01*
X90452933Y-68281000D01*
X90371985Y-68273027D01*
X90268121Y-68241521D01*
X90240945Y-68226995D01*
X90172400Y-68190357D01*
X90088499Y-68121501D01*
X90019643Y-68037600D01*
X89968481Y-67941882D01*
X89968479Y-67941879D01*
X89936973Y-67838015D01*
X89926334Y-67730000D01*
X89936973Y-67621985D01*
X89968479Y-67518121D01*
X89983005Y-67490945D01*
X90019643Y-67422400D01*
X90088499Y-67338499D01*
X90172400Y-67269643D01*
X90240945Y-67233005D01*
X90268121Y-67218479D01*
X90371985Y-67186973D01*
X90452933Y-67179000D01*
X91607067Y-67179000D01*
X91688015Y-67186973D01*
X91688015Y-67186973D01*
G37*
G36*
X87258015Y-75826973D02*
G01*
X87361879Y-75858479D01*
X87367042Y-75861239D01*
X87457600Y-75909643D01*
X87541501Y-75978499D01*
X87610357Y-76062400D01*
X87643283Y-76124000D01*
X87661521Y-76158121D01*
X87693027Y-76261985D01*
X87703666Y-76370000D01*
X87693027Y-76478015D01*
X87661521Y-76581879D01*
X87661519Y-76581882D01*
X87610357Y-76677600D01*
X87541501Y-76761501D01*
X87457600Y-76830357D01*
X87389055Y-76866995D01*
X87361879Y-76881521D01*
X87258015Y-76913027D01*
X87177067Y-76921000D01*
X86522933Y-76921000D01*
X86441985Y-76913027D01*
X86338121Y-76881521D01*
X86310945Y-76866995D01*
X86242400Y-76830357D01*
X86158499Y-76761501D01*
X86089643Y-76677600D01*
X86038481Y-76581882D01*
X86038479Y-76581879D01*
X86006973Y-76478015D01*
X85996334Y-76370000D01*
X86006973Y-76261985D01*
X86038479Y-76158121D01*
X86056717Y-76124000D01*
X86089643Y-76062400D01*
X86158499Y-75978499D01*
X86242400Y-75909643D01*
X86332958Y-75861239D01*
X86338121Y-75858479D01*
X86441985Y-75826973D01*
X86522933Y-75819000D01*
X87177067Y-75819000D01*
X87258015Y-75826973D01*
X87258015Y-75826973D01*
G37*
G36*
X115401000Y-76426000D02*
G01*
X114799000Y-76426000D01*
X114799000Y-75424000D01*
X115401000Y-75424000D01*
X115401000Y-76426000D01*
X115401000Y-76426000D01*
G37*
G36*
X113901000Y-76426000D02*
G01*
X113299000Y-76426000D01*
X113299000Y-75424000D01*
X113901000Y-75424000D01*
X113901000Y-76426000D01*
X113901000Y-76426000D01*
G37*
G36*
X150270285Y-74398234D02*
G01*
X150366981Y-74417468D01*
X150549151Y-74492926D01*
X150713100Y-74602473D01*
X150852527Y-74741900D01*
X150960148Y-74902967D01*
X150962075Y-74905851D01*
X150977648Y-74943447D01*
X151021370Y-75049000D01*
X151037532Y-75088020D01*
X151076000Y-75281409D01*
X151076000Y-75478591D01*
X151066570Y-75526000D01*
X151037532Y-75671981D01*
X150962074Y-75854151D01*
X150852527Y-76018100D01*
X150713100Y-76157527D01*
X150549151Y-76267074D01*
X150549150Y-76267075D01*
X150549149Y-76267075D01*
X150495795Y-76289175D01*
X150366981Y-76342532D01*
X150334464Y-76349000D01*
X150173591Y-76381000D01*
X149976409Y-76381000D01*
X149815536Y-76349000D01*
X149783019Y-76342532D01*
X149654205Y-76289175D01*
X149600851Y-76267075D01*
X149600850Y-76267075D01*
X149600849Y-76267074D01*
X149436900Y-76157527D01*
X149297473Y-76018100D01*
X149187926Y-75854151D01*
X149112468Y-75671981D01*
X149083430Y-75526000D01*
X149074000Y-75478591D01*
X149074000Y-75281409D01*
X149112468Y-75088020D01*
X149128631Y-75049000D01*
X149172352Y-74943447D01*
X149187925Y-74905851D01*
X149189852Y-74902967D01*
X149297473Y-74741900D01*
X149436900Y-74602473D01*
X149600849Y-74492926D01*
X149783019Y-74417468D01*
X149879715Y-74398234D01*
X149976409Y-74379000D01*
X150173591Y-74379000D01*
X150270285Y-74398234D01*
X150270285Y-74398234D01*
G37*
G36*
X133851000Y-76001000D02*
G01*
X132999000Y-76001000D01*
X132999000Y-75099000D01*
X133851000Y-75099000D01*
X133851000Y-76001000D01*
X133851000Y-76001000D01*
G37*
G36*
X130401000Y-75951000D02*
G01*
X129549000Y-75951000D01*
X129549000Y-75049000D01*
X130401000Y-75049000D01*
X130401000Y-75951000D01*
X130401000Y-75951000D01*
G37*
G36*
X131976000Y-75901000D02*
G01*
X130974000Y-75901000D01*
X130974000Y-75299000D01*
X131976000Y-75299000D01*
X131976000Y-75901000D01*
X131976000Y-75901000D01*
G37*
G36*
X164451000Y-75851000D02*
G01*
X163549000Y-75851000D01*
X163549000Y-73949000D01*
X164451000Y-73949000D01*
X164451000Y-75851000D01*
X164451000Y-75851000D01*
G37*
G36*
X160051000Y-75851000D02*
G01*
X159149000Y-75851000D01*
X159149000Y-73949000D01*
X160051000Y-73949000D01*
X160051000Y-75851000D01*
X160051000Y-75851000D01*
G37*
G36*
X156851000Y-75851000D02*
G01*
X155949000Y-75851000D01*
X155949000Y-73949000D01*
X156851000Y-73949000D01*
X156851000Y-75851000D01*
X156851000Y-75851000D01*
G37*
G36*
X162251000Y-75851000D02*
G01*
X161349000Y-75851000D01*
X161349000Y-73949000D01*
X162251000Y-73949000D01*
X162251000Y-75851000D01*
X162251000Y-75851000D01*
G37*
G36*
X95001000Y-75701000D02*
G01*
X93999000Y-75701000D01*
X93999000Y-75099000D01*
X95001000Y-75099000D01*
X95001000Y-75701000D01*
X95001000Y-75701000D01*
G37*
G36*
X123301000Y-75601000D02*
G01*
X122449000Y-75601000D01*
X122449000Y-74699000D01*
X123301000Y-74699000D01*
X123301000Y-75601000D01*
X123301000Y-75601000D01*
G37*
G36*
X120551000Y-75526000D02*
G01*
X119699000Y-75526000D01*
X119699000Y-74624000D01*
X120551000Y-74624000D01*
X120551000Y-75526000D01*
X120551000Y-75526000D01*
G37*
G36*
X101001000Y-75501000D02*
G01*
X99999000Y-75501000D01*
X99999000Y-74899000D01*
X101001000Y-74899000D01*
X101001000Y-75501000D01*
X101001000Y-75501000D01*
G37*
G36*
X99601000Y-75501000D02*
G01*
X98599000Y-75501000D01*
X98599000Y-74899000D01*
X99601000Y-74899000D01*
X99601000Y-75501000D01*
X99601000Y-75501000D01*
G37*
G36*
X102401000Y-75501000D02*
G01*
X101399000Y-75501000D01*
X101399000Y-74899000D01*
X102401000Y-74899000D01*
X102401000Y-75501000D01*
X102401000Y-75501000D01*
G37*
G36*
X121976000Y-75451000D02*
G01*
X120974000Y-75451000D01*
X120974000Y-74849000D01*
X121976000Y-74849000D01*
X121976000Y-75451000D01*
X121976000Y-75451000D01*
G37*
G36*
X90609672Y-74578449D02*
G01*
X90609674Y-74578450D01*
X90609675Y-74578450D01*
X90678103Y-74606793D01*
X90739686Y-74647942D01*
X90792058Y-74700314D01*
X90833207Y-74761897D01*
X90861550Y-74830325D01*
X90861551Y-74830328D01*
X90876000Y-74902966D01*
X90876000Y-74977034D01*
X90861685Y-75049000D01*
X90861550Y-75049675D01*
X90833207Y-75118103D01*
X90792058Y-75179686D01*
X90739686Y-75232058D01*
X90678103Y-75273207D01*
X90609675Y-75301550D01*
X90609674Y-75301550D01*
X90609672Y-75301551D01*
X90537034Y-75316000D01*
X90462966Y-75316000D01*
X90390328Y-75301551D01*
X90390326Y-75301550D01*
X90390325Y-75301550D01*
X90321897Y-75273207D01*
X90260314Y-75232058D01*
X90207942Y-75179686D01*
X90166793Y-75118103D01*
X90138450Y-75049675D01*
X90138316Y-75049000D01*
X90124000Y-74977034D01*
X90124000Y-74902966D01*
X90138449Y-74830328D01*
X90138450Y-74830325D01*
X90166793Y-74761897D01*
X90207942Y-74700314D01*
X90260314Y-74647942D01*
X90321897Y-74606793D01*
X90390325Y-74578450D01*
X90390326Y-74578450D01*
X90390328Y-74578449D01*
X90462966Y-74564000D01*
X90537034Y-74564000D01*
X90609672Y-74578449D01*
X90609672Y-74578449D01*
G37*
G36*
X114151000Y-74801000D02*
G01*
X113249000Y-74801000D01*
X113249000Y-73949000D01*
X114151000Y-73949000D01*
X114151000Y-74801000D01*
X114151000Y-74801000D01*
G37*
G36*
X115651000Y-74801000D02*
G01*
X114749000Y-74801000D01*
X114749000Y-73949000D01*
X115651000Y-73949000D01*
X115651000Y-74801000D01*
X115651000Y-74801000D01*
G37*
G36*
X130476000Y-74501000D02*
G01*
X129474000Y-74501000D01*
X129474000Y-73899000D01*
X130476000Y-73899000D01*
X130476000Y-74501000D01*
X130476000Y-74501000D01*
G37*
G36*
X105001000Y-74301000D02*
G01*
X104399000Y-74301000D01*
X104399000Y-73299000D01*
X105001000Y-73299000D01*
X105001000Y-74301000D01*
X105001000Y-74301000D01*
G37*
G36*
X106501000Y-74301000D02*
G01*
X105899000Y-74301000D01*
X105899000Y-73299000D01*
X106501000Y-73299000D01*
X106501000Y-74301000D01*
X106501000Y-74301000D01*
G37*
G36*
X95001000Y-74201000D02*
G01*
X93999000Y-74201000D01*
X93999000Y-73599000D01*
X95001000Y-73599000D01*
X95001000Y-74201000D01*
X95001000Y-74201000D01*
G37*
G36*
X108326000Y-74151000D02*
G01*
X107474000Y-74151000D01*
X107474000Y-73249000D01*
X108326000Y-73249000D01*
X108326000Y-74151000D01*
X108326000Y-74151000D01*
G37*
G36*
X123176000Y-74151000D02*
G01*
X122574000Y-74151000D01*
X122574000Y-73149000D01*
X123176000Y-73149000D01*
X123176000Y-74151000D01*
X123176000Y-74151000D01*
G37*
G36*
X121676000Y-74151000D02*
G01*
X121074000Y-74151000D01*
X121074000Y-73149000D01*
X121676000Y-73149000D01*
X121676000Y-74151000D01*
X121676000Y-74151000D01*
G37*
G36*
X112101000Y-74101000D02*
G01*
X109499000Y-74101000D01*
X109499000Y-71499000D01*
X112101000Y-71499000D01*
X112101000Y-74101000D01*
X112101000Y-74101000D01*
G37*
G36*
X125176000Y-73626000D02*
G01*
X124274000Y-73626000D01*
X124274000Y-72774000D01*
X125176000Y-72774000D01*
X125176000Y-73626000D01*
X125176000Y-73626000D01*
G37*
G36*
X126676000Y-73626000D02*
G01*
X125774000Y-73626000D01*
X125774000Y-72774000D01*
X126676000Y-72774000D01*
X126676000Y-73626000D01*
X126676000Y-73626000D01*
G37*
G36*
X102801000Y-69374001D02*
G01*
X102803402Y-69398387D01*
X102810515Y-69421836D01*
X102822066Y-69443447D01*
X102837611Y-69462389D01*
X102856553Y-69477934D01*
X102878164Y-69489485D01*
X102901613Y-69496598D01*
X102925999Y-69499000D01*
X103776000Y-69499000D01*
X103776000Y-72401000D01*
X102925999Y-72401000D01*
X102901613Y-72403402D01*
X102878164Y-72410515D01*
X102856553Y-72422066D01*
X102837611Y-72437611D01*
X102822066Y-72456553D01*
X102810515Y-72478164D01*
X102803402Y-72501613D01*
X102801000Y-72525999D01*
X102801000Y-73376000D01*
X99899000Y-73376000D01*
X99899000Y-72525999D01*
X99896598Y-72501613D01*
X99889485Y-72478164D01*
X99877934Y-72456553D01*
X99862389Y-72437611D01*
X99843447Y-72422066D01*
X99821836Y-72410515D01*
X99798387Y-72403402D01*
X99774001Y-72401000D01*
X98924000Y-72401000D01*
X98924000Y-69499000D01*
X99774001Y-69499000D01*
X99798387Y-69496598D01*
X99821836Y-69489485D01*
X99843447Y-69477934D01*
X99862389Y-69462389D01*
X99877934Y-69443447D01*
X99889485Y-69421836D01*
X99896598Y-69398387D01*
X99899000Y-69374001D01*
X99899000Y-68524000D01*
X102801000Y-68524000D01*
X102801000Y-69374001D01*
X102801000Y-69374001D01*
G37*
G36*
X150926000Y-73351000D02*
G01*
X150074000Y-73351000D01*
X150074000Y-72449000D01*
X150926000Y-72449000D01*
X150926000Y-73351000D01*
X150926000Y-73351000D01*
G37*
G36*
X149726000Y-73351000D02*
G01*
X148874000Y-73351000D01*
X148874000Y-72449000D01*
X149726000Y-72449000D01*
X149726000Y-73351000D01*
X149726000Y-73351000D01*
G37*
G36*
X115151000Y-73326000D02*
G01*
X114549000Y-73326000D01*
X114549000Y-72324000D01*
X115151000Y-72324000D01*
X115151000Y-73326000D01*
X115151000Y-73326000D01*
G37*
G36*
X113651000Y-73326000D02*
G01*
X113049000Y-73326000D01*
X113049000Y-72324000D01*
X113651000Y-72324000D01*
X113651000Y-73326000D01*
X113651000Y-73326000D01*
G37*
G36*
X130476000Y-73001000D02*
G01*
X129474000Y-73001000D01*
X129474000Y-72399000D01*
X130476000Y-72399000D01*
X130476000Y-73001000D01*
X130476000Y-73001000D01*
G37*
G36*
X159551000Y-72726000D02*
G01*
X158649000Y-72726000D01*
X158649000Y-71874000D01*
X159551000Y-71874000D01*
X159551000Y-72726000D01*
X159551000Y-72726000D01*
G37*
G36*
X157951000Y-72726000D02*
G01*
X157049000Y-72726000D01*
X157049000Y-71874000D01*
X157951000Y-71874000D01*
X157951000Y-72726000D01*
X157951000Y-72726000D01*
G37*
G36*
X156451000Y-72726000D02*
G01*
X155549000Y-72726000D01*
X155549000Y-71874000D01*
X156451000Y-71874000D01*
X156451000Y-72726000D01*
X156451000Y-72726000D01*
G37*
G36*
X161051000Y-72726000D02*
G01*
X160149000Y-72726000D01*
X160149000Y-71874000D01*
X161051000Y-71874000D01*
X161051000Y-72726000D01*
X161051000Y-72726000D01*
G37*
G36*
X108326000Y-72651000D02*
G01*
X107474000Y-72651000D01*
X107474000Y-71749000D01*
X108326000Y-71749000D01*
X108326000Y-72651000D01*
X108326000Y-72651000D01*
G37*
G36*
X154751000Y-72526000D02*
G01*
X153849000Y-72526000D01*
X153849000Y-71674000D01*
X154751000Y-71674000D01*
X154751000Y-72526000D01*
X154751000Y-72526000D01*
G37*
G36*
X153251000Y-72526000D02*
G01*
X152349000Y-72526000D01*
X152349000Y-71674000D01*
X153251000Y-71674000D01*
X153251000Y-72526000D01*
X153251000Y-72526000D01*
G37*
G36*
X121826000Y-72476000D02*
G01*
X120924000Y-72476000D01*
X120924000Y-71624000D01*
X121826000Y-71624000D01*
X121826000Y-72476000D01*
X121826000Y-72476000D01*
G37*
G36*
X123326000Y-72476000D02*
G01*
X122424000Y-72476000D01*
X122424000Y-71624000D01*
X123326000Y-71624000D01*
X123326000Y-72476000D01*
X123326000Y-72476000D01*
G37*
G36*
X126526000Y-72101000D02*
G01*
X125924000Y-72101000D01*
X125924000Y-71099000D01*
X126526000Y-71099000D01*
X126526000Y-72101000D01*
X126526000Y-72101000D01*
G37*
G36*
X125026000Y-72101000D02*
G01*
X124424000Y-72101000D01*
X124424000Y-71099000D01*
X125026000Y-71099000D01*
X125026000Y-72101000D01*
X125026000Y-72101000D01*
G37*
G36*
X144726000Y-71901000D02*
G01*
X143874000Y-71901000D01*
X143874000Y-70999000D01*
X144726000Y-70999000D01*
X144726000Y-71901000D01*
X144726000Y-71901000D01*
G37*
G36*
X150926000Y-71851000D02*
G01*
X150074000Y-71851000D01*
X150074000Y-70949000D01*
X150926000Y-70949000D01*
X150926000Y-71851000D01*
X150926000Y-71851000D01*
G37*
G36*
X149726000Y-71851000D02*
G01*
X148874000Y-71851000D01*
X148874000Y-70949000D01*
X149726000Y-70949000D01*
X149726000Y-71851000D01*
X149726000Y-71851000D01*
G37*
G36*
X156451000Y-71426000D02*
G01*
X155549000Y-71426000D01*
X155549000Y-70574000D01*
X156451000Y-70574000D01*
X156451000Y-71426000D01*
X156451000Y-71426000D01*
G37*
G36*
X157951000Y-71426000D02*
G01*
X157049000Y-71426000D01*
X157049000Y-70574000D01*
X157951000Y-70574000D01*
X157951000Y-71426000D01*
X157951000Y-71426000D01*
G37*
G36*
X159201000Y-71401000D02*
G01*
X158599000Y-71401000D01*
X158599000Y-70399000D01*
X159201000Y-70399000D01*
X159201000Y-71401000D01*
X159201000Y-71401000D01*
G37*
G36*
X160701000Y-71401000D02*
G01*
X160099000Y-71401000D01*
X160099000Y-70399000D01*
X160701000Y-70399000D01*
X160701000Y-71401000D01*
X160701000Y-71401000D01*
G37*
G36*
X154751000Y-71126000D02*
G01*
X153849000Y-71126000D01*
X153849000Y-70274000D01*
X154751000Y-70274000D01*
X154751000Y-71126000D01*
X154751000Y-71126000D01*
G37*
G36*
X153251000Y-71126000D02*
G01*
X152349000Y-71126000D01*
X152349000Y-70274000D01*
X153251000Y-70274000D01*
X153251000Y-71126000D01*
X153251000Y-71126000D01*
G37*
G36*
X110501000Y-70801000D02*
G01*
X109899000Y-70801000D01*
X109899000Y-69799000D01*
X110501000Y-69799000D01*
X110501000Y-70801000D01*
X110501000Y-70801000D01*
G37*
G36*
X112001000Y-70801000D02*
G01*
X111399000Y-70801000D01*
X111399000Y-69799000D01*
X112001000Y-69799000D01*
X112001000Y-70801000D01*
X112001000Y-70801000D01*
G37*
G36*
X169351000Y-70751000D02*
G01*
X165049000Y-70751000D01*
X165049000Y-69299000D01*
X169351000Y-69299000D01*
X169351000Y-70751000D01*
X169351000Y-70751000D01*
G37*
G36*
X108901000Y-70651000D02*
G01*
X104899000Y-70651000D01*
X104899000Y-68349000D01*
X108901000Y-68349000D01*
X108901000Y-70651000D01*
X108901000Y-70651000D01*
G37*
G36*
X149301000Y-70601000D02*
G01*
X148699000Y-70601000D01*
X148699000Y-69599000D01*
X149301000Y-69599000D01*
X149301000Y-70601000D01*
X149301000Y-70601000D01*
G37*
G36*
X148001000Y-70601000D02*
G01*
X147399000Y-70601000D01*
X147399000Y-69599000D01*
X148001000Y-69599000D01*
X148001000Y-70601000D01*
X148001000Y-70601000D01*
G37*
G36*
X146501000Y-70601000D02*
G01*
X145899000Y-70601000D01*
X145899000Y-69599000D01*
X146501000Y-69599000D01*
X146501000Y-70601000D01*
X146501000Y-70601000D01*
G37*
G36*
X150801000Y-70601000D02*
G01*
X150199000Y-70601000D01*
X150199000Y-69599000D01*
X150801000Y-69599000D01*
X150801000Y-70601000D01*
X150801000Y-70601000D01*
G37*
G36*
X117201000Y-70401000D02*
G01*
X114599000Y-70401000D01*
X114599000Y-68349000D01*
X117201000Y-68349000D01*
X117201000Y-70401000D01*
X117201000Y-70401000D01*
G37*
G36*
X144726000Y-70401000D02*
G01*
X143874000Y-70401000D01*
X143874000Y-69499000D01*
X144726000Y-69499000D01*
X144726000Y-70401000D01*
X144726000Y-70401000D01*
G37*
G36*
X143401000Y-70001000D02*
G01*
X142399000Y-70001000D01*
X142399000Y-69399000D01*
X143401000Y-69399000D01*
X143401000Y-70001000D01*
X143401000Y-70001000D01*
G37*
G36*
X141851000Y-70001000D02*
G01*
X140849000Y-70001000D01*
X140849000Y-69399000D01*
X141851000Y-69399000D01*
X141851000Y-70001000D01*
X141851000Y-70001000D01*
G37*
G36*
X155101000Y-69801000D02*
G01*
X154099000Y-69801000D01*
X154099000Y-69199000D01*
X155101000Y-69199000D01*
X155101000Y-69801000D01*
X155101000Y-69801000D01*
G37*
G36*
X162726000Y-69756000D02*
G01*
X161074000Y-69756000D01*
X161074000Y-69054000D01*
X162726000Y-69054000D01*
X162726000Y-69756000D01*
X162726000Y-69756000D01*
G37*
G36*
X157326000Y-69756000D02*
G01*
X155674000Y-69756000D01*
X155674000Y-69054000D01*
X157326000Y-69054000D01*
X157326000Y-69756000D01*
X157326000Y-69756000D01*
G37*
G36*
X96151000Y-69651000D02*
G01*
X95549000Y-69651000D01*
X95549000Y-68649000D01*
X96151000Y-68649000D01*
X96151000Y-69651000D01*
X96151000Y-69651000D01*
G37*
G36*
X97651000Y-69651000D02*
G01*
X97049000Y-69651000D01*
X97049000Y-68649000D01*
X97651000Y-68649000D01*
X97651000Y-69651000D01*
X97651000Y-69651000D01*
G37*
G36*
X90609672Y-68798449D02*
G01*
X90609674Y-68798450D01*
X90609675Y-68798450D01*
X90678103Y-68826793D01*
X90739686Y-68867942D01*
X90792058Y-68920314D01*
X90833207Y-68981897D01*
X90861550Y-69050325D01*
X90876000Y-69122967D01*
X90876000Y-69197033D01*
X90861550Y-69269675D01*
X90833207Y-69338103D01*
X90792058Y-69399686D01*
X90739686Y-69452058D01*
X90678103Y-69493207D01*
X90609675Y-69521550D01*
X90609674Y-69521550D01*
X90609672Y-69521551D01*
X90537034Y-69536000D01*
X90462966Y-69536000D01*
X90390328Y-69521551D01*
X90390326Y-69521550D01*
X90390325Y-69521550D01*
X90321897Y-69493207D01*
X90260314Y-69452058D01*
X90207942Y-69399686D01*
X90166793Y-69338103D01*
X90138450Y-69269675D01*
X90124000Y-69197033D01*
X90124000Y-69122967D01*
X90138450Y-69050325D01*
X90166793Y-68981897D01*
X90207942Y-68920314D01*
X90260314Y-68867942D01*
X90321897Y-68826793D01*
X90390325Y-68798450D01*
X90390326Y-68798450D01*
X90390328Y-68798449D01*
X90462966Y-68784000D01*
X90537034Y-68784000D01*
X90609672Y-68798449D01*
X90609672Y-68798449D01*
G37*
G36*
X130726000Y-69426000D02*
G01*
X128424000Y-69426000D01*
X128424000Y-65424000D01*
X130726000Y-65424000D01*
X130726000Y-69426000D01*
X130726000Y-69426000D01*
G37*
G36*
X126926000Y-69426000D02*
G01*
X124624000Y-69426000D01*
X124624000Y-65424000D01*
X126926000Y-65424000D01*
X126926000Y-69426000D01*
X126926000Y-69426000D01*
G37*
G36*
X112051000Y-69126000D02*
G01*
X111149000Y-69126000D01*
X111149000Y-68274000D01*
X112051000Y-68274000D01*
X112051000Y-69126000D01*
X112051000Y-69126000D01*
G37*
G36*
X110551000Y-69126000D02*
G01*
X109649000Y-69126000D01*
X109649000Y-68274000D01*
X110551000Y-68274000D01*
X110551000Y-69126000D01*
X110551000Y-69126000D01*
G37*
G36*
X149951000Y-68601000D02*
G01*
X148449000Y-68601000D01*
X148449000Y-66199000D01*
X149951000Y-66199000D01*
X149951000Y-68601000D01*
X149951000Y-68601000D01*
G37*
G36*
X145551000Y-68601000D02*
G01*
X144049000Y-68601000D01*
X144049000Y-66199000D01*
X145551000Y-66199000D01*
X145551000Y-68601000D01*
X145551000Y-68601000D01*
G37*
G36*
X143401000Y-68501000D02*
G01*
X142399000Y-68501000D01*
X142399000Y-67899000D01*
X143401000Y-67899000D01*
X143401000Y-68501000D01*
X143401000Y-68501000D01*
G37*
G36*
X141851000Y-68501000D02*
G01*
X140849000Y-68501000D01*
X140849000Y-67899000D01*
X141851000Y-67899000D01*
X141851000Y-68501000D01*
X141851000Y-68501000D01*
G37*
G36*
X157326000Y-68486000D02*
G01*
X155674000Y-68486000D01*
X155674000Y-67784000D01*
X157326000Y-67784000D01*
X157326000Y-68486000D01*
X157326000Y-68486000D01*
G37*
G36*
X162726000Y-68486000D02*
G01*
X161074000Y-68486000D01*
X161074000Y-67784000D01*
X162726000Y-67784000D01*
X162726000Y-68486000D01*
X162726000Y-68486000D01*
G37*
G36*
X155101000Y-68301000D02*
G01*
X154099000Y-68301000D01*
X154099000Y-67699000D01*
X155101000Y-67699000D01*
X155101000Y-68301000D01*
X155101000Y-68301000D01*
G37*
G36*
X87258015Y-67186973D02*
G01*
X87361879Y-67218479D01*
X87389055Y-67233005D01*
X87457600Y-67269643D01*
X87541501Y-67338499D01*
X87610357Y-67422400D01*
X87646995Y-67490945D01*
X87661521Y-67518121D01*
X87693027Y-67621985D01*
X87703666Y-67730000D01*
X87693027Y-67838015D01*
X87661521Y-67941879D01*
X87661519Y-67941882D01*
X87610357Y-68037600D01*
X87541501Y-68121501D01*
X87457600Y-68190357D01*
X87389055Y-68226995D01*
X87361879Y-68241521D01*
X87258015Y-68273027D01*
X87177067Y-68281000D01*
X86522933Y-68281000D01*
X86441985Y-68273027D01*
X86338121Y-68241521D01*
X86310945Y-68226995D01*
X86242400Y-68190357D01*
X86158499Y-68121501D01*
X86089643Y-68037600D01*
X86038481Y-67941882D01*
X86038479Y-67941879D01*
X86006973Y-67838015D01*
X85996334Y-67730000D01*
X86006973Y-67621985D01*
X86038479Y-67518121D01*
X86053005Y-67490945D01*
X86089643Y-67422400D01*
X86158499Y-67338499D01*
X86242400Y-67269643D01*
X86310945Y-67233005D01*
X86338121Y-67218479D01*
X86441985Y-67186973D01*
X86522933Y-67179000D01*
X87177067Y-67179000D01*
X87258015Y-67186973D01*
X87258015Y-67186973D01*
G37*
G36*
X169251000Y-67886000D02*
G01*
X165549000Y-67886000D01*
X165549000Y-66514000D01*
X169251000Y-66514000D01*
X169251000Y-67886000D01*
X169251000Y-67886000D01*
G37*
G36*
X120551000Y-67876000D02*
G01*
X119549000Y-67876000D01*
X119549000Y-67274000D01*
X120551000Y-67274000D01*
X120551000Y-67876000D01*
X120551000Y-67876000D01*
G37*
G36*
X119151000Y-67876000D02*
G01*
X118149000Y-67876000D01*
X118149000Y-67274000D01*
X119151000Y-67274000D01*
X119151000Y-67876000D01*
X119151000Y-67876000D01*
G37*
G36*
X121951000Y-67876000D02*
G01*
X120949000Y-67876000D01*
X120949000Y-67274000D01*
X121951000Y-67274000D01*
X121951000Y-67876000D01*
X121951000Y-67876000D01*
G37*
G36*
X123351000Y-67876000D02*
G01*
X122349000Y-67876000D01*
X122349000Y-67274000D01*
X123351000Y-67274000D01*
X123351000Y-67876000D01*
X123351000Y-67876000D01*
G37*
G36*
X102626000Y-67751000D02*
G01*
X101774000Y-67751000D01*
X101774000Y-66849000D01*
X102626000Y-66849000D01*
X102626000Y-67751000D01*
X102626000Y-67751000D01*
G37*
G36*
X100976000Y-67701000D02*
G01*
X100124000Y-67701000D01*
X100124000Y-66799000D01*
X100976000Y-66799000D01*
X100976000Y-67701000D01*
X100976000Y-67701000D01*
G37*
G36*
X99126000Y-67651000D02*
G01*
X98274000Y-67651000D01*
X98274000Y-66749000D01*
X99126000Y-66749000D01*
X99126000Y-67651000D01*
X99126000Y-67651000D01*
G37*
G36*
X152101000Y-67401000D02*
G01*
X151499000Y-67401000D01*
X151499000Y-66399000D01*
X152101000Y-66399000D01*
X152101000Y-67401000D01*
X152101000Y-67401000D01*
G37*
G36*
X153601000Y-67401000D02*
G01*
X152999000Y-67401000D01*
X152999000Y-66399000D01*
X153601000Y-66399000D01*
X153601000Y-67401000D01*
X153601000Y-67401000D01*
G37*
G36*
X117201000Y-67351000D02*
G01*
X114599000Y-67351000D01*
X114599000Y-65299000D01*
X117201000Y-65299000D01*
X117201000Y-67351000D01*
X117201000Y-67351000D01*
G37*
G36*
X162726000Y-67216000D02*
G01*
X161074000Y-67216000D01*
X161074000Y-66514000D01*
X162726000Y-66514000D01*
X162726000Y-67216000D01*
X162726000Y-67216000D01*
G37*
G36*
X157326000Y-67216000D02*
G01*
X155674000Y-67216000D01*
X155674000Y-66514000D01*
X157326000Y-66514000D01*
X157326000Y-67216000D01*
X157326000Y-67216000D01*
G37*
G36*
X155101000Y-67201000D02*
G01*
X154099000Y-67201000D01*
X154099000Y-66599000D01*
X155101000Y-66599000D01*
X155101000Y-67201000D01*
X155101000Y-67201000D01*
G37*
G36*
X108901000Y-66851000D02*
G01*
X104899000Y-66851000D01*
X104899000Y-64549000D01*
X108901000Y-64549000D01*
X108901000Y-66851000D01*
X108901000Y-66851000D01*
G37*
G36*
X119151000Y-66376000D02*
G01*
X118149000Y-66376000D01*
X118149000Y-65774000D01*
X119151000Y-65774000D01*
X119151000Y-66376000D01*
X119151000Y-66376000D01*
G37*
G36*
X120551000Y-66376000D02*
G01*
X119549000Y-66376000D01*
X119549000Y-65774000D01*
X120551000Y-65774000D01*
X120551000Y-66376000D01*
X120551000Y-66376000D01*
G37*
G36*
X123351000Y-66376000D02*
G01*
X122349000Y-66376000D01*
X122349000Y-65774000D01*
X123351000Y-65774000D01*
X123351000Y-66376000D01*
X123351000Y-66376000D01*
G37*
G36*
X121951000Y-66376000D02*
G01*
X120949000Y-66376000D01*
X120949000Y-65774000D01*
X121951000Y-65774000D01*
X121951000Y-66376000D01*
X121951000Y-66376000D01*
G37*
G36*
X102626000Y-66251000D02*
G01*
X101774000Y-66251000D01*
X101774000Y-65349000D01*
X102626000Y-65349000D01*
X102626000Y-66251000D01*
X102626000Y-66251000D01*
G37*
G36*
X100976000Y-66201000D02*
G01*
X100124000Y-66201000D01*
X100124000Y-65299000D01*
X100976000Y-65299000D01*
X100976000Y-66201000D01*
X100976000Y-66201000D01*
G37*
G36*
X141826000Y-66151000D02*
G01*
X140974000Y-66151000D01*
X140974000Y-65249000D01*
X141826000Y-65249000D01*
X141826000Y-66151000D01*
X141826000Y-66151000D01*
G37*
G36*
X143126000Y-66151000D02*
G01*
X142274000Y-66151000D01*
X142274000Y-65249000D01*
X143126000Y-65249000D01*
X143126000Y-66151000D01*
X143126000Y-66151000D01*
G37*
G36*
X99126000Y-66151000D02*
G01*
X98274000Y-66151000D01*
X98274000Y-65249000D01*
X99126000Y-65249000D01*
X99126000Y-66151000D01*
X99126000Y-66151000D01*
G37*
G36*
X113751000Y-66001000D02*
G01*
X112899000Y-66001000D01*
X112899000Y-65099000D01*
X113751000Y-65099000D01*
X113751000Y-66001000D01*
X113751000Y-66001000D01*
G37*
G36*
X157326000Y-65946000D02*
G01*
X155674000Y-65946000D01*
X155674000Y-65244000D01*
X157326000Y-65244000D01*
X157326000Y-65946000D01*
X157326000Y-65946000D01*
G37*
G36*
X162726000Y-65946000D02*
G01*
X161074000Y-65946000D01*
X161074000Y-65244000D01*
X162726000Y-65244000D01*
X162726000Y-65946000D01*
X162726000Y-65946000D01*
G37*
G36*
X155101000Y-65701000D02*
G01*
X154099000Y-65701000D01*
X154099000Y-65099000D01*
X155101000Y-65099000D01*
X155101000Y-65701000D01*
X155101000Y-65701000D01*
G37*
G36*
X148001000Y-65301000D02*
G01*
X147399000Y-65301000D01*
X147399000Y-64299000D01*
X148001000Y-64299000D01*
X148001000Y-65301000D01*
X148001000Y-65301000D01*
G37*
G36*
X146501000Y-65301000D02*
G01*
X145899000Y-65301000D01*
X145899000Y-64299000D01*
X146501000Y-64299000D01*
X146501000Y-65301000D01*
X146501000Y-65301000D01*
G37*
G36*
X169351000Y-65101000D02*
G01*
X165049000Y-65101000D01*
X165049000Y-63649000D01*
X169351000Y-63649000D01*
X169351000Y-65101000D01*
X169351000Y-65101000D01*
G37*
G36*
X141826000Y-64651000D02*
G01*
X140974000Y-64651000D01*
X140974000Y-63749000D01*
X141826000Y-63749000D01*
X141826000Y-64651000D01*
X141826000Y-64651000D01*
G37*
G36*
X143126000Y-64651000D02*
G01*
X142274000Y-64651000D01*
X142274000Y-63749000D01*
X143126000Y-63749000D01*
X143126000Y-64651000D01*
X143126000Y-64651000D01*
G37*
G36*
X122351000Y-60649001D02*
G01*
X122353402Y-60673387D01*
X122360515Y-60696836D01*
X122372066Y-60718447D01*
X122387611Y-60737389D01*
X122406553Y-60752934D01*
X122428164Y-60764485D01*
X122451613Y-60771598D01*
X122475999Y-60774000D01*
X123326000Y-60774000D01*
X123326000Y-63676000D01*
X122475999Y-63676000D01*
X122451613Y-63678402D01*
X122428164Y-63685515D01*
X122406553Y-63697066D01*
X122387611Y-63712611D01*
X122372066Y-63731553D01*
X122360515Y-63753164D01*
X122353402Y-63776613D01*
X122351000Y-63800999D01*
X122351000Y-64651000D01*
X119449000Y-64651000D01*
X119449000Y-63800999D01*
X119446598Y-63776613D01*
X119439485Y-63753164D01*
X119427934Y-63731553D01*
X119412389Y-63712611D01*
X119393447Y-63697066D01*
X119371836Y-63685515D01*
X119348387Y-63678402D01*
X119324001Y-63676000D01*
X118474000Y-63676000D01*
X118474000Y-60774000D01*
X119324001Y-60774000D01*
X119348387Y-60771598D01*
X119371836Y-60764485D01*
X119393447Y-60752934D01*
X119412389Y-60737389D01*
X119427934Y-60718447D01*
X119439485Y-60696836D01*
X119446598Y-60673387D01*
X119449000Y-60649001D01*
X119449000Y-59799000D01*
X122351000Y-59799000D01*
X122351000Y-60649001D01*
X122351000Y-60649001D01*
G37*
G36*
X162451000Y-64626000D02*
G01*
X161549000Y-64626000D01*
X161549000Y-63774000D01*
X162451000Y-63774000D01*
X162451000Y-64626000D01*
X162451000Y-64626000D01*
G37*
G36*
X163951000Y-64626000D02*
G01*
X163049000Y-64626000D01*
X163049000Y-63774000D01*
X163951000Y-63774000D01*
X163951000Y-64626000D01*
X163951000Y-64626000D01*
G37*
G36*
X101051000Y-64551000D02*
G01*
X96949000Y-64551000D01*
X96949000Y-61449000D01*
X101051000Y-61449000D01*
X101051000Y-64551000D01*
X101051000Y-64551000D01*
G37*
G36*
X113751000Y-64501000D02*
G01*
X112899000Y-64501000D01*
X112899000Y-63599000D01*
X113751000Y-63599000D01*
X113751000Y-64501000D01*
X113751000Y-64501000D01*
G37*
G36*
X127576000Y-64476000D02*
G01*
X126574000Y-64476000D01*
X126574000Y-63174000D01*
X127576000Y-63174000D01*
X127576000Y-64476000D01*
X127576000Y-64476000D01*
G37*
G36*
X130876000Y-64476000D02*
G01*
X129874000Y-64476000D01*
X129874000Y-63174000D01*
X130876000Y-63174000D01*
X130876000Y-64476000D01*
X130876000Y-64476000D01*
G37*
G36*
X117651000Y-64326000D02*
G01*
X116649000Y-64326000D01*
X116649000Y-63724000D01*
X117651000Y-63724000D01*
X117651000Y-64326000D01*
X117651000Y-64326000D01*
G37*
G36*
X125751000Y-63401000D02*
G01*
X124749000Y-63401000D01*
X124749000Y-62799000D01*
X125751000Y-62799000D01*
X125751000Y-63401000D01*
X125751000Y-63401000D01*
G37*
G36*
X162451000Y-63126000D02*
G01*
X161549000Y-63126000D01*
X161549000Y-62274000D01*
X162451000Y-62274000D01*
X162451000Y-63126000D01*
X162451000Y-63126000D01*
G37*
G36*
X163951000Y-63126000D02*
G01*
X163049000Y-63126000D01*
X163049000Y-62274000D01*
X163951000Y-62274000D01*
X163951000Y-63126000D01*
X163951000Y-63126000D01*
G37*
G36*
X114526000Y-63076000D02*
G01*
X113624000Y-63076000D01*
X113624000Y-62224000D01*
X114526000Y-62224000D01*
X114526000Y-63076000D01*
X114526000Y-63076000D01*
G37*
G36*
X116026000Y-63076000D02*
G01*
X115124000Y-63076000D01*
X115124000Y-62224000D01*
X116026000Y-62224000D01*
X116026000Y-63076000D01*
X116026000Y-63076000D01*
G37*
G36*
X117651000Y-62826000D02*
G01*
X116649000Y-62826000D01*
X116649000Y-62224000D01*
X117651000Y-62224000D01*
X117651000Y-62826000D01*
X117651000Y-62826000D01*
G37*
G36*
X154601000Y-62201000D02*
G01*
X153999000Y-62201000D01*
X153999000Y-61199000D01*
X154601000Y-61199000D01*
X154601000Y-62201000D01*
X154601000Y-62201000D01*
G37*
G36*
X153101000Y-62201000D02*
G01*
X152499000Y-62201000D01*
X152499000Y-61199000D01*
X153101000Y-61199000D01*
X153101000Y-62201000D01*
X153101000Y-62201000D01*
G37*
G36*
X149851000Y-62026000D02*
G01*
X148949000Y-62026000D01*
X148949000Y-61174000D01*
X149851000Y-61174000D01*
X149851000Y-62026000D01*
X149851000Y-62026000D01*
G37*
G36*
X148351000Y-62026000D02*
G01*
X147449000Y-62026000D01*
X147449000Y-61174000D01*
X148351000Y-61174000D01*
X148351000Y-62026000D01*
X148351000Y-62026000D01*
G37*
G36*
X133101000Y-62001000D02*
G01*
X131999000Y-62001000D01*
X131999000Y-60649000D01*
X133101000Y-60649000D01*
X133101000Y-62001000D01*
X133101000Y-62001000D01*
G37*
G36*
X131101000Y-62001000D02*
G01*
X129999000Y-62001000D01*
X129999000Y-60649000D01*
X131101000Y-60649000D01*
X131101000Y-62001000D01*
X131101000Y-62001000D01*
G37*
G36*
X125751000Y-61901000D02*
G01*
X124749000Y-61901000D01*
X124749000Y-61299000D01*
X125751000Y-61299000D01*
X125751000Y-61901000D01*
X125751000Y-61901000D01*
G37*
G36*
X127451000Y-61801000D02*
G01*
X126849000Y-61801000D01*
X126849000Y-60799000D01*
X127451000Y-60799000D01*
X127451000Y-61801000D01*
X127451000Y-61801000D01*
G37*
G36*
X128951000Y-61801000D02*
G01*
X128349000Y-61801000D01*
X128349000Y-60799000D01*
X128951000Y-60799000D01*
X128951000Y-61801000D01*
X128951000Y-61801000D01*
G37*
G36*
X117401000Y-61576000D02*
G01*
X115099000Y-61576000D01*
X115099000Y-57574000D01*
X117401000Y-57574000D01*
X117401000Y-61576000D01*
X117401000Y-61576000D01*
G37*
G36*
X113601000Y-61576000D02*
G01*
X111299000Y-61576000D01*
X111299000Y-57574000D01*
X113601000Y-57574000D01*
X113601000Y-61576000D01*
X113601000Y-61576000D01*
G37*
G36*
X142351000Y-61301000D02*
G01*
X141349000Y-61301000D01*
X141349000Y-60699000D01*
X142351000Y-60699000D01*
X142351000Y-61301000D01*
X142351000Y-61301000D01*
G37*
G36*
X106601000Y-61276000D02*
G01*
X103999000Y-61276000D01*
X103999000Y-58624000D01*
X106601000Y-58624000D01*
X106601000Y-61276000D01*
X106601000Y-61276000D01*
G37*
G36*
X140726000Y-61151000D02*
G01*
X139874000Y-61151000D01*
X139874000Y-60249000D01*
X140726000Y-60249000D01*
X140726000Y-61151000D01*
X140726000Y-61151000D01*
G37*
G36*
X159226000Y-60751000D02*
G01*
X158374000Y-60751000D01*
X158374000Y-59849000D01*
X159226000Y-59849000D01*
X159226000Y-60751000D01*
X159226000Y-60751000D01*
G37*
G36*
X101051000Y-60751000D02*
G01*
X96949000Y-60751000D01*
X96949000Y-57649000D01*
X101051000Y-57649000D01*
X101051000Y-60751000D01*
X101051000Y-60751000D01*
G37*
G36*
X157501000Y-60601000D02*
G01*
X156499000Y-60601000D01*
X156499000Y-59999000D01*
X157501000Y-59999000D01*
X157501000Y-60601000D01*
X157501000Y-60601000D01*
G37*
G36*
X150326000Y-60456000D02*
G01*
X148674000Y-60456000D01*
X148674000Y-59754000D01*
X150326000Y-59754000D01*
X150326000Y-60456000D01*
X150326000Y-60456000D01*
G37*
G36*
X155726000Y-60456000D02*
G01*
X154074000Y-60456000D01*
X154074000Y-59754000D01*
X155726000Y-59754000D01*
X155726000Y-60456000D01*
X155726000Y-60456000D01*
G37*
G36*
X126551000Y-60201000D02*
G01*
X125649000Y-60201000D01*
X125649000Y-59349000D01*
X126551000Y-59349000D01*
X126551000Y-60201000D01*
X126551000Y-60201000D01*
G37*
G36*
X125051000Y-60201000D02*
G01*
X124149000Y-60201000D01*
X124149000Y-59349000D01*
X125051000Y-59349000D01*
X125051000Y-60201000D01*
X125051000Y-60201000D01*
G37*
G36*
X128951000Y-59801000D02*
G01*
X128099000Y-59801000D01*
X128099000Y-58899000D01*
X128951000Y-58899000D01*
X128951000Y-59801000D01*
X128951000Y-59801000D01*
G37*
G36*
X142351000Y-59801000D02*
G01*
X141349000Y-59801000D01*
X141349000Y-59199000D01*
X142351000Y-59199000D01*
X142351000Y-59801000D01*
X142351000Y-59801000D01*
G37*
G36*
X144226000Y-59751000D02*
G01*
X143374000Y-59751000D01*
X143374000Y-58849000D01*
X144226000Y-58849000D01*
X144226000Y-59751000D01*
X144226000Y-59751000D01*
G37*
G36*
X140601000Y-58624001D02*
G01*
X140603402Y-58648387D01*
X140610515Y-58671836D01*
X140622066Y-58693447D01*
X140637611Y-58712389D01*
X140656553Y-58727934D01*
X140678164Y-58739485D01*
X140701613Y-58746598D01*
X140725999Y-58749000D01*
X140726000Y-58749000D01*
X140726000Y-59651000D01*
X139874000Y-59651000D01*
X139874000Y-58725999D01*
X139871598Y-58701613D01*
X139864485Y-58678164D01*
X139852934Y-58656553D01*
X139837389Y-58637611D01*
X139818447Y-58622066D01*
X139796836Y-58610515D01*
X139773387Y-58603402D01*
X139749001Y-58601000D01*
X139599000Y-58601000D01*
X139599000Y-57999000D01*
X140601000Y-57999000D01*
X140601000Y-58624001D01*
X140601000Y-58624001D01*
G37*
G36*
X131976000Y-59626000D02*
G01*
X129924000Y-59626000D01*
X129924000Y-57024000D01*
X131976000Y-57024000D01*
X131976000Y-59626000D01*
X131976000Y-59626000D01*
G37*
G36*
X135026000Y-59626000D02*
G01*
X132974000Y-59626000D01*
X132974000Y-57024000D01*
X135026000Y-57024000D01*
X135026000Y-59626000D01*
X135026000Y-59626000D01*
G37*
G36*
X162001000Y-59301000D02*
G01*
X161399000Y-59301000D01*
X161399000Y-58299000D01*
X162001000Y-58299000D01*
X162001000Y-59301000D01*
X162001000Y-59301000D01*
G37*
G36*
X160501000Y-59301000D02*
G01*
X159899000Y-59301000D01*
X159899000Y-58299000D01*
X160501000Y-58299000D01*
X160501000Y-59301000D01*
X160501000Y-59301000D01*
G37*
G36*
X147901000Y-59301000D02*
G01*
X146899000Y-59301000D01*
X146899000Y-58699000D01*
X147901000Y-58699000D01*
X147901000Y-59301000D01*
X147901000Y-59301000D01*
G37*
G36*
X159226000Y-59251000D02*
G01*
X158374000Y-59251000D01*
X158374000Y-58349000D01*
X159226000Y-58349000D01*
X159226000Y-59251000D01*
X159226000Y-59251000D01*
G37*
G36*
X150326000Y-59186000D02*
G01*
X148674000Y-59186000D01*
X148674000Y-58484000D01*
X150326000Y-58484000D01*
X150326000Y-59186000D01*
X150326000Y-59186000D01*
G37*
G36*
X155726000Y-59186000D02*
G01*
X154074000Y-59186000D01*
X154074000Y-58484000D01*
X155726000Y-58484000D01*
X155726000Y-59186000D01*
X155726000Y-59186000D01*
G37*
G36*
X157501000Y-59101000D02*
G01*
X156499000Y-59101000D01*
X156499000Y-58499000D01*
X157501000Y-58499000D01*
X157501000Y-59101000D01*
X157501000Y-59101000D01*
G37*
G36*
X164701000Y-59026000D02*
G01*
X163799000Y-59026000D01*
X163799000Y-58174000D01*
X164701000Y-58174000D01*
X164701000Y-59026000D01*
X164701000Y-59026000D01*
G37*
G36*
X163201000Y-59026000D02*
G01*
X162299000Y-59026000D01*
X162299000Y-58174000D01*
X163201000Y-58174000D01*
X163201000Y-59026000D01*
X163201000Y-59026000D01*
G37*
G36*
X119101000Y-58926000D02*
G01*
X118499000Y-58926000D01*
X118499000Y-57924000D01*
X119101000Y-57924000D01*
X119101000Y-58926000D01*
X119101000Y-58926000D01*
G37*
G36*
X120601000Y-58926000D02*
G01*
X119999000Y-58926000D01*
X119999000Y-57924000D01*
X120601000Y-57924000D01*
X120601000Y-58926000D01*
X120601000Y-58926000D01*
G37*
G36*
X122101000Y-58851000D02*
G01*
X121199000Y-58851000D01*
X121199000Y-57999000D01*
X122101000Y-57999000D01*
X122101000Y-58851000D01*
X122101000Y-58851000D01*
G37*
G36*
X123601000Y-58851000D02*
G01*
X122699000Y-58851000D01*
X122699000Y-57999000D01*
X123601000Y-57999000D01*
X123601000Y-58851000D01*
X123601000Y-58851000D01*
G37*
G36*
X126951000Y-58701000D02*
G01*
X124349000Y-58701000D01*
X124349000Y-56649000D01*
X126951000Y-56649000D01*
X126951000Y-58701000D01*
X126951000Y-58701000D01*
G37*
G36*
X142301000Y-58601000D02*
G01*
X141299000Y-58601000D01*
X141299000Y-57999000D01*
X142301000Y-57999000D01*
X142301000Y-58601000D01*
X142301000Y-58601000D01*
G37*
G36*
X128951000Y-58301000D02*
G01*
X128099000Y-58301000D01*
X128099000Y-57399000D01*
X128951000Y-57399000D01*
X128951000Y-58301000D01*
X128951000Y-58301000D01*
G37*
G36*
X144226000Y-58251000D02*
G01*
X143374000Y-58251000D01*
X143374000Y-57349000D01*
X144226000Y-57349000D01*
X144226000Y-58251000D01*
X144226000Y-58251000D01*
G37*
G36*
X146001000Y-58101000D02*
G01*
X144999000Y-58101000D01*
X144999000Y-57499000D01*
X146001000Y-57499000D01*
X146001000Y-58101000D01*
X146001000Y-58101000D01*
G37*
G36*
X150326000Y-57916000D02*
G01*
X148674000Y-57916000D01*
X148674000Y-57214000D01*
X150326000Y-57214000D01*
X150326000Y-57916000D01*
X150326000Y-57916000D01*
G37*
G36*
X155726000Y-57916000D02*
G01*
X154074000Y-57916000D01*
X154074000Y-57214000D01*
X155726000Y-57214000D01*
X155726000Y-57916000D01*
X155726000Y-57916000D01*
G37*
G36*
X157426000Y-57851000D02*
G01*
X156574000Y-57851000D01*
X156574000Y-56949000D01*
X157426000Y-56949000D01*
X157426000Y-57851000D01*
X157426000Y-57851000D01*
G37*
G36*
X147901000Y-57801000D02*
G01*
X146899000Y-57801000D01*
X146899000Y-57199000D01*
X147901000Y-57199000D01*
X147901000Y-57801000D01*
X147901000Y-57801000D01*
G37*
G36*
X123401000Y-57526000D02*
G01*
X122799000Y-57526000D01*
X122799000Y-56524000D01*
X123401000Y-56524000D01*
X123401000Y-57526000D01*
X123401000Y-57526000D01*
G37*
G36*
X121901000Y-57526000D02*
G01*
X121299000Y-57526000D01*
X121299000Y-56524000D01*
X121901000Y-56524000D01*
X121901000Y-57526000D01*
X121901000Y-57526000D01*
G37*
G36*
X163301000Y-57501000D02*
G01*
X162699000Y-57501000D01*
X162699000Y-56499000D01*
X163301000Y-56499000D01*
X163301000Y-57501000D01*
X163301000Y-57501000D01*
G37*
G36*
X161801000Y-57501000D02*
G01*
X161199000Y-57501000D01*
X161199000Y-56499000D01*
X161801000Y-56499000D01*
X161801000Y-57501000D01*
X161801000Y-57501000D01*
G37*
G36*
X160301000Y-57501000D02*
G01*
X159699000Y-57501000D01*
X159699000Y-56499000D01*
X160301000Y-56499000D01*
X160301000Y-57501000D01*
X160301000Y-57501000D01*
G37*
G36*
X158801000Y-57501000D02*
G01*
X158199000Y-57501000D01*
X158199000Y-56499000D01*
X158801000Y-56499000D01*
X158801000Y-57501000D01*
X158801000Y-57501000D01*
G37*
G36*
X119626000Y-57276000D02*
G01*
X118274000Y-57276000D01*
X118274000Y-56174000D01*
X119626000Y-56174000D01*
X119626000Y-57276000D01*
X119626000Y-57276000D01*
G37*
G36*
X140601000Y-57101000D02*
G01*
X139599000Y-57101000D01*
X139599000Y-56499000D01*
X140601000Y-56499000D01*
X140601000Y-57101000D01*
X140601000Y-57101000D01*
G37*
G36*
X142301000Y-57101000D02*
G01*
X141299000Y-57101000D01*
X141299000Y-56499000D01*
X142301000Y-56499000D01*
X142301000Y-57101000D01*
X142301000Y-57101000D01*
G37*
G36*
X101051000Y-56951000D02*
G01*
X96949000Y-56951000D01*
X96949000Y-53849000D01*
X101051000Y-53849000D01*
X101051000Y-56951000D01*
X101051000Y-56951000D01*
G37*
G36*
X144201000Y-56951000D02*
G01*
X143199000Y-56951000D01*
X143199000Y-56349000D01*
X144201000Y-56349000D01*
X144201000Y-56951000D01*
X144201000Y-56951000D01*
G37*
G36*
X155726000Y-56646000D02*
G01*
X154074000Y-56646000D01*
X154074000Y-55944000D01*
X155726000Y-55944000D01*
X155726000Y-56646000D01*
X155726000Y-56646000D01*
G37*
G36*
X150326000Y-56646000D02*
G01*
X148674000Y-56646000D01*
X148674000Y-55944000D01*
X150326000Y-55944000D01*
X150326000Y-56646000D01*
X150326000Y-56646000D01*
G37*
G36*
X146001000Y-56601000D02*
G01*
X144999000Y-56601000D01*
X144999000Y-55999000D01*
X146001000Y-55999000D01*
X146001000Y-56601000D01*
X146001000Y-56601000D01*
G37*
G36*
X147826000Y-56551000D02*
G01*
X146974000Y-56551000D01*
X146974000Y-55649000D01*
X147826000Y-55649000D01*
X147826000Y-56551000D01*
X147826000Y-56551000D01*
G37*
G36*
X102726000Y-56551000D02*
G01*
X101874000Y-56551000D01*
X101874000Y-55649000D01*
X102726000Y-55649000D01*
X102726000Y-56551000D01*
X102726000Y-56551000D01*
G37*
G36*
X157426000Y-56351000D02*
G01*
X156574000Y-56351000D01*
X156574000Y-55449000D01*
X157426000Y-55449000D01*
X157426000Y-56351000D01*
X157426000Y-56351000D01*
G37*
G36*
X113501000Y-56276000D02*
G01*
X112499000Y-56276000D01*
X112499000Y-54974000D01*
X113501000Y-54974000D01*
X113501000Y-56276000D01*
X113501000Y-56276000D01*
G37*
G36*
X116801000Y-56276000D02*
G01*
X115799000Y-56276000D01*
X115799000Y-54974000D01*
X116801000Y-54974000D01*
X116801000Y-56276000D01*
X116801000Y-56276000D01*
G37*
G36*
X106601000Y-56226000D02*
G01*
X103999000Y-56226000D01*
X103999000Y-53574000D01*
X106601000Y-53574000D01*
X106601000Y-56226000D01*
X106601000Y-56226000D01*
G37*
G36*
X126951000Y-55651000D02*
G01*
X124349000Y-55651000D01*
X124349000Y-53599000D01*
X126951000Y-53599000D01*
X126951000Y-55651000D01*
X126951000Y-55651000D01*
G37*
G36*
X144201000Y-55451000D02*
G01*
X143199000Y-55451000D01*
X143199000Y-54849000D01*
X144201000Y-54849000D01*
X144201000Y-55451000D01*
X144201000Y-55451000D01*
G37*
G36*
X119626000Y-55276000D02*
G01*
X118274000Y-55276000D01*
X118274000Y-54174000D01*
X119626000Y-54174000D01*
X119626000Y-55276000D01*
X119626000Y-55276000D01*
G37*
G36*
X102726000Y-55051000D02*
G01*
X101874000Y-55051000D01*
X101874000Y-54149000D01*
X102726000Y-54149000D01*
X102726000Y-55051000D01*
X102726000Y-55051000D01*
G37*
G36*
X147826000Y-55051000D02*
G01*
X146974000Y-55051000D01*
X146974000Y-54149000D01*
X147826000Y-54149000D01*
X147826000Y-55051000D01*
X147826000Y-55051000D01*
G37*
G36*
X154701000Y-55026000D02*
G01*
X153799000Y-55026000D01*
X153799000Y-54174000D01*
X154701000Y-54174000D01*
X154701000Y-55026000D01*
X154701000Y-55026000D01*
G37*
G36*
X153201000Y-55026000D02*
G01*
X152299000Y-55026000D01*
X152299000Y-54174000D01*
X153201000Y-54174000D01*
X153201000Y-55026000D01*
X153201000Y-55026000D01*
G37*
G36*
X157701000Y-54801000D02*
G01*
X157099000Y-54801000D01*
X157099000Y-53799000D01*
X157701000Y-53799000D01*
X157701000Y-54801000D01*
X157701000Y-54801000D01*
G37*
G36*
X159201000Y-54801000D02*
G01*
X158599000Y-54801000D01*
X158599000Y-53799000D01*
X159201000Y-53799000D01*
X159201000Y-54801000D01*
X159201000Y-54801000D01*
G37*
M02*
