G04 #@! TF.GenerationSoftware,KiCad,Pcbnew,(5.1.4)-1*
G04 #@! TF.CreationDate,2020-09-15T19:50:09+03:00*
G04 #@! TF.ProjectId,FinalPCB,46696e61-6c50-4434-922e-6b696361645f,rev?*
G04 #@! TF.SameCoordinates,Original*
G04 #@! TF.FileFunction,Soldermask,Bot*
G04 #@! TF.FilePolarity,Negative*
%FSLAX46Y46*%
G04 Gerber Fmt 4.6, Leading zero omitted, Abs format (unit mm)*
G04 Created by KiCad (PCBNEW (5.1.4)-1) date 2020-09-15 19:50:09*
%MOMM*%
%LPD*%
G04 APERTURE LIST*
%ADD10C,0.050000*%
%ADD11C,0.100000*%
G04 APERTURE END LIST*
D10*
X89700000Y-100100000D02*
X116800000Y-100100000D01*
X89700000Y-83600000D02*
X89700000Y-100100000D01*
X85200000Y-83600000D02*
X89700000Y-83600000D01*
X85200000Y-66100000D02*
X85200000Y-83600000D01*
X96800000Y-66100000D02*
X85200000Y-66100000D01*
X96800000Y-52800000D02*
X96800000Y-66100000D01*
X169300000Y-52800000D02*
X96800000Y-52800000D01*
X169300000Y-100100000D02*
X169300000Y-52800000D01*
X116800000Y-100100000D02*
X169300000Y-100100000D01*
D11*
G36*
X150301000Y-98651000D02*
G01*
X147699000Y-98651000D01*
X147699000Y-95549000D01*
X150301000Y-95549000D01*
X150301000Y-98651000D01*
X150301000Y-98651000D01*
G37*
G36*
X143301000Y-98651000D02*
G01*
X140699000Y-98651000D01*
X140699000Y-95549000D01*
X143301000Y-95549000D01*
X143301000Y-98651000D01*
X143301000Y-98651000D01*
G37*
G36*
X169351000Y-95651000D02*
G01*
X165049000Y-95651000D01*
X165049000Y-94199000D01*
X169351000Y-94199000D01*
X169351000Y-95651000D01*
X169351000Y-95651000D01*
G37*
G36*
X146451000Y-95401000D02*
G01*
X144549000Y-95401000D01*
X144549000Y-93299000D01*
X146451000Y-93299000D01*
X146451000Y-95401000D01*
X146451000Y-95401000D01*
G37*
G36*
X130801000Y-92701000D02*
G01*
X127699000Y-92701000D01*
X127699000Y-90199000D01*
X130801000Y-90199000D01*
X130801000Y-92701000D01*
X130801000Y-92701000D01*
G37*
G36*
X112051000Y-92051000D02*
G01*
X108949000Y-92051000D01*
X108949000Y-89449000D01*
X112051000Y-89449000D01*
X112051000Y-92051000D01*
X112051000Y-92051000D01*
G37*
G36*
X150270285Y-89638234D02*
G01*
X150366981Y-89657468D01*
X150549151Y-89732926D01*
X150713100Y-89842473D01*
X150852527Y-89981900D01*
X150962074Y-90145849D01*
X151037532Y-90328019D01*
X151076000Y-90521410D01*
X151076000Y-90718590D01*
X151037532Y-90911981D01*
X150962074Y-91094151D01*
X150852527Y-91258100D01*
X150713100Y-91397527D01*
X150549151Y-91507074D01*
X150366981Y-91582532D01*
X150173591Y-91621000D01*
X149976409Y-91621000D01*
X149879715Y-91601766D01*
X149783019Y-91582532D01*
X149600849Y-91507074D01*
X149436900Y-91397527D01*
X149297473Y-91258100D01*
X149187926Y-91094151D01*
X149112468Y-90911981D01*
X149074000Y-90718590D01*
X149074000Y-90521410D01*
X149112468Y-90328019D01*
X149187926Y-90145849D01*
X149297473Y-89981900D01*
X149436900Y-89842473D01*
X149600849Y-89732926D01*
X149783019Y-89657468D01*
X149879715Y-89638234D01*
X149976409Y-89619000D01*
X150173591Y-89619000D01*
X150270285Y-89638234D01*
X150270285Y-89638234D01*
G37*
G36*
X169351000Y-90001000D02*
G01*
X165049000Y-90001000D01*
X165049000Y-88549000D01*
X169351000Y-88549000D01*
X169351000Y-90001000D01*
X169351000Y-90001000D01*
G37*
G36*
X93551000Y-89551000D02*
G01*
X92949000Y-89551000D01*
X92949000Y-88549000D01*
X93551000Y-88549000D01*
X93551000Y-89551000D01*
X93551000Y-89551000D01*
G37*
G36*
X95051000Y-89551000D02*
G01*
X94449000Y-89551000D01*
X94449000Y-88549000D01*
X95051000Y-88549000D01*
X95051000Y-89551000D01*
X95051000Y-89551000D01*
G37*
G36*
X132951000Y-89401000D02*
G01*
X130849000Y-89401000D01*
X130849000Y-69499000D01*
X132951000Y-69499000D01*
X132951000Y-89401000D01*
X132951000Y-89401000D01*
G37*
G36*
X150366981Y-87117468D02*
G01*
X150549151Y-87192926D01*
X150713100Y-87302473D01*
X150852527Y-87441900D01*
X150962074Y-87605849D01*
X151037532Y-87788019D01*
X151076000Y-87981410D01*
X151076000Y-88178590D01*
X151037532Y-88371981D01*
X150962074Y-88554151D01*
X150852527Y-88718100D01*
X150713100Y-88857527D01*
X150549151Y-88967074D01*
X150366981Y-89042532D01*
X150270285Y-89061766D01*
X150173591Y-89081000D01*
X149976409Y-89081000D01*
X149879715Y-89061766D01*
X149783019Y-89042532D01*
X149600849Y-88967074D01*
X149436900Y-88857527D01*
X149297473Y-88718100D01*
X149187926Y-88554151D01*
X149112468Y-88371981D01*
X149074000Y-88178590D01*
X149074000Y-87981410D01*
X149112468Y-87788019D01*
X149187926Y-87605849D01*
X149297473Y-87441900D01*
X149436900Y-87302473D01*
X149600849Y-87192926D01*
X149783019Y-87117468D01*
X149879715Y-87098234D01*
X149976409Y-87079000D01*
X150173591Y-87079000D01*
X150366981Y-87117468D01*
X150366981Y-87117468D01*
G37*
G36*
X114301000Y-88451000D02*
G01*
X112199000Y-88451000D01*
X112199000Y-85549000D01*
X114301000Y-85549000D01*
X114301000Y-88451000D01*
X114301000Y-88451000D01*
G37*
G36*
X134326000Y-88401000D02*
G01*
X133474000Y-88401000D01*
X133474000Y-87499000D01*
X134326000Y-87499000D01*
X134326000Y-88401000D01*
X134326000Y-88401000D01*
G37*
G36*
X134326000Y-86901000D02*
G01*
X133474000Y-86901000D01*
X133474000Y-85999000D01*
X134326000Y-85999000D01*
X134326000Y-86901000D01*
X134326000Y-86901000D01*
G37*
G36*
X150233918Y-84551000D02*
G01*
X150366981Y-84577468D01*
X150549151Y-84652926D01*
X150713100Y-84762473D01*
X150852527Y-84901900D01*
X150962074Y-85065849D01*
X151037532Y-85248019D01*
X151076000Y-85441410D01*
X151076000Y-85638590D01*
X151037532Y-85831981D01*
X150962074Y-86014151D01*
X150852527Y-86178100D01*
X150713100Y-86317527D01*
X150549151Y-86427074D01*
X150366981Y-86502532D01*
X150270285Y-86521766D01*
X150173591Y-86541000D01*
X149976409Y-86541000D01*
X149783019Y-86502532D01*
X149600849Y-86427074D01*
X149436900Y-86317527D01*
X149297473Y-86178100D01*
X149187926Y-86014151D01*
X149112468Y-85831981D01*
X149074000Y-85638590D01*
X149074000Y-85441410D01*
X149112468Y-85248019D01*
X149187926Y-85065849D01*
X149297473Y-84901900D01*
X149436900Y-84762473D01*
X149600849Y-84652926D01*
X149783019Y-84577468D01*
X149916082Y-84551000D01*
X149976409Y-84539000D01*
X150173591Y-84539000D01*
X150233918Y-84551000D01*
X150233918Y-84551000D01*
G37*
G36*
X134401000Y-85501000D02*
G01*
X133399000Y-85501000D01*
X133399000Y-84899000D01*
X134401000Y-84899000D01*
X134401000Y-85501000D01*
X134401000Y-85501000D01*
G37*
G36*
X112051000Y-84551000D02*
G01*
X108949000Y-84551000D01*
X108949000Y-81949000D01*
X112051000Y-81949000D01*
X112051000Y-84551000D01*
X112051000Y-84551000D01*
G37*
G36*
X150270285Y-82018234D02*
G01*
X150366981Y-82037468D01*
X150549151Y-82112926D01*
X150713100Y-82222473D01*
X150852527Y-82361900D01*
X150944134Y-82499000D01*
X150962075Y-82525851D01*
X151037532Y-82708020D01*
X151075919Y-82901000D01*
X151076000Y-82901410D01*
X151076000Y-83098590D01*
X151037532Y-83291981D01*
X150962074Y-83474151D01*
X150852527Y-83638100D01*
X150713100Y-83777527D01*
X150549151Y-83887074D01*
X150366981Y-83962532D01*
X150173591Y-84001000D01*
X149976409Y-84001000D01*
X149879715Y-83981766D01*
X149783019Y-83962532D01*
X149600849Y-83887074D01*
X149436900Y-83777527D01*
X149297473Y-83638100D01*
X149187926Y-83474151D01*
X149112468Y-83291981D01*
X149074000Y-83098590D01*
X149074000Y-82901410D01*
X149074082Y-82901000D01*
X149112468Y-82708020D01*
X149187925Y-82525851D01*
X149205866Y-82499000D01*
X149297473Y-82361900D01*
X149436900Y-82222473D01*
X149600849Y-82112926D01*
X149783019Y-82037468D01*
X149879715Y-82018234D01*
X149976409Y-81999000D01*
X150173591Y-81999000D01*
X150270285Y-82018234D01*
X150270285Y-82018234D01*
G37*
G36*
X134401000Y-84001000D02*
G01*
X133399000Y-84001000D01*
X133399000Y-83399000D01*
X134401000Y-83399000D01*
X134401000Y-84001000D01*
X134401000Y-84001000D01*
G37*
G36*
X150366981Y-79497468D02*
G01*
X150549151Y-79572926D01*
X150713100Y-79682473D01*
X150852527Y-79821900D01*
X150962074Y-79985849D01*
X150962075Y-79985851D01*
X150984175Y-80039205D01*
X151037532Y-80168019D01*
X151076000Y-80361410D01*
X151076000Y-80558590D01*
X151037532Y-80751981D01*
X150962074Y-80934151D01*
X150852527Y-81098100D01*
X150713100Y-81237527D01*
X150549151Y-81347074D01*
X150366981Y-81422532D01*
X150173591Y-81461000D01*
X149976409Y-81461000D01*
X149879715Y-81441766D01*
X149783019Y-81422532D01*
X149600849Y-81347074D01*
X149436900Y-81237527D01*
X149297473Y-81098100D01*
X149187926Y-80934151D01*
X149112468Y-80751981D01*
X149074000Y-80558590D01*
X149074000Y-80361410D01*
X149112468Y-80168019D01*
X149165825Y-80039205D01*
X149187925Y-79985851D01*
X149187926Y-79985849D01*
X149297473Y-79821900D01*
X149436900Y-79682473D01*
X149600849Y-79572926D01*
X149783019Y-79497468D01*
X149879715Y-79478234D01*
X149976409Y-79459000D01*
X150173591Y-79459000D01*
X150366981Y-79497468D01*
X150366981Y-79497468D01*
G37*
G36*
X150366981Y-76957468D02*
G01*
X150549151Y-77032926D01*
X150713100Y-77142473D01*
X150852527Y-77281900D01*
X150962074Y-77445849D01*
X151037532Y-77628019D01*
X151076000Y-77821410D01*
X151076000Y-78018590D01*
X151037532Y-78211981D01*
X150962074Y-78394151D01*
X150852527Y-78558100D01*
X150713100Y-78697527D01*
X150549151Y-78807074D01*
X150366981Y-78882532D01*
X150274136Y-78901000D01*
X150173591Y-78921000D01*
X149976409Y-78921000D01*
X149875864Y-78901000D01*
X149783019Y-78882532D01*
X149600849Y-78807074D01*
X149436900Y-78697527D01*
X149297473Y-78558100D01*
X149187926Y-78394151D01*
X149112468Y-78211981D01*
X149074000Y-78018590D01*
X149074000Y-77821410D01*
X149112468Y-77628019D01*
X149187926Y-77445849D01*
X149297473Y-77281900D01*
X149436900Y-77142473D01*
X149600849Y-77032926D01*
X149783019Y-76957468D01*
X149976409Y-76919000D01*
X150173591Y-76919000D01*
X150366981Y-76957468D01*
X150366981Y-76957468D01*
G37*
G36*
X91688015Y-75826973D02*
G01*
X91791879Y-75858479D01*
X91819055Y-75873005D01*
X91887600Y-75909643D01*
X91971501Y-75978499D01*
X92040357Y-76062400D01*
X92076995Y-76130945D01*
X92091521Y-76158121D01*
X92123027Y-76261985D01*
X92133666Y-76370000D01*
X92123027Y-76478015D01*
X92091521Y-76581879D01*
X92091519Y-76581882D01*
X92040357Y-76677600D01*
X91971501Y-76761501D01*
X91887600Y-76830357D01*
X91819055Y-76866995D01*
X91791879Y-76881521D01*
X91688015Y-76913027D01*
X91607067Y-76921000D01*
X90452933Y-76921000D01*
X90371985Y-76913027D01*
X90268121Y-76881521D01*
X90240945Y-76866995D01*
X90172400Y-76830357D01*
X90088499Y-76761501D01*
X90019643Y-76677600D01*
X89968481Y-76581882D01*
X89968479Y-76581879D01*
X89936973Y-76478015D01*
X89926334Y-76370000D01*
X89936973Y-76261985D01*
X89968479Y-76158121D01*
X89983005Y-76130945D01*
X90019643Y-76062400D01*
X90088499Y-75978499D01*
X90172400Y-75909643D01*
X90240945Y-75873005D01*
X90268121Y-75858479D01*
X90371985Y-75826973D01*
X90452933Y-75819000D01*
X91607067Y-75819000D01*
X91688015Y-75826973D01*
X91688015Y-75826973D01*
G37*
G36*
X87258015Y-75826973D02*
G01*
X87361879Y-75858479D01*
X87389055Y-75873005D01*
X87457600Y-75909643D01*
X87541501Y-75978499D01*
X87610357Y-76062400D01*
X87646995Y-76130945D01*
X87661521Y-76158121D01*
X87693027Y-76261985D01*
X87703666Y-76370000D01*
X87693027Y-76478015D01*
X87661521Y-76581879D01*
X87661519Y-76581882D01*
X87610357Y-76677600D01*
X87541501Y-76761501D01*
X87457600Y-76830357D01*
X87389055Y-76866995D01*
X87361879Y-76881521D01*
X87258015Y-76913027D01*
X87177067Y-76921000D01*
X86522933Y-76921000D01*
X86441985Y-76913027D01*
X86338121Y-76881521D01*
X86310945Y-76866995D01*
X86242400Y-76830357D01*
X86158499Y-76761501D01*
X86089643Y-76677600D01*
X86038481Y-76581882D01*
X86038479Y-76581879D01*
X86006973Y-76478015D01*
X85996334Y-76370000D01*
X86006973Y-76261985D01*
X86038479Y-76158121D01*
X86053005Y-76130945D01*
X86089643Y-76062400D01*
X86158499Y-75978499D01*
X86242400Y-75909643D01*
X86310945Y-75873005D01*
X86338121Y-75858479D01*
X86441985Y-75826973D01*
X86522933Y-75819000D01*
X87177067Y-75819000D01*
X87258015Y-75826973D01*
X87258015Y-75826973D01*
G37*
G36*
X150270285Y-74398234D02*
G01*
X150366981Y-74417468D01*
X150549151Y-74492926D01*
X150713100Y-74602473D01*
X150852527Y-74741900D01*
X150962074Y-74905849D01*
X151037532Y-75088019D01*
X151076000Y-75281410D01*
X151076000Y-75478590D01*
X151037532Y-75671981D01*
X150962074Y-75854151D01*
X150852527Y-76018100D01*
X150713100Y-76157527D01*
X150549151Y-76267074D01*
X150366981Y-76342532D01*
X150270285Y-76361766D01*
X150173591Y-76381000D01*
X149976409Y-76381000D01*
X149879715Y-76361766D01*
X149783019Y-76342532D01*
X149600849Y-76267074D01*
X149436900Y-76157527D01*
X149297473Y-76018100D01*
X149187926Y-75854151D01*
X149112468Y-75671981D01*
X149074000Y-75478590D01*
X149074000Y-75281410D01*
X149112468Y-75088019D01*
X149187926Y-74905849D01*
X149297473Y-74741900D01*
X149436900Y-74602473D01*
X149600849Y-74492926D01*
X149783019Y-74417468D01*
X149879715Y-74398234D01*
X149976409Y-74379000D01*
X150173591Y-74379000D01*
X150270285Y-74398234D01*
X150270285Y-74398234D01*
G37*
G36*
X142576000Y-75676000D02*
G01*
X141574000Y-75676000D01*
X141574000Y-75074000D01*
X142576000Y-75074000D01*
X142576000Y-75676000D01*
X142576000Y-75676000D01*
G37*
G36*
X90609672Y-74578449D02*
G01*
X90609674Y-74578450D01*
X90609675Y-74578450D01*
X90678103Y-74606793D01*
X90739686Y-74647942D01*
X90792058Y-74700314D01*
X90833207Y-74761897D01*
X90861550Y-74830325D01*
X90861551Y-74830328D01*
X90876000Y-74902966D01*
X90876000Y-74977034D01*
X90871631Y-74999000D01*
X90861550Y-75049675D01*
X90833207Y-75118103D01*
X90792058Y-75179686D01*
X90739686Y-75232058D01*
X90678103Y-75273207D01*
X90609675Y-75301550D01*
X90609674Y-75301550D01*
X90609672Y-75301551D01*
X90537034Y-75316000D01*
X90462966Y-75316000D01*
X90390328Y-75301551D01*
X90390326Y-75301550D01*
X90390325Y-75301550D01*
X90321897Y-75273207D01*
X90260314Y-75232058D01*
X90207942Y-75179686D01*
X90166793Y-75118103D01*
X90138450Y-75049675D01*
X90128370Y-74999000D01*
X90124000Y-74977034D01*
X90124000Y-74902966D01*
X90138449Y-74830328D01*
X90138450Y-74830325D01*
X90166793Y-74761897D01*
X90207942Y-74700314D01*
X90260314Y-74647942D01*
X90321897Y-74606793D01*
X90390325Y-74578450D01*
X90390326Y-74578450D01*
X90390328Y-74578449D01*
X90462966Y-74564000D01*
X90537034Y-74564000D01*
X90609672Y-74578449D01*
X90609672Y-74578449D01*
G37*
G36*
X142576000Y-74176000D02*
G01*
X141574000Y-74176000D01*
X141574000Y-73574000D01*
X142576000Y-73574000D01*
X142576000Y-74176000D01*
X142576000Y-74176000D01*
G37*
G36*
X136801000Y-74101000D02*
G01*
X134999000Y-74101000D01*
X134999000Y-73099000D01*
X136801000Y-73099000D01*
X136801000Y-74101000D01*
X136801000Y-74101000D01*
G37*
G36*
X140926000Y-73701000D02*
G01*
X139924000Y-73701000D01*
X139924000Y-72799000D01*
X140926000Y-72799000D01*
X140926000Y-73701000D01*
X140926000Y-73701000D01*
G37*
G36*
X142501000Y-73026000D02*
G01*
X141499000Y-73026000D01*
X141499000Y-72424000D01*
X142501000Y-72424000D01*
X142501000Y-73026000D01*
X142501000Y-73026000D01*
G37*
G36*
X138926000Y-72751000D02*
G01*
X137924000Y-72751000D01*
X137924000Y-71849000D01*
X138926000Y-71849000D01*
X138926000Y-72751000D01*
X138926000Y-72751000D01*
G37*
G36*
X140926000Y-71801000D02*
G01*
X139924000Y-71801000D01*
X139924000Y-70899000D01*
X140926000Y-70899000D01*
X140926000Y-71801000D01*
X140926000Y-71801000D01*
G37*
G36*
X142501000Y-71526000D02*
G01*
X141499000Y-71526000D01*
X141499000Y-70924000D01*
X142501000Y-70924000D01*
X142501000Y-71526000D01*
X142501000Y-71526000D01*
G37*
G36*
X136801000Y-71201000D02*
G01*
X134999000Y-71201000D01*
X134999000Y-70199000D01*
X136801000Y-70199000D01*
X136801000Y-71201000D01*
X136801000Y-71201000D01*
G37*
G36*
X169351000Y-70751000D02*
G01*
X165049000Y-70751000D01*
X165049000Y-69299000D01*
X169351000Y-69299000D01*
X169351000Y-70751000D01*
X169351000Y-70751000D01*
G37*
G36*
X90609672Y-68798449D02*
G01*
X90609674Y-68798450D01*
X90609675Y-68798450D01*
X90678103Y-68826793D01*
X90739686Y-68867942D01*
X90792058Y-68920314D01*
X90833207Y-68981897D01*
X90861550Y-69050325D01*
X90876000Y-69122967D01*
X90876000Y-69197033D01*
X90861550Y-69269675D01*
X90833207Y-69338103D01*
X90792058Y-69399686D01*
X90739686Y-69452058D01*
X90678103Y-69493207D01*
X90609675Y-69521550D01*
X90609674Y-69521550D01*
X90609672Y-69521551D01*
X90537034Y-69536000D01*
X90462966Y-69536000D01*
X90390328Y-69521551D01*
X90390326Y-69521550D01*
X90390325Y-69521550D01*
X90321897Y-69493207D01*
X90260314Y-69452058D01*
X90207942Y-69399686D01*
X90166793Y-69338103D01*
X90138450Y-69269675D01*
X90124000Y-69197033D01*
X90124000Y-69122967D01*
X90138450Y-69050325D01*
X90166793Y-68981897D01*
X90207942Y-68920314D01*
X90260314Y-68867942D01*
X90321897Y-68826793D01*
X90390325Y-68798450D01*
X90390326Y-68798450D01*
X90390328Y-68798449D01*
X90462966Y-68784000D01*
X90537034Y-68784000D01*
X90609672Y-68798449D01*
X90609672Y-68798449D01*
G37*
G36*
X130801000Y-68701000D02*
G01*
X127699000Y-68701000D01*
X127699000Y-66199000D01*
X130801000Y-66199000D01*
X130801000Y-68701000D01*
X130801000Y-68701000D01*
G37*
G36*
X91688015Y-67186973D02*
G01*
X91791879Y-67218479D01*
X91819055Y-67233005D01*
X91887600Y-67269643D01*
X91971501Y-67338499D01*
X92040357Y-67422400D01*
X92076995Y-67490945D01*
X92091521Y-67518121D01*
X92123027Y-67621985D01*
X92133666Y-67730000D01*
X92123027Y-67838015D01*
X92091521Y-67941879D01*
X92091519Y-67941882D01*
X92040357Y-68037600D01*
X91971501Y-68121501D01*
X91887600Y-68190357D01*
X91819055Y-68226995D01*
X91791879Y-68241521D01*
X91688015Y-68273027D01*
X91607067Y-68281000D01*
X90452933Y-68281000D01*
X90371985Y-68273027D01*
X90268121Y-68241521D01*
X90240945Y-68226995D01*
X90172400Y-68190357D01*
X90088499Y-68121501D01*
X90019643Y-68037600D01*
X89968481Y-67941882D01*
X89968479Y-67941879D01*
X89936973Y-67838015D01*
X89926334Y-67730000D01*
X89936973Y-67621985D01*
X89968479Y-67518121D01*
X89983005Y-67490945D01*
X90019643Y-67422400D01*
X90088499Y-67338499D01*
X90172400Y-67269643D01*
X90240945Y-67233005D01*
X90268121Y-67218479D01*
X90371985Y-67186973D01*
X90452933Y-67179000D01*
X91607067Y-67179000D01*
X91688015Y-67186973D01*
X91688015Y-67186973D01*
G37*
G36*
X87258015Y-67186973D02*
G01*
X87361879Y-67218479D01*
X87389055Y-67233005D01*
X87457600Y-67269643D01*
X87541501Y-67338499D01*
X87610357Y-67422400D01*
X87646995Y-67490945D01*
X87661521Y-67518121D01*
X87693027Y-67621985D01*
X87703666Y-67730000D01*
X87693027Y-67838015D01*
X87661521Y-67941879D01*
X87661519Y-67941882D01*
X87610357Y-68037600D01*
X87541501Y-68121501D01*
X87457600Y-68190357D01*
X87389055Y-68226995D01*
X87361879Y-68241521D01*
X87258015Y-68273027D01*
X87177067Y-68281000D01*
X86522933Y-68281000D01*
X86441985Y-68273027D01*
X86338121Y-68241521D01*
X86310945Y-68226995D01*
X86242400Y-68190357D01*
X86158499Y-68121501D01*
X86089643Y-68037600D01*
X86038481Y-67941882D01*
X86038479Y-67941879D01*
X86006973Y-67838015D01*
X85996334Y-67730000D01*
X86006973Y-67621985D01*
X86038479Y-67518121D01*
X86053005Y-67490945D01*
X86089643Y-67422400D01*
X86158499Y-67338499D01*
X86242400Y-67269643D01*
X86310945Y-67233005D01*
X86338121Y-67218479D01*
X86441985Y-67186973D01*
X86522933Y-67179000D01*
X87177067Y-67179000D01*
X87258015Y-67186973D01*
X87258015Y-67186973D01*
G37*
G36*
X169351000Y-65101000D02*
G01*
X165049000Y-65101000D01*
X165049000Y-63649000D01*
X169351000Y-63649000D01*
X169351000Y-65101000D01*
X169351000Y-65101000D01*
G37*
M02*
