G04 #@! TF.GenerationSoftware,KiCad,Pcbnew,(5.1.4)-1*
G04 #@! TF.CreationDate,2020-09-15T19:50:09+03:00*
G04 #@! TF.ProjectId,FinalPCB,46696e61-6c50-4434-922e-6b696361645f,rev?*
G04 #@! TF.SameCoordinates,Original*
G04 #@! TF.FileFunction,Legend,Top*
G04 #@! TF.FilePolarity,Positive*
%FSLAX46Y46*%
G04 Gerber Fmt 4.6, Leading zero omitted, Abs format (unit mm)*
G04 Created by KiCad (PCBNEW (5.1.4)-1) date 2020-09-15 19:50:09*
%MOMM*%
%LPD*%
G04 APERTURE LIST*
%ADD10C,0.050000*%
%ADD11C,0.120000*%
%ADD12C,0.150000*%
%ADD13C,0.100000*%
%ADD14C,0.140000*%
G04 APERTURE END LIST*
D10*
X89700000Y-100100000D02*
X116800000Y-100100000D01*
X89700000Y-83600000D02*
X89700000Y-100100000D01*
X85200000Y-83600000D02*
X89700000Y-83600000D01*
X85200000Y-66100000D02*
X85200000Y-83600000D01*
X96800000Y-66100000D02*
X85200000Y-66100000D01*
X96800000Y-52800000D02*
X96800000Y-66100000D01*
X169300000Y-52800000D02*
X96800000Y-52800000D01*
X169300000Y-100100000D02*
X169300000Y-52800000D01*
X116800000Y-100100000D02*
X169300000Y-100100000D01*
D11*
X111620000Y-81300000D02*
X111620000Y-80520000D01*
X111620000Y-80520000D02*
X110620000Y-80520000D01*
X93380000Y-81300000D02*
X93380000Y-80520000D01*
X93380000Y-80520000D02*
X94380000Y-80520000D01*
X111620000Y-99845000D02*
X112000000Y-99845000D01*
X153200000Y-71500000D02*
X153900000Y-71500000D01*
X153900000Y-72700000D02*
X153200000Y-72700000D01*
X157110000Y-81700000D02*
X157110000Y-82300000D01*
X155610000Y-81700000D02*
X155610000Y-82300000D01*
X155110000Y-81700000D02*
X155610000Y-81700000D01*
X158510000Y-81700000D02*
X157110000Y-81700000D01*
X161000000Y-81740000D02*
X160200000Y-81740000D01*
X163200000Y-81740000D02*
X162600000Y-81740000D01*
X165300000Y-81740000D02*
X164800000Y-81740000D01*
X165300000Y-75040000D02*
X165300000Y-81740000D01*
X164800000Y-75040000D02*
X165300000Y-75040000D01*
X162600000Y-75040000D02*
X163200000Y-75040000D01*
X160200000Y-75040000D02*
X161000000Y-75040000D01*
X157200000Y-75040000D02*
X158600000Y-75040000D01*
X155100000Y-75040000D02*
X155600000Y-75040000D01*
X155110000Y-81700000D02*
X155100000Y-75040000D01*
X148300000Y-61000000D02*
X149000000Y-61000000D01*
X149000000Y-62200000D02*
X148300000Y-62200000D01*
X153150000Y-54000000D02*
X153850000Y-54000000D01*
X153850000Y-55200000D02*
X153150000Y-55200000D01*
X156400000Y-57000000D02*
X156400000Y-56300000D01*
X157600000Y-56300000D02*
X157600000Y-57000000D01*
X159400000Y-59200000D02*
X159400000Y-59900000D01*
X158200000Y-59900000D02*
X158200000Y-59200000D01*
X143700000Y-71050000D02*
X143700000Y-70350000D01*
X144900000Y-70350000D02*
X144900000Y-71050000D01*
X149900000Y-72500000D02*
X149900000Y-71800000D01*
X151100000Y-71800000D02*
X151100000Y-72500000D01*
X148700000Y-72500000D02*
X148700000Y-71800000D01*
X149900000Y-71800000D02*
X149900000Y-72500000D01*
X143300000Y-64600000D02*
X143300000Y-65300000D01*
X142100000Y-65300000D02*
X142100000Y-64600000D01*
X146800000Y-55700000D02*
X146800000Y-55000000D01*
X148000000Y-55000000D02*
X148000000Y-55700000D01*
X143200000Y-58900000D02*
X143200000Y-58200000D01*
X144400000Y-58200000D02*
X144400000Y-58900000D01*
X140800000Y-65300000D02*
X140800000Y-64600000D01*
X142000000Y-64600000D02*
X142000000Y-65300000D01*
X153900000Y-71300000D02*
X153200000Y-71300000D01*
X153200000Y-70100000D02*
X153900000Y-70100000D01*
X160200000Y-72900000D02*
X159500000Y-72900000D01*
X159500000Y-71700000D02*
X160200000Y-71700000D01*
X162400000Y-63600000D02*
X163100000Y-63600000D01*
X163100000Y-64800000D02*
X162400000Y-64800000D01*
X162400000Y-62100000D02*
X163100000Y-62100000D01*
X163100000Y-63300000D02*
X162400000Y-63300000D01*
X156400000Y-70400000D02*
X157100000Y-70400000D01*
X157100000Y-71600000D02*
X156400000Y-71600000D01*
X157100000Y-72900000D02*
X156400000Y-72900000D01*
X156400000Y-71700000D02*
X157100000Y-71700000D01*
X117550000Y-65050000D02*
X114250000Y-65050000D01*
X114250000Y-65050000D02*
X114250000Y-69600000D01*
X117550000Y-65050000D02*
X117550000Y-69600000D01*
X115175000Y-63250000D02*
X114475000Y-63250000D01*
X114475000Y-62050000D02*
X115175000Y-62050000D01*
X112725000Y-65150000D02*
X112725000Y-64450000D01*
X113925000Y-64450000D02*
X113925000Y-65150000D01*
X99300000Y-66100000D02*
X99300000Y-66800000D01*
X98100000Y-66800000D02*
X98100000Y-66100000D01*
X122750000Y-59025000D02*
X122050000Y-59025000D01*
X122050000Y-57825000D02*
X122750000Y-57825000D01*
X129125000Y-58250000D02*
X129125000Y-58950000D01*
X127925000Y-58950000D02*
X127925000Y-58250000D01*
X125700000Y-60375000D02*
X125000000Y-60375000D01*
X125000000Y-59175000D02*
X125700000Y-59175000D01*
X102800000Y-66200000D02*
X102800000Y-66900000D01*
X101600000Y-66900000D02*
X101600000Y-66200000D01*
X101150000Y-66150000D02*
X101150000Y-66850000D01*
X99950000Y-66850000D02*
X99950000Y-66150000D01*
X119800000Y-56225000D02*
X119800000Y-55225000D01*
X118100000Y-55225000D02*
X118100000Y-56225000D01*
X108500000Y-72600000D02*
X108500000Y-73300000D01*
X107300000Y-73300000D02*
X107300000Y-72600000D01*
X111200000Y-69300000D02*
X110500000Y-69300000D01*
X110500000Y-68100000D02*
X111200000Y-68100000D01*
X131050000Y-62175000D02*
X132050000Y-62175000D01*
X132050000Y-60475000D02*
X131050000Y-60475000D01*
X127300000Y-53350000D02*
X127300000Y-57900000D01*
X124000000Y-53350000D02*
X124000000Y-57900000D01*
X127300000Y-53350000D02*
X124000000Y-53350000D01*
X129675000Y-56675000D02*
X129675000Y-59975000D01*
X129675000Y-59975000D02*
X134225000Y-59975000D01*
X129675000Y-56675000D02*
X134225000Y-56675000D01*
X101700000Y-55700000D02*
X101700000Y-55000000D01*
X102900000Y-55000000D02*
X102900000Y-55700000D01*
X134025000Y-75950000D02*
X134025000Y-76650000D01*
X132825000Y-76650000D02*
X132825000Y-75950000D01*
X107150000Y-53325000D02*
X103450000Y-53325000D01*
X103450000Y-53325000D02*
X103450000Y-60425000D01*
X107150000Y-53325000D02*
X107150000Y-60425000D01*
X114800000Y-74975000D02*
X114100000Y-74975000D01*
X114100000Y-73775000D02*
X114800000Y-73775000D01*
X130575000Y-75900000D02*
X130575000Y-76600000D01*
X129375000Y-76600000D02*
X129375000Y-75900000D01*
X125825000Y-73800000D02*
X125125000Y-73800000D01*
X125125000Y-72600000D02*
X125825000Y-72600000D01*
X124600000Y-88925000D02*
X125300000Y-88925000D01*
X125300000Y-90125000D02*
X124600000Y-90125000D01*
X126975000Y-86725000D02*
X131525000Y-86725000D01*
X126975000Y-90025000D02*
X131525000Y-90025000D01*
X126975000Y-86725000D02*
X126975000Y-90025000D01*
X123475000Y-75550000D02*
X123475000Y-76250000D01*
X122275000Y-76250000D02*
X122275000Y-75550000D01*
X122475000Y-72650000D02*
X121775000Y-72650000D01*
X121775000Y-71450000D02*
X122475000Y-71450000D01*
X124025000Y-80900000D02*
X124025000Y-80200000D01*
X125225000Y-80200000D02*
X125225000Y-80900000D01*
X120725000Y-75475000D02*
X120725000Y-76175000D01*
X119525000Y-76175000D02*
X119525000Y-75475000D01*
X118920000Y-98100000D02*
X118920000Y-96100000D01*
X116880000Y-96100000D02*
X116880000Y-98100000D01*
X114550000Y-95450000D02*
X115250000Y-95450000D01*
X115250000Y-96650000D02*
X114550000Y-96650000D01*
X116350000Y-98000000D02*
X116350000Y-98700000D01*
X115150000Y-98700000D02*
X115150000Y-98000000D01*
X153725000Y-90225000D02*
X153725000Y-90925000D01*
X152525000Y-90925000D02*
X152525000Y-90225000D01*
X86400000Y-80700000D02*
X86400000Y-78600000D01*
X87400000Y-80700000D02*
X87400000Y-78600000D01*
X86400000Y-80700000D02*
X87400000Y-80700000D01*
X116900000Y-56625000D02*
X116900000Y-54625000D01*
X116900000Y-54625000D02*
X113000000Y-54625000D01*
X116900000Y-56625000D02*
X113000000Y-56625000D01*
X126475000Y-62825000D02*
X130375000Y-62825000D01*
X126475000Y-64825000D02*
X130375000Y-64825000D01*
X126475000Y-62825000D02*
X126475000Y-64825000D01*
X157000000Y-85400000D02*
X153100000Y-85400000D01*
X157000000Y-83400000D02*
X153100000Y-83400000D01*
X157000000Y-85400000D02*
X157000000Y-83400000D01*
X165490000Y-66360000D02*
X165490000Y-65250000D01*
X165490000Y-69150000D02*
X165490000Y-68040000D01*
X169200000Y-66360000D02*
X169200000Y-65250000D01*
X169200000Y-69150000D02*
X169200000Y-68040000D01*
X164940000Y-67200000D02*
X164440000Y-66950000D01*
X164440000Y-66950000D02*
X164440000Y-67450000D01*
X164440000Y-67450000D02*
X164940000Y-67200000D01*
X164440000Y-92350000D02*
X164940000Y-92100000D01*
X164440000Y-91850000D02*
X164440000Y-92350000D01*
X164940000Y-92100000D02*
X164440000Y-91850000D01*
X169200000Y-94050000D02*
X169200000Y-92940000D01*
X169200000Y-91260000D02*
X169200000Y-90150000D01*
X165490000Y-94050000D02*
X165490000Y-92940000D01*
X165490000Y-91260000D02*
X165490000Y-90150000D01*
X111350000Y-61675000D02*
X117350000Y-61675000D01*
X111350000Y-57475000D02*
X117350000Y-57475000D01*
X124675000Y-65325000D02*
X130675000Y-65325000D01*
X124675000Y-69525000D02*
X130675000Y-69525000D01*
X104800000Y-64600000D02*
X104800000Y-70600000D01*
X109000000Y-64600000D02*
X109000000Y-70600000D01*
X131975000Y-82625000D02*
X125975000Y-82625000D01*
X131975000Y-78425000D02*
X125975000Y-78425000D01*
X119525000Y-78075000D02*
X119525000Y-84075000D01*
X123725000Y-78075000D02*
X123725000Y-84075000D01*
X155440000Y-86045000D02*
X155440000Y-86975000D01*
X155440000Y-89205000D02*
X155440000Y-88275000D01*
X155440000Y-89205000D02*
X157600000Y-89205000D01*
X155440000Y-86045000D02*
X156900000Y-86045000D01*
X114090000Y-77120000D02*
X115550000Y-77120000D01*
X114090000Y-80280000D02*
X116250000Y-80280000D01*
X114090000Y-80280000D02*
X114090000Y-79350000D01*
X114090000Y-77120000D02*
X114090000Y-78050000D01*
X161750000Y-56320000D02*
X162750000Y-56320000D01*
X162750000Y-57680000D02*
X161750000Y-57680000D01*
X158650000Y-54980000D02*
X157650000Y-54980000D01*
X157650000Y-53620000D02*
X158650000Y-53620000D01*
X161450000Y-59480000D02*
X160450000Y-59480000D01*
X160450000Y-58120000D02*
X161450000Y-58120000D01*
X158750000Y-56320000D02*
X159750000Y-56320000D01*
X159750000Y-57680000D02*
X158750000Y-57680000D01*
X156320000Y-60050000D02*
X156320000Y-59050000D01*
X157680000Y-59050000D02*
X157680000Y-60050000D01*
X154050000Y-62380000D02*
X153050000Y-62380000D01*
X153050000Y-61020000D02*
X154050000Y-61020000D01*
X143580000Y-68450000D02*
X143580000Y-69450000D01*
X142220000Y-69450000D02*
X142220000Y-68450000D01*
X140670000Y-69450000D02*
X140670000Y-68450000D01*
X142030000Y-68450000D02*
X142030000Y-69450000D01*
X142530000Y-59750000D02*
X142530000Y-60750000D01*
X141170000Y-60750000D02*
X141170000Y-59750000D01*
X139420000Y-58050000D02*
X139420000Y-57050000D01*
X140780000Y-57050000D02*
X140780000Y-58050000D01*
X147450000Y-70780000D02*
X146450000Y-70780000D01*
X146450000Y-69420000D02*
X147450000Y-69420000D01*
X150250000Y-70780000D02*
X149250000Y-70780000D01*
X149250000Y-69420000D02*
X150250000Y-69420000D01*
X141120000Y-58050000D02*
X141120000Y-57050000D01*
X142480000Y-57050000D02*
X142480000Y-58050000D01*
X144380000Y-55400000D02*
X144380000Y-56400000D01*
X143020000Y-56400000D02*
X143020000Y-55400000D01*
X147450000Y-65480000D02*
X146450000Y-65480000D01*
X146450000Y-64120000D02*
X147450000Y-64120000D01*
X146720000Y-58750000D02*
X146720000Y-57750000D01*
X148080000Y-57750000D02*
X148080000Y-58750000D01*
X146180000Y-56550000D02*
X146180000Y-57550000D01*
X144820000Y-57550000D02*
X144820000Y-56550000D01*
X153050000Y-67580000D02*
X152050000Y-67580000D01*
X152050000Y-66220000D02*
X153050000Y-66220000D01*
X153920000Y-69250000D02*
X153920000Y-68250000D01*
X155280000Y-68250000D02*
X155280000Y-69250000D01*
X153920000Y-66650000D02*
X153920000Y-65650000D01*
X155280000Y-65650000D02*
X155280000Y-66650000D01*
X159150000Y-70220000D02*
X160150000Y-70220000D01*
X160150000Y-71580000D02*
X159150000Y-71580000D01*
X156975000Y-90880000D02*
X155975000Y-90880000D01*
X155975000Y-89520000D02*
X156975000Y-89520000D01*
X154180000Y-86725000D02*
X154180000Y-87925000D01*
X152420000Y-87925000D02*
X152420000Y-86725000D01*
X117830000Y-62775000D02*
X117830000Y-63775000D01*
X116470000Y-63775000D02*
X116470000Y-62775000D01*
X97100000Y-69830000D02*
X96100000Y-69830000D01*
X96100000Y-68470000D02*
X97100000Y-68470000D01*
X95180000Y-74150000D02*
X95180000Y-75150000D01*
X93820000Y-75150000D02*
X93820000Y-74150000D01*
X99780000Y-75450000D02*
X99780000Y-76450000D01*
X98420000Y-76450000D02*
X98420000Y-75450000D01*
X114700000Y-92220000D02*
X115700000Y-92220000D01*
X115700000Y-93580000D02*
X114700000Y-93580000D01*
X117970000Y-67325000D02*
X117970000Y-66325000D01*
X119330000Y-66325000D02*
X119330000Y-67325000D01*
X120730000Y-66325000D02*
X120730000Y-67325000D01*
X119370000Y-67325000D02*
X119370000Y-66325000D01*
X122130000Y-66325000D02*
X122130000Y-67325000D01*
X120770000Y-67325000D02*
X120770000Y-66325000D01*
X122170000Y-67325000D02*
X122170000Y-66325000D01*
X123530000Y-66325000D02*
X123530000Y-67325000D01*
X99820000Y-76450000D02*
X99820000Y-75450000D01*
X101180000Y-75450000D02*
X101180000Y-76450000D01*
X111450000Y-70980000D02*
X110450000Y-70980000D01*
X110450000Y-69620000D02*
X111450000Y-69620000D01*
X89250000Y-78620000D02*
X90250000Y-78620000D01*
X90250000Y-79980000D02*
X89250000Y-79980000D01*
X127400000Y-60620000D02*
X128400000Y-60620000D01*
X128400000Y-61980000D02*
X127400000Y-61980000D01*
X124570000Y-62850000D02*
X124570000Y-61850000D01*
X125930000Y-61850000D02*
X125930000Y-62850000D01*
X105950000Y-74480000D02*
X104950000Y-74480000D01*
X104950000Y-73120000D02*
X105950000Y-73120000D01*
X102580000Y-75450000D02*
X102580000Y-76450000D01*
X101220000Y-76450000D02*
X101220000Y-75450000D01*
X120050000Y-59105000D02*
X119050000Y-59105000D01*
X119050000Y-57745000D02*
X120050000Y-57745000D01*
X121850000Y-56345000D02*
X122850000Y-56345000D01*
X122850000Y-57705000D02*
X121850000Y-57705000D01*
X113600000Y-72145000D02*
X114600000Y-72145000D01*
X114600000Y-73505000D02*
X113600000Y-73505000D01*
X114850000Y-76605000D02*
X113850000Y-76605000D01*
X113850000Y-75245000D02*
X114850000Y-75245000D01*
X132155000Y-75850000D02*
X132155000Y-76850000D01*
X130795000Y-76850000D02*
X130795000Y-75850000D01*
X129295000Y-73950000D02*
X129295000Y-72950000D01*
X130655000Y-72950000D02*
X130655000Y-73950000D01*
X125975000Y-72280000D02*
X124975000Y-72280000D01*
X124975000Y-70920000D02*
X125975000Y-70920000D01*
X122155000Y-75400000D02*
X122155000Y-76400000D01*
X120795000Y-76400000D02*
X120795000Y-75400000D01*
X121625000Y-72970000D02*
X122625000Y-72970000D01*
X122625000Y-74330000D02*
X121625000Y-74330000D01*
X114700000Y-93770000D02*
X115700000Y-93770000D01*
X115700000Y-95130000D02*
X114700000Y-95130000D01*
X96450000Y-79830000D02*
X95450000Y-79830000D01*
X95450000Y-78470000D02*
X96450000Y-78470000D01*
X118020000Y-87300000D02*
X118020000Y-86300000D01*
X119380000Y-86300000D02*
X119380000Y-87300000D01*
X117380000Y-86300000D02*
X117380000Y-87300000D01*
X116020000Y-87300000D02*
X116020000Y-86300000D01*
D12*
X154275000Y-60775000D02*
X154275000Y-60725000D01*
X150125000Y-60775000D02*
X150125000Y-60630000D01*
X150125000Y-55625000D02*
X150125000Y-55770000D01*
X154275000Y-55625000D02*
X154275000Y-55770000D01*
X154275000Y-60775000D02*
X150125000Y-60775000D01*
X154275000Y-55625000D02*
X150125000Y-55625000D01*
X154275000Y-60725000D02*
X155675000Y-60725000D01*
X145325000Y-65950000D02*
X144100000Y-65950000D01*
X145325000Y-69075000D02*
X148675000Y-69075000D01*
X145325000Y-65725000D02*
X148675000Y-65725000D01*
X145325000Y-69075000D02*
X145325000Y-68775000D01*
X148675000Y-69075000D02*
X148675000Y-68775000D01*
X148675000Y-65725000D02*
X148675000Y-66025000D01*
X145325000Y-65725000D02*
X145325000Y-65950000D01*
X157125000Y-64975000D02*
X155725000Y-64975000D01*
X157125000Y-70075000D02*
X161275000Y-70075000D01*
X157125000Y-64925000D02*
X161275000Y-64925000D01*
X157125000Y-70075000D02*
X157125000Y-69930000D01*
X161275000Y-70075000D02*
X161275000Y-69930000D01*
X161275000Y-64925000D02*
X161275000Y-65070000D01*
X157125000Y-64925000D02*
X157125000Y-64975000D01*
X123050000Y-60075000D02*
X123050000Y-60600000D01*
X118750000Y-64375000D02*
X118750000Y-63850000D01*
X123050000Y-64375000D02*
X123050000Y-63850000D01*
X118750000Y-60075000D02*
X119275000Y-60075000D01*
X118750000Y-64375000D02*
X119275000Y-64375000D01*
X123050000Y-64375000D02*
X122525000Y-64375000D01*
X123050000Y-60075000D02*
X122525000Y-60075000D01*
X103500000Y-68800000D02*
X102975000Y-68800000D01*
X103500000Y-73100000D02*
X102975000Y-73100000D01*
X99200000Y-73100000D02*
X99725000Y-73100000D01*
X99200000Y-68800000D02*
X99725000Y-68800000D01*
X103500000Y-73100000D02*
X103500000Y-72575000D01*
X99200000Y-73100000D02*
X99200000Y-72575000D01*
X103500000Y-68800000D02*
X103500000Y-69325000D01*
D11*
X131410000Y-90975000D02*
X131410000Y-96985000D01*
X124590000Y-93225000D02*
X124590000Y-96985000D01*
X131410000Y-96985000D02*
X130150000Y-96985000D01*
X124590000Y-96985000D02*
X125850000Y-96985000D01*
D13*
X127975000Y-78050000D02*
G75*
G03X127975000Y-78050000I-100000J0D01*
G01*
X127375000Y-77900000D02*
X124725000Y-77900000D01*
X124725000Y-77900000D02*
X124725000Y-77650000D01*
X124725000Y-74850000D02*
X124725000Y-74600000D01*
X124725000Y-74600000D02*
X128025000Y-74600000D01*
X128025000Y-74600000D02*
X128025000Y-74850000D01*
D12*
X138645000Y-74110000D02*
X151980000Y-74110000D01*
X138645000Y-91890000D02*
X138645000Y-74110000D01*
X151980000Y-91890000D02*
X138645000Y-91890000D01*
X151980000Y-74110000D02*
X151980000Y-91890000D01*
D11*
X89920000Y-82570000D02*
X91250000Y-82570000D01*
X89920000Y-83900000D02*
X89920000Y-82570000D01*
X89920000Y-85170000D02*
X92580000Y-85170000D01*
X92580000Y-85170000D02*
X92580000Y-97930000D01*
X89920000Y-85170000D02*
X89920000Y-97930000D01*
X89920000Y-97930000D02*
X92580000Y-97930000D01*
X163850000Y-59200000D02*
X163150000Y-59200000D01*
X163150000Y-58000000D02*
X163850000Y-58000000D01*
X140900000Y-59600000D02*
X140900000Y-60300000D01*
X139700000Y-60300000D02*
X139700000Y-59600000D01*
D14*
X101166666Y-87416666D02*
X101166666Y-87983333D01*
X101200000Y-88050000D01*
X101233333Y-88083333D01*
X101300000Y-88116666D01*
X101433333Y-88116666D01*
X101500000Y-88083333D01*
X101533333Y-88050000D01*
X101566666Y-87983333D01*
X101566666Y-87416666D01*
X102000000Y-87716666D02*
X101933333Y-87683333D01*
X101900000Y-87650000D01*
X101866666Y-87583333D01*
X101866666Y-87550000D01*
X101900000Y-87483333D01*
X101933333Y-87450000D01*
X102000000Y-87416666D01*
X102133333Y-87416666D01*
X102200000Y-87450000D01*
X102233333Y-87483333D01*
X102266666Y-87550000D01*
X102266666Y-87583333D01*
X102233333Y-87650000D01*
X102200000Y-87683333D01*
X102133333Y-87716666D01*
X102000000Y-87716666D01*
X101933333Y-87750000D01*
X101900000Y-87783333D01*
X101866666Y-87850000D01*
X101866666Y-87983333D01*
X101900000Y-88050000D01*
X101933333Y-88083333D01*
X102000000Y-88116666D01*
X102133333Y-88116666D01*
X102200000Y-88083333D01*
X102233333Y-88050000D01*
X102266666Y-87983333D01*
X102266666Y-87850000D01*
X102233333Y-87783333D01*
X102200000Y-87750000D01*
X102133333Y-87716666D01*
X153050000Y-74550000D02*
X153016666Y-74583333D01*
X152916666Y-74616666D01*
X152850000Y-74616666D01*
X152750000Y-74583333D01*
X152683333Y-74516666D01*
X152650000Y-74450000D01*
X152616666Y-74316666D01*
X152616666Y-74216666D01*
X152650000Y-74083333D01*
X152683333Y-74016666D01*
X152750000Y-73950000D01*
X152850000Y-73916666D01*
X152916666Y-73916666D01*
X153016666Y-73950000D01*
X153050000Y-73983333D01*
X153716666Y-74616666D02*
X153316666Y-74616666D01*
X153516666Y-74616666D02*
X153516666Y-73916666D01*
X153450000Y-74016666D01*
X153383333Y-74083333D01*
X153316666Y-74116666D01*
X154150000Y-73916666D02*
X154216666Y-73916666D01*
X154283333Y-73950000D01*
X154316666Y-73983333D01*
X154350000Y-74050000D01*
X154383333Y-74183333D01*
X154383333Y-74350000D01*
X154350000Y-74483333D01*
X154316666Y-74550000D01*
X154283333Y-74583333D01*
X154216666Y-74616666D01*
X154150000Y-74616666D01*
X154083333Y-74583333D01*
X154050000Y-74550000D01*
X154016666Y-74483333D01*
X153983333Y-74350000D01*
X153983333Y-74183333D01*
X154016666Y-74050000D01*
X154050000Y-73983333D01*
X154083333Y-73950000D01*
X154150000Y-73916666D01*
X154516666Y-78916666D02*
X153816666Y-78916666D01*
X154516666Y-78516666D02*
X154116666Y-78816666D01*
X153816666Y-78516666D02*
X154216666Y-78916666D01*
X154516666Y-77850000D02*
X154516666Y-78250000D01*
X154516666Y-78050000D02*
X153816666Y-78050000D01*
X153916666Y-78116666D01*
X153983333Y-78183333D01*
X154016666Y-78250000D01*
X94066666Y-72283333D02*
X94566666Y-72283333D01*
X94666666Y-72316666D01*
X94733333Y-72383333D01*
X94766666Y-72483333D01*
X94766666Y-72550000D01*
X94066666Y-72016666D02*
X94066666Y-71583333D01*
X94333333Y-71816666D01*
X94333333Y-71716666D01*
X94366666Y-71650000D01*
X94400000Y-71616666D01*
X94466666Y-71583333D01*
X94633333Y-71583333D01*
X94700000Y-71616666D01*
X94733333Y-71650000D01*
X94766666Y-71716666D01*
X94766666Y-71916666D01*
X94733333Y-71983333D01*
X94700000Y-72016666D01*
X150583333Y-61850000D02*
X150550000Y-61883333D01*
X150450000Y-61916666D01*
X150383333Y-61916666D01*
X150283333Y-61883333D01*
X150216666Y-61816666D01*
X150183333Y-61750000D01*
X150150000Y-61616666D01*
X150150000Y-61516666D01*
X150183333Y-61383333D01*
X150216666Y-61316666D01*
X150283333Y-61250000D01*
X150383333Y-61216666D01*
X150450000Y-61216666D01*
X150550000Y-61250000D01*
X150583333Y-61283333D01*
X151250000Y-61916666D02*
X150850000Y-61916666D01*
X151050000Y-61916666D02*
X151050000Y-61216666D01*
X150983333Y-61316666D01*
X150916666Y-61383333D01*
X150850000Y-61416666D01*
X153383333Y-53750000D02*
X153350000Y-53783333D01*
X153250000Y-53816666D01*
X153183333Y-53816666D01*
X153083333Y-53783333D01*
X153016666Y-53716666D01*
X152983333Y-53650000D01*
X152950000Y-53516666D01*
X152950000Y-53416666D01*
X152983333Y-53283333D01*
X153016666Y-53216666D01*
X153083333Y-53150000D01*
X153183333Y-53116666D01*
X153250000Y-53116666D01*
X153350000Y-53150000D01*
X153383333Y-53183333D01*
X153650000Y-53183333D02*
X153683333Y-53150000D01*
X153750000Y-53116666D01*
X153916666Y-53116666D01*
X153983333Y-53150000D01*
X154016666Y-53183333D01*
X154050000Y-53250000D01*
X154050000Y-53316666D01*
X154016666Y-53416666D01*
X153616666Y-53816666D01*
X154050000Y-53816666D01*
X156350000Y-55216666D02*
X156383333Y-55250000D01*
X156416666Y-55350000D01*
X156416666Y-55416666D01*
X156383333Y-55516666D01*
X156316666Y-55583333D01*
X156250000Y-55616666D01*
X156116666Y-55650000D01*
X156016666Y-55650000D01*
X155883333Y-55616666D01*
X155816666Y-55583333D01*
X155750000Y-55516666D01*
X155716666Y-55416666D01*
X155716666Y-55350000D01*
X155750000Y-55250000D01*
X155783333Y-55216666D01*
X155716666Y-54983333D02*
X155716666Y-54550000D01*
X155983333Y-54783333D01*
X155983333Y-54683333D01*
X156016666Y-54616666D01*
X156050000Y-54583333D01*
X156116666Y-54550000D01*
X156283333Y-54550000D01*
X156350000Y-54583333D01*
X156383333Y-54616666D01*
X156416666Y-54683333D01*
X156416666Y-54883333D01*
X156383333Y-54950000D01*
X156350000Y-54983333D01*
X159050000Y-61616666D02*
X159083333Y-61650000D01*
X159116666Y-61750000D01*
X159116666Y-61816666D01*
X159083333Y-61916666D01*
X159016666Y-61983333D01*
X158950000Y-62016666D01*
X158816666Y-62050000D01*
X158716666Y-62050000D01*
X158583333Y-62016666D01*
X158516666Y-61983333D01*
X158450000Y-61916666D01*
X158416666Y-61816666D01*
X158416666Y-61750000D01*
X158450000Y-61650000D01*
X158483333Y-61616666D01*
X158650000Y-61016666D02*
X159116666Y-61016666D01*
X158383333Y-61183333D02*
X158883333Y-61350000D01*
X158883333Y-60916666D01*
X144550000Y-72916666D02*
X144583333Y-72950000D01*
X144616666Y-73050000D01*
X144616666Y-73116666D01*
X144583333Y-73216666D01*
X144516666Y-73283333D01*
X144450000Y-73316666D01*
X144316666Y-73350000D01*
X144216666Y-73350000D01*
X144083333Y-73316666D01*
X144016666Y-73283333D01*
X143950000Y-73216666D01*
X143916666Y-73116666D01*
X143916666Y-73050000D01*
X143950000Y-72950000D01*
X143983333Y-72916666D01*
X143916666Y-72283333D02*
X143916666Y-72616666D01*
X144250000Y-72650000D01*
X144216666Y-72616666D01*
X144183333Y-72550000D01*
X144183333Y-72383333D01*
X144216666Y-72316666D01*
X144250000Y-72283333D01*
X144316666Y-72250000D01*
X144483333Y-72250000D01*
X144550000Y-72283333D01*
X144583333Y-72316666D01*
X144616666Y-72383333D01*
X144616666Y-72550000D01*
X144583333Y-72616666D01*
X144550000Y-72650000D01*
X151850000Y-73016666D02*
X151883333Y-73050000D01*
X151916666Y-73150000D01*
X151916666Y-73216666D01*
X151883333Y-73316666D01*
X151816666Y-73383333D01*
X151750000Y-73416666D01*
X151616666Y-73450000D01*
X151516666Y-73450000D01*
X151383333Y-73416666D01*
X151316666Y-73383333D01*
X151250000Y-73316666D01*
X151216666Y-73216666D01*
X151216666Y-73150000D01*
X151250000Y-73050000D01*
X151283333Y-73016666D01*
X151216666Y-72416666D02*
X151216666Y-72550000D01*
X151250000Y-72616666D01*
X151283333Y-72650000D01*
X151383333Y-72716666D01*
X151516666Y-72750000D01*
X151783333Y-72750000D01*
X151850000Y-72716666D01*
X151883333Y-72683333D01*
X151916666Y-72616666D01*
X151916666Y-72483333D01*
X151883333Y-72416666D01*
X151850000Y-72383333D01*
X151783333Y-72350000D01*
X151616666Y-72350000D01*
X151550000Y-72383333D01*
X151516666Y-72416666D01*
X151483333Y-72483333D01*
X151483333Y-72616666D01*
X151516666Y-72683333D01*
X151550000Y-72716666D01*
X151616666Y-72750000D01*
X148350000Y-73016666D02*
X148383333Y-73050000D01*
X148416666Y-73150000D01*
X148416666Y-73216666D01*
X148383333Y-73316666D01*
X148316666Y-73383333D01*
X148250000Y-73416666D01*
X148116666Y-73450000D01*
X148016666Y-73450000D01*
X147883333Y-73416666D01*
X147816666Y-73383333D01*
X147750000Y-73316666D01*
X147716666Y-73216666D01*
X147716666Y-73150000D01*
X147750000Y-73050000D01*
X147783333Y-73016666D01*
X147716666Y-72783333D02*
X147716666Y-72316666D01*
X148416666Y-72616666D01*
X142950000Y-63116666D02*
X142983333Y-63150000D01*
X143016666Y-63250000D01*
X143016666Y-63316666D01*
X142983333Y-63416666D01*
X142916666Y-63483333D01*
X142850000Y-63516666D01*
X142716666Y-63550000D01*
X142616666Y-63550000D01*
X142483333Y-63516666D01*
X142416666Y-63483333D01*
X142350000Y-63416666D01*
X142316666Y-63316666D01*
X142316666Y-63250000D01*
X142350000Y-63150000D01*
X142383333Y-63116666D01*
X142616666Y-62716666D02*
X142583333Y-62783333D01*
X142550000Y-62816666D01*
X142483333Y-62850000D01*
X142450000Y-62850000D01*
X142383333Y-62816666D01*
X142350000Y-62783333D01*
X142316666Y-62716666D01*
X142316666Y-62583333D01*
X142350000Y-62516666D01*
X142383333Y-62483333D01*
X142450000Y-62450000D01*
X142483333Y-62450000D01*
X142550000Y-62483333D01*
X142583333Y-62516666D01*
X142616666Y-62583333D01*
X142616666Y-62716666D01*
X142650000Y-62783333D01*
X142683333Y-62816666D01*
X142750000Y-62850000D01*
X142883333Y-62850000D01*
X142950000Y-62816666D01*
X142983333Y-62783333D01*
X143016666Y-62716666D01*
X143016666Y-62583333D01*
X142983333Y-62516666D01*
X142950000Y-62483333D01*
X142883333Y-62450000D01*
X142750000Y-62450000D01*
X142683333Y-62483333D01*
X142650000Y-62516666D01*
X142616666Y-62583333D01*
X148850000Y-54516666D02*
X148883333Y-54550000D01*
X148916666Y-54650000D01*
X148916666Y-54716666D01*
X148883333Y-54816666D01*
X148816666Y-54883333D01*
X148750000Y-54916666D01*
X148616666Y-54950000D01*
X148516666Y-54950000D01*
X148383333Y-54916666D01*
X148316666Y-54883333D01*
X148250000Y-54816666D01*
X148216666Y-54716666D01*
X148216666Y-54650000D01*
X148250000Y-54550000D01*
X148283333Y-54516666D01*
X148916666Y-54183333D02*
X148916666Y-54050000D01*
X148883333Y-53983333D01*
X148850000Y-53950000D01*
X148750000Y-53883333D01*
X148616666Y-53850000D01*
X148350000Y-53850000D01*
X148283333Y-53883333D01*
X148250000Y-53916666D01*
X148216666Y-53983333D01*
X148216666Y-54116666D01*
X148250000Y-54183333D01*
X148283333Y-54216666D01*
X148350000Y-54250000D01*
X148516666Y-54250000D01*
X148583333Y-54216666D01*
X148616666Y-54183333D01*
X148650000Y-54116666D01*
X148650000Y-53983333D01*
X148616666Y-53916666D01*
X148583333Y-53883333D01*
X148516666Y-53850000D01*
X144050000Y-61250000D02*
X144083333Y-61283333D01*
X144116666Y-61383333D01*
X144116666Y-61450000D01*
X144083333Y-61550000D01*
X144016666Y-61616666D01*
X143950000Y-61650000D01*
X143816666Y-61683333D01*
X143716666Y-61683333D01*
X143583333Y-61650000D01*
X143516666Y-61616666D01*
X143450000Y-61550000D01*
X143416666Y-61450000D01*
X143416666Y-61383333D01*
X143450000Y-61283333D01*
X143483333Y-61250000D01*
X144116666Y-60583333D02*
X144116666Y-60983333D01*
X144116666Y-60783333D02*
X143416666Y-60783333D01*
X143516666Y-60850000D01*
X143583333Y-60916666D01*
X143616666Y-60983333D01*
X144116666Y-59916666D02*
X144116666Y-60316666D01*
X144116666Y-60116666D02*
X143416666Y-60116666D01*
X143516666Y-60183333D01*
X143583333Y-60250000D01*
X143616666Y-60316666D01*
X140450000Y-65350000D02*
X140483333Y-65383333D01*
X140516666Y-65483333D01*
X140516666Y-65550000D01*
X140483333Y-65650000D01*
X140416666Y-65716666D01*
X140350000Y-65750000D01*
X140216666Y-65783333D01*
X140116666Y-65783333D01*
X139983333Y-65750000D01*
X139916666Y-65716666D01*
X139850000Y-65650000D01*
X139816666Y-65550000D01*
X139816666Y-65483333D01*
X139850000Y-65383333D01*
X139883333Y-65350000D01*
X140516666Y-64683333D02*
X140516666Y-65083333D01*
X140516666Y-64883333D02*
X139816666Y-64883333D01*
X139916666Y-64950000D01*
X139983333Y-65016666D01*
X140016666Y-65083333D01*
X139883333Y-64416666D02*
X139850000Y-64383333D01*
X139816666Y-64316666D01*
X139816666Y-64150000D01*
X139850000Y-64083333D01*
X139883333Y-64050000D01*
X139950000Y-64016666D01*
X140016666Y-64016666D01*
X140116666Y-64050000D01*
X140516666Y-64450000D01*
X140516666Y-64016666D01*
X153050000Y-73550000D02*
X153016666Y-73583333D01*
X152916666Y-73616666D01*
X152850000Y-73616666D01*
X152750000Y-73583333D01*
X152683333Y-73516666D01*
X152650000Y-73450000D01*
X152616666Y-73316666D01*
X152616666Y-73216666D01*
X152650000Y-73083333D01*
X152683333Y-73016666D01*
X152750000Y-72950000D01*
X152850000Y-72916666D01*
X152916666Y-72916666D01*
X153016666Y-72950000D01*
X153050000Y-72983333D01*
X153716666Y-73616666D02*
X153316666Y-73616666D01*
X153516666Y-73616666D02*
X153516666Y-72916666D01*
X153450000Y-73016666D01*
X153383333Y-73083333D01*
X153316666Y-73116666D01*
X153950000Y-72916666D02*
X154383333Y-72916666D01*
X154150000Y-73183333D01*
X154250000Y-73183333D01*
X154316666Y-73216666D01*
X154350000Y-73250000D01*
X154383333Y-73316666D01*
X154383333Y-73483333D01*
X154350000Y-73550000D01*
X154316666Y-73583333D01*
X154250000Y-73616666D01*
X154050000Y-73616666D01*
X153983333Y-73583333D01*
X153950000Y-73550000D01*
X161750000Y-72550000D02*
X161716666Y-72583333D01*
X161616666Y-72616666D01*
X161550000Y-72616666D01*
X161450000Y-72583333D01*
X161383333Y-72516666D01*
X161350000Y-72450000D01*
X161316666Y-72316666D01*
X161316666Y-72216666D01*
X161350000Y-72083333D01*
X161383333Y-72016666D01*
X161450000Y-71950000D01*
X161550000Y-71916666D01*
X161616666Y-71916666D01*
X161716666Y-71950000D01*
X161750000Y-71983333D01*
X162416666Y-72616666D02*
X162016666Y-72616666D01*
X162216666Y-72616666D02*
X162216666Y-71916666D01*
X162150000Y-72016666D01*
X162083333Y-72083333D01*
X162016666Y-72116666D01*
X163016666Y-72150000D02*
X163016666Y-72616666D01*
X162850000Y-71883333D02*
X162683333Y-72383333D01*
X163116666Y-72383333D01*
X159950000Y-64450000D02*
X159916666Y-64483333D01*
X159816666Y-64516666D01*
X159750000Y-64516666D01*
X159650000Y-64483333D01*
X159583333Y-64416666D01*
X159550000Y-64350000D01*
X159516666Y-64216666D01*
X159516666Y-64116666D01*
X159550000Y-63983333D01*
X159583333Y-63916666D01*
X159650000Y-63850000D01*
X159750000Y-63816666D01*
X159816666Y-63816666D01*
X159916666Y-63850000D01*
X159950000Y-63883333D01*
X160616666Y-64516666D02*
X160216666Y-64516666D01*
X160416666Y-64516666D02*
X160416666Y-63816666D01*
X160350000Y-63916666D01*
X160283333Y-63983333D01*
X160216666Y-64016666D01*
X161250000Y-63816666D02*
X160916666Y-63816666D01*
X160883333Y-64150000D01*
X160916666Y-64116666D01*
X160983333Y-64083333D01*
X161150000Y-64083333D01*
X161216666Y-64116666D01*
X161250000Y-64150000D01*
X161283333Y-64216666D01*
X161283333Y-64383333D01*
X161250000Y-64450000D01*
X161216666Y-64483333D01*
X161150000Y-64516666D01*
X160983333Y-64516666D01*
X160916666Y-64483333D01*
X160883333Y-64450000D01*
X159950000Y-62950000D02*
X159916666Y-62983333D01*
X159816666Y-63016666D01*
X159750000Y-63016666D01*
X159650000Y-62983333D01*
X159583333Y-62916666D01*
X159550000Y-62850000D01*
X159516666Y-62716666D01*
X159516666Y-62616666D01*
X159550000Y-62483333D01*
X159583333Y-62416666D01*
X159650000Y-62350000D01*
X159750000Y-62316666D01*
X159816666Y-62316666D01*
X159916666Y-62350000D01*
X159950000Y-62383333D01*
X160616666Y-63016666D02*
X160216666Y-63016666D01*
X160416666Y-63016666D02*
X160416666Y-62316666D01*
X160350000Y-62416666D01*
X160283333Y-62483333D01*
X160216666Y-62516666D01*
X161216666Y-62316666D02*
X161083333Y-62316666D01*
X161016666Y-62350000D01*
X160983333Y-62383333D01*
X160916666Y-62483333D01*
X160883333Y-62616666D01*
X160883333Y-62883333D01*
X160916666Y-62950000D01*
X160950000Y-62983333D01*
X161016666Y-63016666D01*
X161150000Y-63016666D01*
X161216666Y-62983333D01*
X161250000Y-62950000D01*
X161283333Y-62883333D01*
X161283333Y-62716666D01*
X161250000Y-62650000D01*
X161216666Y-62616666D01*
X161150000Y-62583333D01*
X161016666Y-62583333D01*
X160950000Y-62616666D01*
X160916666Y-62650000D01*
X160883333Y-62716666D01*
X157450000Y-73750000D02*
X157416666Y-73783333D01*
X157316666Y-73816666D01*
X157250000Y-73816666D01*
X157150000Y-73783333D01*
X157083333Y-73716666D01*
X157050000Y-73650000D01*
X157016666Y-73516666D01*
X157016666Y-73416666D01*
X157050000Y-73283333D01*
X157083333Y-73216666D01*
X157150000Y-73150000D01*
X157250000Y-73116666D01*
X157316666Y-73116666D01*
X157416666Y-73150000D01*
X157450000Y-73183333D01*
X158116666Y-73816666D02*
X157716666Y-73816666D01*
X157916666Y-73816666D02*
X157916666Y-73116666D01*
X157850000Y-73216666D01*
X157783333Y-73283333D01*
X157716666Y-73316666D01*
X158350000Y-73116666D02*
X158816666Y-73116666D01*
X158516666Y-73816666D01*
X157450000Y-74650000D02*
X157416666Y-74683333D01*
X157316666Y-74716666D01*
X157250000Y-74716666D01*
X157150000Y-74683333D01*
X157083333Y-74616666D01*
X157050000Y-74550000D01*
X157016666Y-74416666D01*
X157016666Y-74316666D01*
X157050000Y-74183333D01*
X157083333Y-74116666D01*
X157150000Y-74050000D01*
X157250000Y-74016666D01*
X157316666Y-74016666D01*
X157416666Y-74050000D01*
X157450000Y-74083333D01*
X158116666Y-74716666D02*
X157716666Y-74716666D01*
X157916666Y-74716666D02*
X157916666Y-74016666D01*
X157850000Y-74116666D01*
X157783333Y-74183333D01*
X157716666Y-74216666D01*
X158516666Y-74316666D02*
X158450000Y-74283333D01*
X158416666Y-74250000D01*
X158383333Y-74183333D01*
X158383333Y-74150000D01*
X158416666Y-74083333D01*
X158450000Y-74050000D01*
X158516666Y-74016666D01*
X158650000Y-74016666D01*
X158716666Y-74050000D01*
X158750000Y-74083333D01*
X158783333Y-74150000D01*
X158783333Y-74183333D01*
X158750000Y-74250000D01*
X158716666Y-74283333D01*
X158650000Y-74316666D01*
X158516666Y-74316666D01*
X158450000Y-74350000D01*
X158416666Y-74383333D01*
X158383333Y-74450000D01*
X158383333Y-74583333D01*
X158416666Y-74650000D01*
X158450000Y-74683333D01*
X158516666Y-74716666D01*
X158650000Y-74716666D01*
X158716666Y-74683333D01*
X158750000Y-74650000D01*
X158783333Y-74583333D01*
X158783333Y-74450000D01*
X158750000Y-74383333D01*
X158716666Y-74350000D01*
X158650000Y-74316666D01*
X113950000Y-69050000D02*
X113983333Y-69083333D01*
X114016666Y-69183333D01*
X114016666Y-69250000D01*
X113983333Y-69350000D01*
X113916666Y-69416666D01*
X113850000Y-69450000D01*
X113716666Y-69483333D01*
X113616666Y-69483333D01*
X113483333Y-69450000D01*
X113416666Y-69416666D01*
X113350000Y-69350000D01*
X113316666Y-69250000D01*
X113316666Y-69183333D01*
X113350000Y-69083333D01*
X113383333Y-69050000D01*
X114016666Y-68383333D02*
X114016666Y-68783333D01*
X114016666Y-68583333D02*
X113316666Y-68583333D01*
X113416666Y-68650000D01*
X113483333Y-68716666D01*
X113516666Y-68783333D01*
X114016666Y-68050000D02*
X114016666Y-67916666D01*
X113983333Y-67850000D01*
X113950000Y-67816666D01*
X113850000Y-67750000D01*
X113716666Y-67716666D01*
X113450000Y-67716666D01*
X113383333Y-67750000D01*
X113350000Y-67783333D01*
X113316666Y-67850000D01*
X113316666Y-67983333D01*
X113350000Y-68050000D01*
X113383333Y-68083333D01*
X113450000Y-68116666D01*
X113616666Y-68116666D01*
X113683333Y-68083333D01*
X113716666Y-68050000D01*
X113750000Y-67983333D01*
X113750000Y-67850000D01*
X113716666Y-67783333D01*
X113683333Y-67750000D01*
X113616666Y-67716666D01*
X111950000Y-62950000D02*
X111916666Y-62983333D01*
X111816666Y-63016666D01*
X111750000Y-63016666D01*
X111650000Y-62983333D01*
X111583333Y-62916666D01*
X111550000Y-62850000D01*
X111516666Y-62716666D01*
X111516666Y-62616666D01*
X111550000Y-62483333D01*
X111583333Y-62416666D01*
X111650000Y-62350000D01*
X111750000Y-62316666D01*
X111816666Y-62316666D01*
X111916666Y-62350000D01*
X111950000Y-62383333D01*
X112216666Y-62383333D02*
X112250000Y-62350000D01*
X112316666Y-62316666D01*
X112483333Y-62316666D01*
X112550000Y-62350000D01*
X112583333Y-62383333D01*
X112616666Y-62450000D01*
X112616666Y-62516666D01*
X112583333Y-62616666D01*
X112183333Y-63016666D01*
X112616666Y-63016666D01*
X113050000Y-62316666D02*
X113116666Y-62316666D01*
X113183333Y-62350000D01*
X113216666Y-62383333D01*
X113250000Y-62450000D01*
X113283333Y-62583333D01*
X113283333Y-62750000D01*
X113250000Y-62883333D01*
X113216666Y-62950000D01*
X113183333Y-62983333D01*
X113116666Y-63016666D01*
X113050000Y-63016666D01*
X112983333Y-62983333D01*
X112950000Y-62950000D01*
X112916666Y-62883333D01*
X112883333Y-62750000D01*
X112883333Y-62583333D01*
X112916666Y-62450000D01*
X112950000Y-62383333D01*
X112983333Y-62350000D01*
X113050000Y-62316666D01*
X112350000Y-65150000D02*
X112383333Y-65183333D01*
X112416666Y-65283333D01*
X112416666Y-65350000D01*
X112383333Y-65450000D01*
X112316666Y-65516666D01*
X112250000Y-65550000D01*
X112116666Y-65583333D01*
X112016666Y-65583333D01*
X111883333Y-65550000D01*
X111816666Y-65516666D01*
X111750000Y-65450000D01*
X111716666Y-65350000D01*
X111716666Y-65283333D01*
X111750000Y-65183333D01*
X111783333Y-65150000D01*
X111783333Y-64883333D02*
X111750000Y-64850000D01*
X111716666Y-64783333D01*
X111716666Y-64616666D01*
X111750000Y-64550000D01*
X111783333Y-64516666D01*
X111850000Y-64483333D01*
X111916666Y-64483333D01*
X112016666Y-64516666D01*
X112416666Y-64916666D01*
X112416666Y-64483333D01*
X112416666Y-63816666D02*
X112416666Y-64216666D01*
X112416666Y-64016666D02*
X111716666Y-64016666D01*
X111816666Y-64083333D01*
X111883333Y-64150000D01*
X111916666Y-64216666D01*
X97850000Y-66900000D02*
X97883333Y-66933333D01*
X97916666Y-67033333D01*
X97916666Y-67100000D01*
X97883333Y-67200000D01*
X97816666Y-67266666D01*
X97750000Y-67300000D01*
X97616666Y-67333333D01*
X97516666Y-67333333D01*
X97383333Y-67300000D01*
X97316666Y-67266666D01*
X97250000Y-67200000D01*
X97216666Y-67100000D01*
X97216666Y-67033333D01*
X97250000Y-66933333D01*
X97283333Y-66900000D01*
X97283333Y-66633333D02*
X97250000Y-66600000D01*
X97216666Y-66533333D01*
X97216666Y-66366666D01*
X97250000Y-66300000D01*
X97283333Y-66266666D01*
X97350000Y-66233333D01*
X97416666Y-66233333D01*
X97516666Y-66266666D01*
X97916666Y-66666666D01*
X97916666Y-66233333D01*
X97283333Y-65966666D02*
X97250000Y-65933333D01*
X97216666Y-65866666D01*
X97216666Y-65700000D01*
X97250000Y-65633333D01*
X97283333Y-65600000D01*
X97350000Y-65566666D01*
X97416666Y-65566666D01*
X97516666Y-65600000D01*
X97916666Y-66000000D01*
X97916666Y-65566666D01*
X121850000Y-55550000D02*
X121816666Y-55583333D01*
X121716666Y-55616666D01*
X121650000Y-55616666D01*
X121550000Y-55583333D01*
X121483333Y-55516666D01*
X121450000Y-55450000D01*
X121416666Y-55316666D01*
X121416666Y-55216666D01*
X121450000Y-55083333D01*
X121483333Y-55016666D01*
X121550000Y-54950000D01*
X121650000Y-54916666D01*
X121716666Y-54916666D01*
X121816666Y-54950000D01*
X121850000Y-54983333D01*
X122116666Y-54983333D02*
X122150000Y-54950000D01*
X122216666Y-54916666D01*
X122383333Y-54916666D01*
X122450000Y-54950000D01*
X122483333Y-54983333D01*
X122516666Y-55050000D01*
X122516666Y-55116666D01*
X122483333Y-55216666D01*
X122083333Y-55616666D01*
X122516666Y-55616666D01*
X122750000Y-54916666D02*
X123183333Y-54916666D01*
X122950000Y-55183333D01*
X123050000Y-55183333D01*
X123116666Y-55216666D01*
X123150000Y-55250000D01*
X123183333Y-55316666D01*
X123183333Y-55483333D01*
X123150000Y-55550000D01*
X123116666Y-55583333D01*
X123050000Y-55616666D01*
X122850000Y-55616666D01*
X122783333Y-55583333D01*
X122750000Y-55550000D01*
X129050000Y-56750000D02*
X129083333Y-56783333D01*
X129116666Y-56883333D01*
X129116666Y-56950000D01*
X129083333Y-57050000D01*
X129016666Y-57116666D01*
X128950000Y-57150000D01*
X128816666Y-57183333D01*
X128716666Y-57183333D01*
X128583333Y-57150000D01*
X128516666Y-57116666D01*
X128450000Y-57050000D01*
X128416666Y-56950000D01*
X128416666Y-56883333D01*
X128450000Y-56783333D01*
X128483333Y-56750000D01*
X128483333Y-56483333D02*
X128450000Y-56450000D01*
X128416666Y-56383333D01*
X128416666Y-56216666D01*
X128450000Y-56150000D01*
X128483333Y-56116666D01*
X128550000Y-56083333D01*
X128616666Y-56083333D01*
X128716666Y-56116666D01*
X129116666Y-56516666D01*
X129116666Y-56083333D01*
X128650000Y-55483333D02*
X129116666Y-55483333D01*
X128383333Y-55650000D02*
X128883333Y-55816666D01*
X128883333Y-55383333D01*
X124650000Y-61050000D02*
X124616666Y-61083333D01*
X124516666Y-61116666D01*
X124450000Y-61116666D01*
X124350000Y-61083333D01*
X124283333Y-61016666D01*
X124250000Y-60950000D01*
X124216666Y-60816666D01*
X124216666Y-60716666D01*
X124250000Y-60583333D01*
X124283333Y-60516666D01*
X124350000Y-60450000D01*
X124450000Y-60416666D01*
X124516666Y-60416666D01*
X124616666Y-60450000D01*
X124650000Y-60483333D01*
X124916666Y-60483333D02*
X124950000Y-60450000D01*
X125016666Y-60416666D01*
X125183333Y-60416666D01*
X125250000Y-60450000D01*
X125283333Y-60483333D01*
X125316666Y-60550000D01*
X125316666Y-60616666D01*
X125283333Y-60716666D01*
X124883333Y-61116666D01*
X125316666Y-61116666D01*
X125950000Y-60416666D02*
X125616666Y-60416666D01*
X125583333Y-60750000D01*
X125616666Y-60716666D01*
X125683333Y-60683333D01*
X125850000Y-60683333D01*
X125916666Y-60716666D01*
X125950000Y-60750000D01*
X125983333Y-60816666D01*
X125983333Y-60983333D01*
X125950000Y-61050000D01*
X125916666Y-61083333D01*
X125850000Y-61116666D01*
X125683333Y-61116666D01*
X125616666Y-61083333D01*
X125583333Y-61050000D01*
X102950000Y-64750000D02*
X102983333Y-64783333D01*
X103016666Y-64883333D01*
X103016666Y-64950000D01*
X102983333Y-65050000D01*
X102916666Y-65116666D01*
X102850000Y-65150000D01*
X102716666Y-65183333D01*
X102616666Y-65183333D01*
X102483333Y-65150000D01*
X102416666Y-65116666D01*
X102350000Y-65050000D01*
X102316666Y-64950000D01*
X102316666Y-64883333D01*
X102350000Y-64783333D01*
X102383333Y-64750000D01*
X102383333Y-64483333D02*
X102350000Y-64450000D01*
X102316666Y-64383333D01*
X102316666Y-64216666D01*
X102350000Y-64150000D01*
X102383333Y-64116666D01*
X102450000Y-64083333D01*
X102516666Y-64083333D01*
X102616666Y-64116666D01*
X103016666Y-64516666D01*
X103016666Y-64083333D01*
X102316666Y-63483333D02*
X102316666Y-63616666D01*
X102350000Y-63683333D01*
X102383333Y-63716666D01*
X102483333Y-63783333D01*
X102616666Y-63816666D01*
X102883333Y-63816666D01*
X102950000Y-63783333D01*
X102983333Y-63750000D01*
X103016666Y-63683333D01*
X103016666Y-63550000D01*
X102983333Y-63483333D01*
X102950000Y-63450000D01*
X102883333Y-63416666D01*
X102716666Y-63416666D01*
X102650000Y-63450000D01*
X102616666Y-63483333D01*
X102583333Y-63550000D01*
X102583333Y-63683333D01*
X102616666Y-63750000D01*
X102650000Y-63783333D01*
X102716666Y-63816666D01*
X101850000Y-64750000D02*
X101883333Y-64783333D01*
X101916666Y-64883333D01*
X101916666Y-64950000D01*
X101883333Y-65050000D01*
X101816666Y-65116666D01*
X101750000Y-65150000D01*
X101616666Y-65183333D01*
X101516666Y-65183333D01*
X101383333Y-65150000D01*
X101316666Y-65116666D01*
X101250000Y-65050000D01*
X101216666Y-64950000D01*
X101216666Y-64883333D01*
X101250000Y-64783333D01*
X101283333Y-64750000D01*
X101283333Y-64483333D02*
X101250000Y-64450000D01*
X101216666Y-64383333D01*
X101216666Y-64216666D01*
X101250000Y-64150000D01*
X101283333Y-64116666D01*
X101350000Y-64083333D01*
X101416666Y-64083333D01*
X101516666Y-64116666D01*
X101916666Y-64516666D01*
X101916666Y-64083333D01*
X101216666Y-63850000D02*
X101216666Y-63383333D01*
X101916666Y-63683333D01*
X117850000Y-55150000D02*
X117883333Y-55183333D01*
X117916666Y-55283333D01*
X117916666Y-55350000D01*
X117883333Y-55450000D01*
X117816666Y-55516666D01*
X117750000Y-55550000D01*
X117616666Y-55583333D01*
X117516666Y-55583333D01*
X117383333Y-55550000D01*
X117316666Y-55516666D01*
X117250000Y-55450000D01*
X117216666Y-55350000D01*
X117216666Y-55283333D01*
X117250000Y-55183333D01*
X117283333Y-55150000D01*
X117283333Y-54883333D02*
X117250000Y-54850000D01*
X117216666Y-54783333D01*
X117216666Y-54616666D01*
X117250000Y-54550000D01*
X117283333Y-54516666D01*
X117350000Y-54483333D01*
X117416666Y-54483333D01*
X117516666Y-54516666D01*
X117916666Y-54916666D01*
X117916666Y-54483333D01*
X117516666Y-54083333D02*
X117483333Y-54150000D01*
X117450000Y-54183333D01*
X117383333Y-54216666D01*
X117350000Y-54216666D01*
X117283333Y-54183333D01*
X117250000Y-54150000D01*
X117216666Y-54083333D01*
X117216666Y-53950000D01*
X117250000Y-53883333D01*
X117283333Y-53850000D01*
X117350000Y-53816666D01*
X117383333Y-53816666D01*
X117450000Y-53850000D01*
X117483333Y-53883333D01*
X117516666Y-53950000D01*
X117516666Y-54083333D01*
X117550000Y-54150000D01*
X117583333Y-54183333D01*
X117650000Y-54216666D01*
X117783333Y-54216666D01*
X117850000Y-54183333D01*
X117883333Y-54150000D01*
X117916666Y-54083333D01*
X117916666Y-53950000D01*
X117883333Y-53883333D01*
X117850000Y-53850000D01*
X117783333Y-53816666D01*
X117650000Y-53816666D01*
X117583333Y-53850000D01*
X117550000Y-53883333D01*
X117516666Y-53950000D01*
X109250000Y-73450000D02*
X109283333Y-73483333D01*
X109316666Y-73583333D01*
X109316666Y-73650000D01*
X109283333Y-73750000D01*
X109216666Y-73816666D01*
X109150000Y-73850000D01*
X109016666Y-73883333D01*
X108916666Y-73883333D01*
X108783333Y-73850000D01*
X108716666Y-73816666D01*
X108650000Y-73750000D01*
X108616666Y-73650000D01*
X108616666Y-73583333D01*
X108650000Y-73483333D01*
X108683333Y-73450000D01*
X108683333Y-73183333D02*
X108650000Y-73150000D01*
X108616666Y-73083333D01*
X108616666Y-72916666D01*
X108650000Y-72850000D01*
X108683333Y-72816666D01*
X108750000Y-72783333D01*
X108816666Y-72783333D01*
X108916666Y-72816666D01*
X109316666Y-73216666D01*
X109316666Y-72783333D01*
X109316666Y-72450000D02*
X109316666Y-72316666D01*
X109283333Y-72250000D01*
X109250000Y-72216666D01*
X109150000Y-72150000D01*
X109016666Y-72116666D01*
X108750000Y-72116666D01*
X108683333Y-72150000D01*
X108650000Y-72183333D01*
X108616666Y-72250000D01*
X108616666Y-72383333D01*
X108650000Y-72450000D01*
X108683333Y-72483333D01*
X108750000Y-72516666D01*
X108916666Y-72516666D01*
X108983333Y-72483333D01*
X109016666Y-72450000D01*
X109050000Y-72383333D01*
X109050000Y-72250000D01*
X109016666Y-72183333D01*
X108983333Y-72150000D01*
X108916666Y-72116666D01*
X110550000Y-67850000D02*
X110516666Y-67883333D01*
X110416666Y-67916666D01*
X110350000Y-67916666D01*
X110250000Y-67883333D01*
X110183333Y-67816666D01*
X110150000Y-67750000D01*
X110116666Y-67616666D01*
X110116666Y-67516666D01*
X110150000Y-67383333D01*
X110183333Y-67316666D01*
X110250000Y-67250000D01*
X110350000Y-67216666D01*
X110416666Y-67216666D01*
X110516666Y-67250000D01*
X110550000Y-67283333D01*
X110783333Y-67216666D02*
X111216666Y-67216666D01*
X110983333Y-67483333D01*
X111083333Y-67483333D01*
X111150000Y-67516666D01*
X111183333Y-67550000D01*
X111216666Y-67616666D01*
X111216666Y-67783333D01*
X111183333Y-67850000D01*
X111150000Y-67883333D01*
X111083333Y-67916666D01*
X110883333Y-67916666D01*
X110816666Y-67883333D01*
X110783333Y-67850000D01*
X111650000Y-67216666D02*
X111716666Y-67216666D01*
X111783333Y-67250000D01*
X111816666Y-67283333D01*
X111850000Y-67350000D01*
X111883333Y-67483333D01*
X111883333Y-67650000D01*
X111850000Y-67783333D01*
X111816666Y-67850000D01*
X111783333Y-67883333D01*
X111716666Y-67916666D01*
X111650000Y-67916666D01*
X111583333Y-67883333D01*
X111550000Y-67850000D01*
X111516666Y-67783333D01*
X111483333Y-67650000D01*
X111483333Y-67483333D01*
X111516666Y-67350000D01*
X111550000Y-67283333D01*
X111583333Y-67250000D01*
X111650000Y-67216666D01*
X133850000Y-61550000D02*
X133816666Y-61583333D01*
X133716666Y-61616666D01*
X133650000Y-61616666D01*
X133550000Y-61583333D01*
X133483333Y-61516666D01*
X133450000Y-61450000D01*
X133416666Y-61316666D01*
X133416666Y-61216666D01*
X133450000Y-61083333D01*
X133483333Y-61016666D01*
X133550000Y-60950000D01*
X133650000Y-60916666D01*
X133716666Y-60916666D01*
X133816666Y-60950000D01*
X133850000Y-60983333D01*
X134083333Y-60916666D02*
X134516666Y-60916666D01*
X134283333Y-61183333D01*
X134383333Y-61183333D01*
X134450000Y-61216666D01*
X134483333Y-61250000D01*
X134516666Y-61316666D01*
X134516666Y-61483333D01*
X134483333Y-61550000D01*
X134450000Y-61583333D01*
X134383333Y-61616666D01*
X134183333Y-61616666D01*
X134116666Y-61583333D01*
X134083333Y-61550000D01*
X135183333Y-61616666D02*
X134783333Y-61616666D01*
X134983333Y-61616666D02*
X134983333Y-60916666D01*
X134916666Y-61016666D01*
X134850000Y-61083333D01*
X134783333Y-61116666D01*
X128150000Y-54850000D02*
X128183333Y-54883333D01*
X128216666Y-54983333D01*
X128216666Y-55050000D01*
X128183333Y-55150000D01*
X128116666Y-55216666D01*
X128050000Y-55250000D01*
X127916666Y-55283333D01*
X127816666Y-55283333D01*
X127683333Y-55250000D01*
X127616666Y-55216666D01*
X127550000Y-55150000D01*
X127516666Y-55050000D01*
X127516666Y-54983333D01*
X127550000Y-54883333D01*
X127583333Y-54850000D01*
X127516666Y-54616666D02*
X127516666Y-54183333D01*
X127783333Y-54416666D01*
X127783333Y-54316666D01*
X127816666Y-54250000D01*
X127850000Y-54216666D01*
X127916666Y-54183333D01*
X128083333Y-54183333D01*
X128150000Y-54216666D01*
X128183333Y-54250000D01*
X128216666Y-54316666D01*
X128216666Y-54516666D01*
X128183333Y-54583333D01*
X128150000Y-54616666D01*
X127583333Y-53916666D02*
X127550000Y-53883333D01*
X127516666Y-53816666D01*
X127516666Y-53650000D01*
X127550000Y-53583333D01*
X127583333Y-53550000D01*
X127650000Y-53516666D01*
X127716666Y-53516666D01*
X127816666Y-53550000D01*
X128216666Y-53950000D01*
X128216666Y-53516666D01*
X132025000Y-60900000D02*
X131991666Y-60933333D01*
X131891666Y-60966666D01*
X131825000Y-60966666D01*
X131725000Y-60933333D01*
X131658333Y-60866666D01*
X131625000Y-60800000D01*
X131591666Y-60666666D01*
X131591666Y-60566666D01*
X131625000Y-60433333D01*
X131658333Y-60366666D01*
X131725000Y-60300000D01*
X131825000Y-60266666D01*
X131891666Y-60266666D01*
X131991666Y-60300000D01*
X132025000Y-60333333D01*
X132258333Y-60266666D02*
X132691666Y-60266666D01*
X132458333Y-60533333D01*
X132558333Y-60533333D01*
X132625000Y-60566666D01*
X132658333Y-60600000D01*
X132691666Y-60666666D01*
X132691666Y-60833333D01*
X132658333Y-60900000D01*
X132625000Y-60933333D01*
X132558333Y-60966666D01*
X132358333Y-60966666D01*
X132291666Y-60933333D01*
X132258333Y-60900000D01*
X132925000Y-60266666D02*
X133358333Y-60266666D01*
X133125000Y-60533333D01*
X133225000Y-60533333D01*
X133291666Y-60566666D01*
X133325000Y-60600000D01*
X133358333Y-60666666D01*
X133358333Y-60833333D01*
X133325000Y-60900000D01*
X133291666Y-60933333D01*
X133225000Y-60966666D01*
X133025000Y-60966666D01*
X132958333Y-60933333D01*
X132925000Y-60900000D01*
X102450000Y-58250000D02*
X102483333Y-58283333D01*
X102516666Y-58383333D01*
X102516666Y-58450000D01*
X102483333Y-58550000D01*
X102416666Y-58616666D01*
X102350000Y-58650000D01*
X102216666Y-58683333D01*
X102116666Y-58683333D01*
X101983333Y-58650000D01*
X101916666Y-58616666D01*
X101850000Y-58550000D01*
X101816666Y-58450000D01*
X101816666Y-58383333D01*
X101850000Y-58283333D01*
X101883333Y-58250000D01*
X101816666Y-58016666D02*
X101816666Y-57583333D01*
X102083333Y-57816666D01*
X102083333Y-57716666D01*
X102116666Y-57650000D01*
X102150000Y-57616666D01*
X102216666Y-57583333D01*
X102383333Y-57583333D01*
X102450000Y-57616666D01*
X102483333Y-57650000D01*
X102516666Y-57716666D01*
X102516666Y-57916666D01*
X102483333Y-57983333D01*
X102450000Y-58016666D01*
X102050000Y-56983333D02*
X102516666Y-56983333D01*
X101783333Y-57150000D02*
X102283333Y-57316666D01*
X102283333Y-56883333D01*
X133650000Y-74450000D02*
X133683333Y-74483333D01*
X133716666Y-74583333D01*
X133716666Y-74650000D01*
X133683333Y-74750000D01*
X133616666Y-74816666D01*
X133550000Y-74850000D01*
X133416666Y-74883333D01*
X133316666Y-74883333D01*
X133183333Y-74850000D01*
X133116666Y-74816666D01*
X133050000Y-74750000D01*
X133016666Y-74650000D01*
X133016666Y-74583333D01*
X133050000Y-74483333D01*
X133083333Y-74450000D01*
X133016666Y-74216666D02*
X133016666Y-73783333D01*
X133283333Y-74016666D01*
X133283333Y-73916666D01*
X133316666Y-73850000D01*
X133350000Y-73816666D01*
X133416666Y-73783333D01*
X133583333Y-73783333D01*
X133650000Y-73816666D01*
X133683333Y-73850000D01*
X133716666Y-73916666D01*
X133716666Y-74116666D01*
X133683333Y-74183333D01*
X133650000Y-74216666D01*
X133016666Y-73150000D02*
X133016666Y-73483333D01*
X133350000Y-73516666D01*
X133316666Y-73483333D01*
X133283333Y-73416666D01*
X133283333Y-73250000D01*
X133316666Y-73183333D01*
X133350000Y-73150000D01*
X133416666Y-73116666D01*
X133583333Y-73116666D01*
X133650000Y-73150000D01*
X133683333Y-73183333D01*
X133716666Y-73250000D01*
X133716666Y-73416666D01*
X133683333Y-73483333D01*
X133650000Y-73516666D01*
X108050000Y-57875000D02*
X108083333Y-57908333D01*
X108116666Y-58008333D01*
X108116666Y-58075000D01*
X108083333Y-58175000D01*
X108016666Y-58241666D01*
X107950000Y-58275000D01*
X107816666Y-58308333D01*
X107716666Y-58308333D01*
X107583333Y-58275000D01*
X107516666Y-58241666D01*
X107450000Y-58175000D01*
X107416666Y-58075000D01*
X107416666Y-58008333D01*
X107450000Y-57908333D01*
X107483333Y-57875000D01*
X107416666Y-57641666D02*
X107416666Y-57208333D01*
X107683333Y-57441666D01*
X107683333Y-57341666D01*
X107716666Y-57275000D01*
X107750000Y-57241666D01*
X107816666Y-57208333D01*
X107983333Y-57208333D01*
X108050000Y-57241666D01*
X108083333Y-57275000D01*
X108116666Y-57341666D01*
X108116666Y-57541666D01*
X108083333Y-57608333D01*
X108050000Y-57641666D01*
X107416666Y-56608333D02*
X107416666Y-56741666D01*
X107450000Y-56808333D01*
X107483333Y-56841666D01*
X107583333Y-56908333D01*
X107716666Y-56941666D01*
X107983333Y-56941666D01*
X108050000Y-56908333D01*
X108083333Y-56875000D01*
X108116666Y-56808333D01*
X108116666Y-56675000D01*
X108083333Y-56608333D01*
X108050000Y-56575000D01*
X107983333Y-56541666D01*
X107816666Y-56541666D01*
X107750000Y-56575000D01*
X107716666Y-56608333D01*
X107683333Y-56675000D01*
X107683333Y-56808333D01*
X107716666Y-56875000D01*
X107750000Y-56908333D01*
X107816666Y-56941666D01*
X116350000Y-74650000D02*
X116316666Y-74683333D01*
X116216666Y-74716666D01*
X116150000Y-74716666D01*
X116050000Y-74683333D01*
X115983333Y-74616666D01*
X115950000Y-74550000D01*
X115916666Y-74416666D01*
X115916666Y-74316666D01*
X115950000Y-74183333D01*
X115983333Y-74116666D01*
X116050000Y-74050000D01*
X116150000Y-74016666D01*
X116216666Y-74016666D01*
X116316666Y-74050000D01*
X116350000Y-74083333D01*
X116583333Y-74016666D02*
X117016666Y-74016666D01*
X116783333Y-74283333D01*
X116883333Y-74283333D01*
X116950000Y-74316666D01*
X116983333Y-74350000D01*
X117016666Y-74416666D01*
X117016666Y-74583333D01*
X116983333Y-74650000D01*
X116950000Y-74683333D01*
X116883333Y-74716666D01*
X116683333Y-74716666D01*
X116616666Y-74683333D01*
X116583333Y-74650000D01*
X117250000Y-74016666D02*
X117716666Y-74016666D01*
X117416666Y-74716666D01*
X129250000Y-76750000D02*
X129283333Y-76783333D01*
X129316666Y-76883333D01*
X129316666Y-76950000D01*
X129283333Y-77050000D01*
X129216666Y-77116666D01*
X129150000Y-77150000D01*
X129016666Y-77183333D01*
X128916666Y-77183333D01*
X128783333Y-77150000D01*
X128716666Y-77116666D01*
X128650000Y-77050000D01*
X128616666Y-76950000D01*
X128616666Y-76883333D01*
X128650000Y-76783333D01*
X128683333Y-76750000D01*
X128616666Y-76516666D02*
X128616666Y-76083333D01*
X128883333Y-76316666D01*
X128883333Y-76216666D01*
X128916666Y-76150000D01*
X128950000Y-76116666D01*
X129016666Y-76083333D01*
X129183333Y-76083333D01*
X129250000Y-76116666D01*
X129283333Y-76150000D01*
X129316666Y-76216666D01*
X129316666Y-76416666D01*
X129283333Y-76483333D01*
X129250000Y-76516666D01*
X128916666Y-75683333D02*
X128883333Y-75750000D01*
X128850000Y-75783333D01*
X128783333Y-75816666D01*
X128750000Y-75816666D01*
X128683333Y-75783333D01*
X128650000Y-75750000D01*
X128616666Y-75683333D01*
X128616666Y-75550000D01*
X128650000Y-75483333D01*
X128683333Y-75450000D01*
X128750000Y-75416666D01*
X128783333Y-75416666D01*
X128850000Y-75450000D01*
X128883333Y-75483333D01*
X128916666Y-75550000D01*
X128916666Y-75683333D01*
X128950000Y-75750000D01*
X128983333Y-75783333D01*
X129050000Y-75816666D01*
X129183333Y-75816666D01*
X129250000Y-75783333D01*
X129283333Y-75750000D01*
X129316666Y-75683333D01*
X129316666Y-75550000D01*
X129283333Y-75483333D01*
X129250000Y-75450000D01*
X129183333Y-75416666D01*
X129050000Y-75416666D01*
X128983333Y-75450000D01*
X128950000Y-75483333D01*
X128916666Y-75550000D01*
X127250000Y-73250000D02*
X127216666Y-73283333D01*
X127116666Y-73316666D01*
X127050000Y-73316666D01*
X126950000Y-73283333D01*
X126883333Y-73216666D01*
X126850000Y-73150000D01*
X126816666Y-73016666D01*
X126816666Y-72916666D01*
X126850000Y-72783333D01*
X126883333Y-72716666D01*
X126950000Y-72650000D01*
X127050000Y-72616666D01*
X127116666Y-72616666D01*
X127216666Y-72650000D01*
X127250000Y-72683333D01*
X127483333Y-72616666D02*
X127916666Y-72616666D01*
X127683333Y-72883333D01*
X127783333Y-72883333D01*
X127850000Y-72916666D01*
X127883333Y-72950000D01*
X127916666Y-73016666D01*
X127916666Y-73183333D01*
X127883333Y-73250000D01*
X127850000Y-73283333D01*
X127783333Y-73316666D01*
X127583333Y-73316666D01*
X127516666Y-73283333D01*
X127483333Y-73250000D01*
X128250000Y-73316666D02*
X128383333Y-73316666D01*
X128450000Y-73283333D01*
X128483333Y-73250000D01*
X128550000Y-73150000D01*
X128583333Y-73016666D01*
X128583333Y-72750000D01*
X128550000Y-72683333D01*
X128516666Y-72650000D01*
X128450000Y-72616666D01*
X128316666Y-72616666D01*
X128250000Y-72650000D01*
X128216666Y-72683333D01*
X128183333Y-72750000D01*
X128183333Y-72916666D01*
X128216666Y-72983333D01*
X128250000Y-73016666D01*
X128316666Y-73050000D01*
X128450000Y-73050000D01*
X128516666Y-73016666D01*
X128550000Y-72983333D01*
X128583333Y-72916666D01*
X124350000Y-88650000D02*
X124316666Y-88683333D01*
X124216666Y-88716666D01*
X124150000Y-88716666D01*
X124050000Y-88683333D01*
X123983333Y-88616666D01*
X123950000Y-88550000D01*
X123916666Y-88416666D01*
X123916666Y-88316666D01*
X123950000Y-88183333D01*
X123983333Y-88116666D01*
X124050000Y-88050000D01*
X124150000Y-88016666D01*
X124216666Y-88016666D01*
X124316666Y-88050000D01*
X124350000Y-88083333D01*
X124950000Y-88250000D02*
X124950000Y-88716666D01*
X124783333Y-87983333D02*
X124616666Y-88483333D01*
X125050000Y-88483333D01*
X125450000Y-88016666D02*
X125516666Y-88016666D01*
X125583333Y-88050000D01*
X125616666Y-88083333D01*
X125650000Y-88150000D01*
X125683333Y-88283333D01*
X125683333Y-88450000D01*
X125650000Y-88583333D01*
X125616666Y-88650000D01*
X125583333Y-88683333D01*
X125516666Y-88716666D01*
X125450000Y-88716666D01*
X125383333Y-88683333D01*
X125350000Y-88650000D01*
X125316666Y-88583333D01*
X125283333Y-88450000D01*
X125283333Y-88283333D01*
X125316666Y-88150000D01*
X125350000Y-88083333D01*
X125383333Y-88050000D01*
X125450000Y-88016666D01*
X127450000Y-86350000D02*
X127416666Y-86383333D01*
X127316666Y-86416666D01*
X127250000Y-86416666D01*
X127150000Y-86383333D01*
X127083333Y-86316666D01*
X127050000Y-86250000D01*
X127016666Y-86116666D01*
X127016666Y-86016666D01*
X127050000Y-85883333D01*
X127083333Y-85816666D01*
X127150000Y-85750000D01*
X127250000Y-85716666D01*
X127316666Y-85716666D01*
X127416666Y-85750000D01*
X127450000Y-85783333D01*
X128050000Y-85950000D02*
X128050000Y-86416666D01*
X127883333Y-85683333D02*
X127716666Y-86183333D01*
X128150000Y-86183333D01*
X128783333Y-86416666D02*
X128383333Y-86416666D01*
X128583333Y-86416666D02*
X128583333Y-85716666D01*
X128516666Y-85816666D01*
X128450000Y-85883333D01*
X128383333Y-85916666D01*
X124050000Y-76850000D02*
X124083333Y-76883333D01*
X124116666Y-76983333D01*
X124116666Y-77050000D01*
X124083333Y-77150000D01*
X124016666Y-77216666D01*
X123950000Y-77250000D01*
X123816666Y-77283333D01*
X123716666Y-77283333D01*
X123583333Y-77250000D01*
X123516666Y-77216666D01*
X123450000Y-77150000D01*
X123416666Y-77050000D01*
X123416666Y-76983333D01*
X123450000Y-76883333D01*
X123483333Y-76850000D01*
X123650000Y-76250000D02*
X124116666Y-76250000D01*
X123383333Y-76416666D02*
X123883333Y-76583333D01*
X123883333Y-76150000D01*
X123483333Y-75916666D02*
X123450000Y-75883333D01*
X123416666Y-75816666D01*
X123416666Y-75650000D01*
X123450000Y-75583333D01*
X123483333Y-75550000D01*
X123550000Y-75516666D01*
X123616666Y-75516666D01*
X123716666Y-75550000D01*
X124116666Y-75950000D01*
X124116666Y-75516666D01*
X119350000Y-72350000D02*
X119316666Y-72383333D01*
X119216666Y-72416666D01*
X119150000Y-72416666D01*
X119050000Y-72383333D01*
X118983333Y-72316666D01*
X118950000Y-72250000D01*
X118916666Y-72116666D01*
X118916666Y-72016666D01*
X118950000Y-71883333D01*
X118983333Y-71816666D01*
X119050000Y-71750000D01*
X119150000Y-71716666D01*
X119216666Y-71716666D01*
X119316666Y-71750000D01*
X119350000Y-71783333D01*
X119950000Y-71950000D02*
X119950000Y-72416666D01*
X119783333Y-71683333D02*
X119616666Y-72183333D01*
X120050000Y-72183333D01*
X120250000Y-71716666D02*
X120683333Y-71716666D01*
X120450000Y-71983333D01*
X120550000Y-71983333D01*
X120616666Y-72016666D01*
X120650000Y-72050000D01*
X120683333Y-72116666D01*
X120683333Y-72283333D01*
X120650000Y-72350000D01*
X120616666Y-72383333D01*
X120550000Y-72416666D01*
X120350000Y-72416666D01*
X120283333Y-72383333D01*
X120250000Y-72350000D01*
X124950000Y-83350000D02*
X124983333Y-83383333D01*
X125016666Y-83483333D01*
X125016666Y-83550000D01*
X124983333Y-83650000D01*
X124916666Y-83716666D01*
X124850000Y-83750000D01*
X124716666Y-83783333D01*
X124616666Y-83783333D01*
X124483333Y-83750000D01*
X124416666Y-83716666D01*
X124350000Y-83650000D01*
X124316666Y-83550000D01*
X124316666Y-83483333D01*
X124350000Y-83383333D01*
X124383333Y-83350000D01*
X124550000Y-82750000D02*
X125016666Y-82750000D01*
X124283333Y-82916666D02*
X124783333Y-83083333D01*
X124783333Y-82650000D01*
X124550000Y-82083333D02*
X125016666Y-82083333D01*
X124283333Y-82250000D02*
X124783333Y-82416666D01*
X124783333Y-81983333D01*
X119350000Y-76350000D02*
X119383333Y-76383333D01*
X119416666Y-76483333D01*
X119416666Y-76550000D01*
X119383333Y-76650000D01*
X119316666Y-76716666D01*
X119250000Y-76750000D01*
X119116666Y-76783333D01*
X119016666Y-76783333D01*
X118883333Y-76750000D01*
X118816666Y-76716666D01*
X118750000Y-76650000D01*
X118716666Y-76550000D01*
X118716666Y-76483333D01*
X118750000Y-76383333D01*
X118783333Y-76350000D01*
X118950000Y-75750000D02*
X119416666Y-75750000D01*
X118683333Y-75916666D02*
X119183333Y-76083333D01*
X119183333Y-75650000D01*
X118716666Y-75050000D02*
X118716666Y-75383333D01*
X119050000Y-75416666D01*
X119016666Y-75383333D01*
X118983333Y-75316666D01*
X118983333Y-75150000D01*
X119016666Y-75083333D01*
X119050000Y-75050000D01*
X119116666Y-75016666D01*
X119283333Y-75016666D01*
X119350000Y-75050000D01*
X119383333Y-75083333D01*
X119416666Y-75150000D01*
X119416666Y-75316666D01*
X119383333Y-75383333D01*
X119350000Y-75416666D01*
X119750000Y-97650000D02*
X119783333Y-97683333D01*
X119816666Y-97783333D01*
X119816666Y-97850000D01*
X119783333Y-97950000D01*
X119716666Y-98016666D01*
X119650000Y-98050000D01*
X119516666Y-98083333D01*
X119416666Y-98083333D01*
X119283333Y-98050000D01*
X119216666Y-98016666D01*
X119150000Y-97950000D01*
X119116666Y-97850000D01*
X119116666Y-97783333D01*
X119150000Y-97683333D01*
X119183333Y-97650000D01*
X119350000Y-97050000D02*
X119816666Y-97050000D01*
X119083333Y-97216666D02*
X119583333Y-97383333D01*
X119583333Y-96950000D01*
X119116666Y-96383333D02*
X119116666Y-96516666D01*
X119150000Y-96583333D01*
X119183333Y-96616666D01*
X119283333Y-96683333D01*
X119416666Y-96716666D01*
X119683333Y-96716666D01*
X119750000Y-96683333D01*
X119783333Y-96650000D01*
X119816666Y-96583333D01*
X119816666Y-96450000D01*
X119783333Y-96383333D01*
X119750000Y-96350000D01*
X119683333Y-96316666D01*
X119516666Y-96316666D01*
X119450000Y-96350000D01*
X119416666Y-96383333D01*
X119383333Y-96450000D01*
X119383333Y-96583333D01*
X119416666Y-96650000D01*
X119450000Y-96683333D01*
X119516666Y-96716666D01*
X113450000Y-96450000D02*
X113483333Y-96483333D01*
X113516666Y-96583333D01*
X113516666Y-96650000D01*
X113483333Y-96750000D01*
X113416666Y-96816666D01*
X113350000Y-96850000D01*
X113216666Y-96883333D01*
X113116666Y-96883333D01*
X112983333Y-96850000D01*
X112916666Y-96816666D01*
X112850000Y-96750000D01*
X112816666Y-96650000D01*
X112816666Y-96583333D01*
X112850000Y-96483333D01*
X112883333Y-96450000D01*
X113050000Y-95850000D02*
X113516666Y-95850000D01*
X112783333Y-96016666D02*
X113283333Y-96183333D01*
X113283333Y-95750000D01*
X112816666Y-95550000D02*
X112816666Y-95083333D01*
X113516666Y-95383333D01*
X114850000Y-99150000D02*
X114883333Y-99183333D01*
X114916666Y-99283333D01*
X114916666Y-99350000D01*
X114883333Y-99450000D01*
X114816666Y-99516666D01*
X114750000Y-99550000D01*
X114616666Y-99583333D01*
X114516666Y-99583333D01*
X114383333Y-99550000D01*
X114316666Y-99516666D01*
X114250000Y-99450000D01*
X114216666Y-99350000D01*
X114216666Y-99283333D01*
X114250000Y-99183333D01*
X114283333Y-99150000D01*
X114450000Y-98550000D02*
X114916666Y-98550000D01*
X114183333Y-98716666D02*
X114683333Y-98883333D01*
X114683333Y-98450000D01*
X114516666Y-98083333D02*
X114483333Y-98150000D01*
X114450000Y-98183333D01*
X114383333Y-98216666D01*
X114350000Y-98216666D01*
X114283333Y-98183333D01*
X114250000Y-98150000D01*
X114216666Y-98083333D01*
X114216666Y-97950000D01*
X114250000Y-97883333D01*
X114283333Y-97850000D01*
X114350000Y-97816666D01*
X114383333Y-97816666D01*
X114450000Y-97850000D01*
X114483333Y-97883333D01*
X114516666Y-97950000D01*
X114516666Y-98083333D01*
X114550000Y-98150000D01*
X114583333Y-98183333D01*
X114650000Y-98216666D01*
X114783333Y-98216666D01*
X114850000Y-98183333D01*
X114883333Y-98150000D01*
X114916666Y-98083333D01*
X114916666Y-97950000D01*
X114883333Y-97883333D01*
X114850000Y-97850000D01*
X114783333Y-97816666D01*
X114650000Y-97816666D01*
X114583333Y-97850000D01*
X114550000Y-97883333D01*
X114516666Y-97950000D01*
X154550000Y-91150000D02*
X154583333Y-91183333D01*
X154616666Y-91283333D01*
X154616666Y-91350000D01*
X154583333Y-91450000D01*
X154516666Y-91516666D01*
X154450000Y-91550000D01*
X154316666Y-91583333D01*
X154216666Y-91583333D01*
X154083333Y-91550000D01*
X154016666Y-91516666D01*
X153950000Y-91450000D01*
X153916666Y-91350000D01*
X153916666Y-91283333D01*
X153950000Y-91183333D01*
X153983333Y-91150000D01*
X154150000Y-90550000D02*
X154616666Y-90550000D01*
X153883333Y-90716666D02*
X154383333Y-90883333D01*
X154383333Y-90450000D01*
X154616666Y-90150000D02*
X154616666Y-90016666D01*
X154583333Y-89950000D01*
X154550000Y-89916666D01*
X154450000Y-89850000D01*
X154316666Y-89816666D01*
X154050000Y-89816666D01*
X153983333Y-89850000D01*
X153950000Y-89883333D01*
X153916666Y-89950000D01*
X153916666Y-90083333D01*
X153950000Y-90150000D01*
X153983333Y-90183333D01*
X154050000Y-90216666D01*
X154216666Y-90216666D01*
X154283333Y-90183333D01*
X154316666Y-90150000D01*
X154350000Y-90083333D01*
X154350000Y-89950000D01*
X154316666Y-89883333D01*
X154283333Y-89850000D01*
X154216666Y-89816666D01*
X87216666Y-82016666D02*
X86516666Y-82016666D01*
X86516666Y-81850000D01*
X86550000Y-81750000D01*
X86616666Y-81683333D01*
X86683333Y-81650000D01*
X86816666Y-81616666D01*
X86916666Y-81616666D01*
X87050000Y-81650000D01*
X87116666Y-81683333D01*
X87183333Y-81750000D01*
X87216666Y-81850000D01*
X87216666Y-82016666D01*
X87216666Y-80950000D02*
X87216666Y-81350000D01*
X87216666Y-81150000D02*
X86516666Y-81150000D01*
X86616666Y-81216666D01*
X86683333Y-81283333D01*
X86716666Y-81350000D01*
X114183333Y-54416666D02*
X114183333Y-53716666D01*
X114350000Y-53716666D01*
X114450000Y-53750000D01*
X114516666Y-53816666D01*
X114550000Y-53883333D01*
X114583333Y-54016666D01*
X114583333Y-54116666D01*
X114550000Y-54250000D01*
X114516666Y-54316666D01*
X114450000Y-54383333D01*
X114350000Y-54416666D01*
X114183333Y-54416666D01*
X114850000Y-53783333D02*
X114883333Y-53750000D01*
X114950000Y-53716666D01*
X115116666Y-53716666D01*
X115183333Y-53750000D01*
X115216666Y-53783333D01*
X115250000Y-53850000D01*
X115250000Y-53916666D01*
X115216666Y-54016666D01*
X114816666Y-54416666D01*
X115250000Y-54416666D01*
X131283333Y-64316666D02*
X131283333Y-63616666D01*
X131450000Y-63616666D01*
X131550000Y-63650000D01*
X131616666Y-63716666D01*
X131650000Y-63783333D01*
X131683333Y-63916666D01*
X131683333Y-64016666D01*
X131650000Y-64150000D01*
X131616666Y-64216666D01*
X131550000Y-64283333D01*
X131450000Y-64316666D01*
X131283333Y-64316666D01*
X131916666Y-63616666D02*
X132350000Y-63616666D01*
X132116666Y-63883333D01*
X132216666Y-63883333D01*
X132283333Y-63916666D01*
X132316666Y-63950000D01*
X132350000Y-64016666D01*
X132350000Y-64183333D01*
X132316666Y-64250000D01*
X132283333Y-64283333D01*
X132216666Y-64316666D01*
X132016666Y-64316666D01*
X131950000Y-64283333D01*
X131916666Y-64250000D01*
X157283333Y-84716666D02*
X157283333Y-84016666D01*
X157450000Y-84016666D01*
X157550000Y-84050000D01*
X157616666Y-84116666D01*
X157650000Y-84183333D01*
X157683333Y-84316666D01*
X157683333Y-84416666D01*
X157650000Y-84550000D01*
X157616666Y-84616666D01*
X157550000Y-84683333D01*
X157450000Y-84716666D01*
X157283333Y-84716666D01*
X158283333Y-84250000D02*
X158283333Y-84716666D01*
X158116666Y-83983333D02*
X157950000Y-84483333D01*
X158383333Y-84483333D01*
X166566666Y-62316666D02*
X166566666Y-62816666D01*
X166533333Y-62916666D01*
X166466666Y-62983333D01*
X166366666Y-63016666D01*
X166300000Y-63016666D01*
X167266666Y-63016666D02*
X166866666Y-63016666D01*
X167066666Y-63016666D02*
X167066666Y-62316666D01*
X167000000Y-62416666D01*
X166933333Y-62483333D01*
X166866666Y-62516666D01*
X166966666Y-87016666D02*
X166966666Y-87516666D01*
X166933333Y-87616666D01*
X166866666Y-87683333D01*
X166766666Y-87716666D01*
X166700000Y-87716666D01*
X167266666Y-87083333D02*
X167300000Y-87050000D01*
X167366666Y-87016666D01*
X167533333Y-87016666D01*
X167600000Y-87050000D01*
X167633333Y-87083333D01*
X167666666Y-87150000D01*
X167666666Y-87216666D01*
X167633333Y-87316666D01*
X167233333Y-87716666D01*
X167666666Y-87716666D01*
X103866666Y-77916666D02*
X103866666Y-78416666D01*
X103833333Y-78516666D01*
X103766666Y-78583333D01*
X103666666Y-78616666D01*
X103600000Y-78616666D01*
X104500000Y-78150000D02*
X104500000Y-78616666D01*
X104333333Y-77883333D02*
X104166666Y-78383333D01*
X104600000Y-78383333D01*
X106966666Y-77916666D02*
X106966666Y-78416666D01*
X106933333Y-78516666D01*
X106866666Y-78583333D01*
X106766666Y-78616666D01*
X106700000Y-78616666D01*
X107633333Y-77916666D02*
X107300000Y-77916666D01*
X107266666Y-78250000D01*
X107300000Y-78216666D01*
X107366666Y-78183333D01*
X107533333Y-78183333D01*
X107600000Y-78216666D01*
X107633333Y-78250000D01*
X107666666Y-78316666D01*
X107666666Y-78483333D01*
X107633333Y-78550000D01*
X107600000Y-78583333D01*
X107533333Y-78616666D01*
X107366666Y-78616666D01*
X107300000Y-78583333D01*
X107266666Y-78550000D01*
X112666666Y-71216666D02*
X112666666Y-71716666D01*
X112633333Y-71816666D01*
X112566666Y-71883333D01*
X112466666Y-71916666D01*
X112400000Y-71916666D01*
X113300000Y-71216666D02*
X113166666Y-71216666D01*
X113100000Y-71250000D01*
X113066666Y-71283333D01*
X113000000Y-71383333D01*
X112966666Y-71516666D01*
X112966666Y-71783333D01*
X113000000Y-71850000D01*
X113033333Y-71883333D01*
X113100000Y-71916666D01*
X113233333Y-71916666D01*
X113300000Y-71883333D01*
X113333333Y-71850000D01*
X113366666Y-71783333D01*
X113366666Y-71616666D01*
X113333333Y-71550000D01*
X113300000Y-71516666D01*
X113233333Y-71483333D01*
X113100000Y-71483333D01*
X113033333Y-71516666D01*
X113000000Y-71550000D01*
X112966666Y-71616666D01*
X110566666Y-77916666D02*
X110566666Y-78416666D01*
X110533333Y-78516666D01*
X110466666Y-78583333D01*
X110366666Y-78616666D01*
X110300000Y-78616666D01*
X110833333Y-77916666D02*
X111300000Y-77916666D01*
X111000000Y-78616666D01*
X114283333Y-59816666D02*
X113950000Y-59816666D01*
X113950000Y-59116666D01*
X114883333Y-59816666D02*
X114483333Y-59816666D01*
X114683333Y-59816666D02*
X114683333Y-59116666D01*
X114616666Y-59216666D01*
X114550000Y-59283333D01*
X114483333Y-59316666D01*
X131483333Y-67716666D02*
X131150000Y-67716666D01*
X131150000Y-67016666D01*
X131683333Y-67083333D02*
X131716666Y-67050000D01*
X131783333Y-67016666D01*
X131950000Y-67016666D01*
X132016666Y-67050000D01*
X132050000Y-67083333D01*
X132083333Y-67150000D01*
X132083333Y-67216666D01*
X132050000Y-67316666D01*
X131650000Y-67716666D01*
X132083333Y-67716666D01*
X106883333Y-64316666D02*
X106550000Y-64316666D01*
X106550000Y-63616666D01*
X107050000Y-63616666D02*
X107483333Y-63616666D01*
X107250000Y-63883333D01*
X107350000Y-63883333D01*
X107416666Y-63916666D01*
X107450000Y-63950000D01*
X107483333Y-64016666D01*
X107483333Y-64183333D01*
X107450000Y-64250000D01*
X107416666Y-64283333D01*
X107350000Y-64316666D01*
X107150000Y-64316666D01*
X107083333Y-64283333D01*
X107050000Y-64250000D01*
X132683333Y-80816666D02*
X132350000Y-80816666D01*
X132350000Y-80116666D01*
X133216666Y-80350000D02*
X133216666Y-80816666D01*
X133050000Y-80083333D02*
X132883333Y-80583333D01*
X133316666Y-80583333D01*
X119216666Y-81116666D02*
X119216666Y-81450000D01*
X118516666Y-81450000D01*
X118516666Y-80550000D02*
X118516666Y-80883333D01*
X118850000Y-80916666D01*
X118816666Y-80883333D01*
X118783333Y-80816666D01*
X118783333Y-80650000D01*
X118816666Y-80583333D01*
X118850000Y-80550000D01*
X118916666Y-80516666D01*
X119083333Y-80516666D01*
X119150000Y-80550000D01*
X119183333Y-80583333D01*
X119216666Y-80650000D01*
X119216666Y-80816666D01*
X119183333Y-80883333D01*
X119150000Y-80916666D01*
X158433333Y-88083333D02*
X158366666Y-88050000D01*
X158300000Y-87983333D01*
X158200000Y-87883333D01*
X158133333Y-87850000D01*
X158066666Y-87850000D01*
X158100000Y-88016666D02*
X158033333Y-87983333D01*
X157966666Y-87916666D01*
X157933333Y-87783333D01*
X157933333Y-87550000D01*
X157966666Y-87416666D01*
X158033333Y-87350000D01*
X158100000Y-87316666D01*
X158233333Y-87316666D01*
X158300000Y-87350000D01*
X158366666Y-87416666D01*
X158400000Y-87550000D01*
X158400000Y-87783333D01*
X158366666Y-87916666D01*
X158300000Y-87983333D01*
X158233333Y-88016666D01*
X158100000Y-88016666D01*
X159066666Y-88016666D02*
X158666666Y-88016666D01*
X158866666Y-88016666D02*
X158866666Y-87316666D01*
X158800000Y-87416666D01*
X158733333Y-87483333D01*
X158666666Y-87516666D01*
X117133333Y-79083333D02*
X117066666Y-79050000D01*
X117000000Y-78983333D01*
X116900000Y-78883333D01*
X116833333Y-78850000D01*
X116766666Y-78850000D01*
X116800000Y-79016666D02*
X116733333Y-78983333D01*
X116666666Y-78916666D01*
X116633333Y-78783333D01*
X116633333Y-78550000D01*
X116666666Y-78416666D01*
X116733333Y-78350000D01*
X116800000Y-78316666D01*
X116933333Y-78316666D01*
X117000000Y-78350000D01*
X117066666Y-78416666D01*
X117100000Y-78550000D01*
X117100000Y-78783333D01*
X117066666Y-78916666D01*
X117000000Y-78983333D01*
X116933333Y-79016666D01*
X116800000Y-79016666D01*
X117366666Y-78383333D02*
X117400000Y-78350000D01*
X117466666Y-78316666D01*
X117633333Y-78316666D01*
X117700000Y-78350000D01*
X117733333Y-78383333D01*
X117766666Y-78450000D01*
X117766666Y-78516666D01*
X117733333Y-78616666D01*
X117333333Y-79016666D01*
X117766666Y-79016666D01*
X164083333Y-57416666D02*
X163850000Y-57083333D01*
X163683333Y-57416666D02*
X163683333Y-56716666D01*
X163950000Y-56716666D01*
X164016666Y-56750000D01*
X164050000Y-56783333D01*
X164083333Y-56850000D01*
X164083333Y-56950000D01*
X164050000Y-57016666D01*
X164016666Y-57050000D01*
X163950000Y-57083333D01*
X163683333Y-57083333D01*
X164750000Y-57416666D02*
X164350000Y-57416666D01*
X164550000Y-57416666D02*
X164550000Y-56716666D01*
X164483333Y-56816666D01*
X164416666Y-56883333D01*
X164350000Y-56916666D01*
X159983333Y-54316666D02*
X159750000Y-53983333D01*
X159583333Y-54316666D02*
X159583333Y-53616666D01*
X159850000Y-53616666D01*
X159916666Y-53650000D01*
X159950000Y-53683333D01*
X159983333Y-53750000D01*
X159983333Y-53850000D01*
X159950000Y-53916666D01*
X159916666Y-53950000D01*
X159850000Y-53983333D01*
X159583333Y-53983333D01*
X160250000Y-53683333D02*
X160283333Y-53650000D01*
X160350000Y-53616666D01*
X160516666Y-53616666D01*
X160583333Y-53650000D01*
X160616666Y-53683333D01*
X160650000Y-53750000D01*
X160650000Y-53816666D01*
X160616666Y-53916666D01*
X160216666Y-54316666D01*
X160650000Y-54316666D01*
X160883333Y-60416666D02*
X160650000Y-60083333D01*
X160483333Y-60416666D02*
X160483333Y-59716666D01*
X160750000Y-59716666D01*
X160816666Y-59750000D01*
X160850000Y-59783333D01*
X160883333Y-59850000D01*
X160883333Y-59950000D01*
X160850000Y-60016666D01*
X160816666Y-60050000D01*
X160750000Y-60083333D01*
X160483333Y-60083333D01*
X161116666Y-59716666D02*
X161550000Y-59716666D01*
X161316666Y-59983333D01*
X161416666Y-59983333D01*
X161483333Y-60016666D01*
X161516666Y-60050000D01*
X161550000Y-60116666D01*
X161550000Y-60283333D01*
X161516666Y-60350000D01*
X161483333Y-60383333D01*
X161416666Y-60416666D01*
X161216666Y-60416666D01*
X161150000Y-60383333D01*
X161116666Y-60350000D01*
X159083333Y-56116666D02*
X158850000Y-55783333D01*
X158683333Y-56116666D02*
X158683333Y-55416666D01*
X158950000Y-55416666D01*
X159016666Y-55450000D01*
X159050000Y-55483333D01*
X159083333Y-55550000D01*
X159083333Y-55650000D01*
X159050000Y-55716666D01*
X159016666Y-55750000D01*
X158950000Y-55783333D01*
X158683333Y-55783333D01*
X159683333Y-55650000D02*
X159683333Y-56116666D01*
X159516666Y-55383333D02*
X159350000Y-55883333D01*
X159783333Y-55883333D01*
X157416666Y-61616666D02*
X157083333Y-61850000D01*
X157416666Y-62016666D02*
X156716666Y-62016666D01*
X156716666Y-61750000D01*
X156750000Y-61683333D01*
X156783333Y-61650000D01*
X156850000Y-61616666D01*
X156950000Y-61616666D01*
X157016666Y-61650000D01*
X157050000Y-61683333D01*
X157083333Y-61750000D01*
X157083333Y-62016666D01*
X156716666Y-60983333D02*
X156716666Y-61316666D01*
X157050000Y-61350000D01*
X157016666Y-61316666D01*
X156983333Y-61250000D01*
X156983333Y-61083333D01*
X157016666Y-61016666D01*
X157050000Y-60983333D01*
X157116666Y-60950000D01*
X157283333Y-60950000D01*
X157350000Y-60983333D01*
X157383333Y-61016666D01*
X157416666Y-61083333D01*
X157416666Y-61250000D01*
X157383333Y-61316666D01*
X157350000Y-61350000D01*
X155383333Y-62016666D02*
X155150000Y-61683333D01*
X154983333Y-62016666D02*
X154983333Y-61316666D01*
X155250000Y-61316666D01*
X155316666Y-61350000D01*
X155350000Y-61383333D01*
X155383333Y-61450000D01*
X155383333Y-61550000D01*
X155350000Y-61616666D01*
X155316666Y-61650000D01*
X155250000Y-61683333D01*
X154983333Y-61683333D01*
X155983333Y-61316666D02*
X155850000Y-61316666D01*
X155783333Y-61350000D01*
X155750000Y-61383333D01*
X155683333Y-61483333D01*
X155650000Y-61616666D01*
X155650000Y-61883333D01*
X155683333Y-61950000D01*
X155716666Y-61983333D01*
X155783333Y-62016666D01*
X155916666Y-62016666D01*
X155983333Y-61983333D01*
X156016666Y-61950000D01*
X156050000Y-61883333D01*
X156050000Y-61716666D01*
X156016666Y-61650000D01*
X155983333Y-61616666D01*
X155916666Y-61583333D01*
X155783333Y-61583333D01*
X155716666Y-61616666D01*
X155683333Y-61650000D01*
X155650000Y-61716666D01*
X143316666Y-70916666D02*
X142983333Y-71150000D01*
X143316666Y-71316666D02*
X142616666Y-71316666D01*
X142616666Y-71050000D01*
X142650000Y-70983333D01*
X142683333Y-70950000D01*
X142750000Y-70916666D01*
X142850000Y-70916666D01*
X142916666Y-70950000D01*
X142950000Y-70983333D01*
X142983333Y-71050000D01*
X142983333Y-71316666D01*
X142616666Y-70683333D02*
X142616666Y-70216666D01*
X143316666Y-70516666D01*
X141716666Y-70916666D02*
X141383333Y-71150000D01*
X141716666Y-71316666D02*
X141016666Y-71316666D01*
X141016666Y-71050000D01*
X141050000Y-70983333D01*
X141083333Y-70950000D01*
X141150000Y-70916666D01*
X141250000Y-70916666D01*
X141316666Y-70950000D01*
X141350000Y-70983333D01*
X141383333Y-71050000D01*
X141383333Y-71316666D01*
X141316666Y-70516666D02*
X141283333Y-70583333D01*
X141250000Y-70616666D01*
X141183333Y-70650000D01*
X141150000Y-70650000D01*
X141083333Y-70616666D01*
X141050000Y-70583333D01*
X141016666Y-70516666D01*
X141016666Y-70383333D01*
X141050000Y-70316666D01*
X141083333Y-70283333D01*
X141150000Y-70250000D01*
X141183333Y-70250000D01*
X141250000Y-70283333D01*
X141283333Y-70316666D01*
X141316666Y-70383333D01*
X141316666Y-70516666D01*
X141350000Y-70583333D01*
X141383333Y-70616666D01*
X141450000Y-70650000D01*
X141583333Y-70650000D01*
X141650000Y-70616666D01*
X141683333Y-70583333D01*
X141716666Y-70516666D01*
X141716666Y-70383333D01*
X141683333Y-70316666D01*
X141650000Y-70283333D01*
X141583333Y-70250000D01*
X141450000Y-70250000D01*
X141383333Y-70283333D01*
X141350000Y-70316666D01*
X141316666Y-70383333D01*
X141816666Y-62216666D02*
X141483333Y-62450000D01*
X141816666Y-62616666D02*
X141116666Y-62616666D01*
X141116666Y-62350000D01*
X141150000Y-62283333D01*
X141183333Y-62250000D01*
X141250000Y-62216666D01*
X141350000Y-62216666D01*
X141416666Y-62250000D01*
X141450000Y-62283333D01*
X141483333Y-62350000D01*
X141483333Y-62616666D01*
X141816666Y-61883333D02*
X141816666Y-61750000D01*
X141783333Y-61683333D01*
X141750000Y-61650000D01*
X141650000Y-61583333D01*
X141516666Y-61550000D01*
X141250000Y-61550000D01*
X141183333Y-61583333D01*
X141150000Y-61616666D01*
X141116666Y-61683333D01*
X141116666Y-61816666D01*
X141150000Y-61883333D01*
X141183333Y-61916666D01*
X141250000Y-61950000D01*
X141416666Y-61950000D01*
X141483333Y-61916666D01*
X141516666Y-61883333D01*
X141550000Y-61816666D01*
X141550000Y-61683333D01*
X141516666Y-61616666D01*
X141483333Y-61583333D01*
X141416666Y-61550000D01*
X140316666Y-55750000D02*
X139983333Y-55983333D01*
X140316666Y-56150000D02*
X139616666Y-56150000D01*
X139616666Y-55883333D01*
X139650000Y-55816666D01*
X139683333Y-55783333D01*
X139750000Y-55750000D01*
X139850000Y-55750000D01*
X139916666Y-55783333D01*
X139950000Y-55816666D01*
X139983333Y-55883333D01*
X139983333Y-56150000D01*
X140316666Y-55083333D02*
X140316666Y-55483333D01*
X140316666Y-55283333D02*
X139616666Y-55283333D01*
X139716666Y-55350000D01*
X139783333Y-55416666D01*
X139816666Y-55483333D01*
X139616666Y-54650000D02*
X139616666Y-54583333D01*
X139650000Y-54516666D01*
X139683333Y-54483333D01*
X139750000Y-54450000D01*
X139883333Y-54416666D01*
X140050000Y-54416666D01*
X140183333Y-54450000D01*
X140250000Y-54483333D01*
X140283333Y-54516666D01*
X140316666Y-54583333D01*
X140316666Y-54650000D01*
X140283333Y-54716666D01*
X140250000Y-54750000D01*
X140183333Y-54783333D01*
X140050000Y-54816666D01*
X139883333Y-54816666D01*
X139750000Y-54783333D01*
X139683333Y-54750000D01*
X139650000Y-54716666D01*
X139616666Y-54650000D01*
X146500000Y-71716666D02*
X146266666Y-71383333D01*
X146100000Y-71716666D02*
X146100000Y-71016666D01*
X146366666Y-71016666D01*
X146433333Y-71050000D01*
X146466666Y-71083333D01*
X146500000Y-71150000D01*
X146500000Y-71250000D01*
X146466666Y-71316666D01*
X146433333Y-71350000D01*
X146366666Y-71383333D01*
X146100000Y-71383333D01*
X147166666Y-71716666D02*
X146766666Y-71716666D01*
X146966666Y-71716666D02*
X146966666Y-71016666D01*
X146900000Y-71116666D01*
X146833333Y-71183333D01*
X146766666Y-71216666D01*
X147833333Y-71716666D02*
X147433333Y-71716666D01*
X147633333Y-71716666D02*
X147633333Y-71016666D01*
X147566666Y-71116666D01*
X147500000Y-71183333D01*
X147433333Y-71216666D01*
X149450000Y-69416666D02*
X149216666Y-69083333D01*
X149050000Y-69416666D02*
X149050000Y-68716666D01*
X149316666Y-68716666D01*
X149383333Y-68750000D01*
X149416666Y-68783333D01*
X149450000Y-68850000D01*
X149450000Y-68950000D01*
X149416666Y-69016666D01*
X149383333Y-69050000D01*
X149316666Y-69083333D01*
X149050000Y-69083333D01*
X150116666Y-69416666D02*
X149716666Y-69416666D01*
X149916666Y-69416666D02*
X149916666Y-68716666D01*
X149850000Y-68816666D01*
X149783333Y-68883333D01*
X149716666Y-68916666D01*
X150383333Y-68783333D02*
X150416666Y-68750000D01*
X150483333Y-68716666D01*
X150650000Y-68716666D01*
X150716666Y-68750000D01*
X150750000Y-68783333D01*
X150783333Y-68850000D01*
X150783333Y-68916666D01*
X150750000Y-69016666D01*
X150350000Y-69416666D01*
X150783333Y-69416666D01*
X141716666Y-55750000D02*
X141383333Y-55983333D01*
X141716666Y-56150000D02*
X141016666Y-56150000D01*
X141016666Y-55883333D01*
X141050000Y-55816666D01*
X141083333Y-55783333D01*
X141150000Y-55750000D01*
X141250000Y-55750000D01*
X141316666Y-55783333D01*
X141350000Y-55816666D01*
X141383333Y-55883333D01*
X141383333Y-56150000D01*
X141716666Y-55083333D02*
X141716666Y-55483333D01*
X141716666Y-55283333D02*
X141016666Y-55283333D01*
X141116666Y-55350000D01*
X141183333Y-55416666D01*
X141216666Y-55483333D01*
X141016666Y-54850000D02*
X141016666Y-54416666D01*
X141283333Y-54650000D01*
X141283333Y-54550000D01*
X141316666Y-54483333D01*
X141350000Y-54450000D01*
X141416666Y-54416666D01*
X141583333Y-54416666D01*
X141650000Y-54450000D01*
X141683333Y-54483333D01*
X141716666Y-54550000D01*
X141716666Y-54750000D01*
X141683333Y-54816666D01*
X141650000Y-54850000D01*
X142816666Y-54950000D02*
X142483333Y-55183333D01*
X142816666Y-55350000D02*
X142116666Y-55350000D01*
X142116666Y-55083333D01*
X142150000Y-55016666D01*
X142183333Y-54983333D01*
X142250000Y-54950000D01*
X142350000Y-54950000D01*
X142416666Y-54983333D01*
X142450000Y-55016666D01*
X142483333Y-55083333D01*
X142483333Y-55350000D01*
X142816666Y-54283333D02*
X142816666Y-54683333D01*
X142816666Y-54483333D02*
X142116666Y-54483333D01*
X142216666Y-54550000D01*
X142283333Y-54616666D01*
X142316666Y-54683333D01*
X142350000Y-53683333D02*
X142816666Y-53683333D01*
X142083333Y-53850000D02*
X142583333Y-54016666D01*
X142583333Y-53583333D01*
X148650000Y-65116666D02*
X148416666Y-64783333D01*
X148250000Y-65116666D02*
X148250000Y-64416666D01*
X148516666Y-64416666D01*
X148583333Y-64450000D01*
X148616666Y-64483333D01*
X148650000Y-64550000D01*
X148650000Y-64650000D01*
X148616666Y-64716666D01*
X148583333Y-64750000D01*
X148516666Y-64783333D01*
X148250000Y-64783333D01*
X149316666Y-65116666D02*
X148916666Y-65116666D01*
X149116666Y-65116666D02*
X149116666Y-64416666D01*
X149050000Y-64516666D01*
X148983333Y-64583333D01*
X148916666Y-64616666D01*
X149950000Y-64416666D02*
X149616666Y-64416666D01*
X149583333Y-64750000D01*
X149616666Y-64716666D01*
X149683333Y-64683333D01*
X149850000Y-64683333D01*
X149916666Y-64716666D01*
X149950000Y-64750000D01*
X149983333Y-64816666D01*
X149983333Y-64983333D01*
X149950000Y-65050000D01*
X149916666Y-65083333D01*
X149850000Y-65116666D01*
X149683333Y-65116666D01*
X149616666Y-65083333D01*
X149583333Y-65050000D01*
X146516666Y-60350000D02*
X146183333Y-60583333D01*
X146516666Y-60750000D02*
X145816666Y-60750000D01*
X145816666Y-60483333D01*
X145850000Y-60416666D01*
X145883333Y-60383333D01*
X145950000Y-60350000D01*
X146050000Y-60350000D01*
X146116666Y-60383333D01*
X146150000Y-60416666D01*
X146183333Y-60483333D01*
X146183333Y-60750000D01*
X146516666Y-59683333D02*
X146516666Y-60083333D01*
X146516666Y-59883333D02*
X145816666Y-59883333D01*
X145916666Y-59950000D01*
X145983333Y-60016666D01*
X146016666Y-60083333D01*
X145816666Y-59083333D02*
X145816666Y-59216666D01*
X145850000Y-59283333D01*
X145883333Y-59316666D01*
X145983333Y-59383333D01*
X146116666Y-59416666D01*
X146383333Y-59416666D01*
X146450000Y-59383333D01*
X146483333Y-59350000D01*
X146516666Y-59283333D01*
X146516666Y-59150000D01*
X146483333Y-59083333D01*
X146450000Y-59050000D01*
X146383333Y-59016666D01*
X146216666Y-59016666D01*
X146150000Y-59050000D01*
X146116666Y-59083333D01*
X146083333Y-59150000D01*
X146083333Y-59283333D01*
X146116666Y-59350000D01*
X146150000Y-59383333D01*
X146216666Y-59416666D01*
X145816666Y-55250000D02*
X145483333Y-55483333D01*
X145816666Y-55650000D02*
X145116666Y-55650000D01*
X145116666Y-55383333D01*
X145150000Y-55316666D01*
X145183333Y-55283333D01*
X145250000Y-55250000D01*
X145350000Y-55250000D01*
X145416666Y-55283333D01*
X145450000Y-55316666D01*
X145483333Y-55383333D01*
X145483333Y-55650000D01*
X145816666Y-54583333D02*
X145816666Y-54983333D01*
X145816666Y-54783333D02*
X145116666Y-54783333D01*
X145216666Y-54850000D01*
X145283333Y-54916666D01*
X145316666Y-54983333D01*
X145116666Y-54350000D02*
X145116666Y-53883333D01*
X145816666Y-54183333D01*
X152050000Y-66116666D02*
X151816666Y-65783333D01*
X151650000Y-66116666D02*
X151650000Y-65416666D01*
X151916666Y-65416666D01*
X151983333Y-65450000D01*
X152016666Y-65483333D01*
X152050000Y-65550000D01*
X152050000Y-65650000D01*
X152016666Y-65716666D01*
X151983333Y-65750000D01*
X151916666Y-65783333D01*
X151650000Y-65783333D01*
X152716666Y-66116666D02*
X152316666Y-66116666D01*
X152516666Y-66116666D02*
X152516666Y-65416666D01*
X152450000Y-65516666D01*
X152383333Y-65583333D01*
X152316666Y-65616666D01*
X153116666Y-65716666D02*
X153050000Y-65683333D01*
X153016666Y-65650000D01*
X152983333Y-65583333D01*
X152983333Y-65550000D01*
X153016666Y-65483333D01*
X153050000Y-65450000D01*
X153116666Y-65416666D01*
X153250000Y-65416666D01*
X153316666Y-65450000D01*
X153350000Y-65483333D01*
X153383333Y-65550000D01*
X153383333Y-65583333D01*
X153350000Y-65650000D01*
X153316666Y-65683333D01*
X153250000Y-65716666D01*
X153116666Y-65716666D01*
X153050000Y-65750000D01*
X153016666Y-65783333D01*
X152983333Y-65850000D01*
X152983333Y-65983333D01*
X153016666Y-66050000D01*
X153050000Y-66083333D01*
X153116666Y-66116666D01*
X153250000Y-66116666D01*
X153316666Y-66083333D01*
X153350000Y-66050000D01*
X153383333Y-65983333D01*
X153383333Y-65850000D01*
X153350000Y-65783333D01*
X153316666Y-65750000D01*
X153250000Y-65716666D01*
X153716666Y-69150000D02*
X153383333Y-69383333D01*
X153716666Y-69550000D02*
X153016666Y-69550000D01*
X153016666Y-69283333D01*
X153050000Y-69216666D01*
X153083333Y-69183333D01*
X153150000Y-69150000D01*
X153250000Y-69150000D01*
X153316666Y-69183333D01*
X153350000Y-69216666D01*
X153383333Y-69283333D01*
X153383333Y-69550000D01*
X153716666Y-68483333D02*
X153716666Y-68883333D01*
X153716666Y-68683333D02*
X153016666Y-68683333D01*
X153116666Y-68750000D01*
X153183333Y-68816666D01*
X153216666Y-68883333D01*
X153716666Y-68150000D02*
X153716666Y-68016666D01*
X153683333Y-67950000D01*
X153650000Y-67916666D01*
X153550000Y-67850000D01*
X153416666Y-67816666D01*
X153150000Y-67816666D01*
X153083333Y-67850000D01*
X153050000Y-67883333D01*
X153016666Y-67950000D01*
X153016666Y-68083333D01*
X153050000Y-68150000D01*
X153083333Y-68183333D01*
X153150000Y-68216666D01*
X153316666Y-68216666D01*
X153383333Y-68183333D01*
X153416666Y-68150000D01*
X153450000Y-68083333D01*
X153450000Y-67950000D01*
X153416666Y-67883333D01*
X153383333Y-67850000D01*
X153316666Y-67816666D01*
X154916666Y-64450000D02*
X154583333Y-64683333D01*
X154916666Y-64850000D02*
X154216666Y-64850000D01*
X154216666Y-64583333D01*
X154250000Y-64516666D01*
X154283333Y-64483333D01*
X154350000Y-64450000D01*
X154450000Y-64450000D01*
X154516666Y-64483333D01*
X154550000Y-64516666D01*
X154583333Y-64583333D01*
X154583333Y-64850000D01*
X154283333Y-64183333D02*
X154250000Y-64150000D01*
X154216666Y-64083333D01*
X154216666Y-63916666D01*
X154250000Y-63850000D01*
X154283333Y-63816666D01*
X154350000Y-63783333D01*
X154416666Y-63783333D01*
X154516666Y-63816666D01*
X154916666Y-64216666D01*
X154916666Y-63783333D01*
X154216666Y-63350000D02*
X154216666Y-63283333D01*
X154250000Y-63216666D01*
X154283333Y-63183333D01*
X154350000Y-63150000D01*
X154483333Y-63116666D01*
X154650000Y-63116666D01*
X154783333Y-63150000D01*
X154850000Y-63183333D01*
X154883333Y-63216666D01*
X154916666Y-63283333D01*
X154916666Y-63350000D01*
X154883333Y-63416666D01*
X154850000Y-63450000D01*
X154783333Y-63483333D01*
X154650000Y-63516666D01*
X154483333Y-63516666D01*
X154350000Y-63483333D01*
X154283333Y-63450000D01*
X154250000Y-63416666D01*
X154216666Y-63350000D01*
X161750000Y-71216666D02*
X161516666Y-70883333D01*
X161350000Y-71216666D02*
X161350000Y-70516666D01*
X161616666Y-70516666D01*
X161683333Y-70550000D01*
X161716666Y-70583333D01*
X161750000Y-70650000D01*
X161750000Y-70750000D01*
X161716666Y-70816666D01*
X161683333Y-70850000D01*
X161616666Y-70883333D01*
X161350000Y-70883333D01*
X162016666Y-70583333D02*
X162050000Y-70550000D01*
X162116666Y-70516666D01*
X162283333Y-70516666D01*
X162350000Y-70550000D01*
X162383333Y-70583333D01*
X162416666Y-70650000D01*
X162416666Y-70716666D01*
X162383333Y-70816666D01*
X161983333Y-71216666D01*
X162416666Y-71216666D01*
X163083333Y-71216666D02*
X162683333Y-71216666D01*
X162883333Y-71216666D02*
X162883333Y-70516666D01*
X162816666Y-70616666D01*
X162750000Y-70683333D01*
X162683333Y-70716666D01*
X158250000Y-90516666D02*
X158016666Y-90183333D01*
X157850000Y-90516666D02*
X157850000Y-89816666D01*
X158116666Y-89816666D01*
X158183333Y-89850000D01*
X158216666Y-89883333D01*
X158250000Y-89950000D01*
X158250000Y-90050000D01*
X158216666Y-90116666D01*
X158183333Y-90150000D01*
X158116666Y-90183333D01*
X157850000Y-90183333D01*
X158516666Y-89883333D02*
X158550000Y-89850000D01*
X158616666Y-89816666D01*
X158783333Y-89816666D01*
X158850000Y-89850000D01*
X158883333Y-89883333D01*
X158916666Y-89950000D01*
X158916666Y-90016666D01*
X158883333Y-90116666D01*
X158483333Y-90516666D01*
X158916666Y-90516666D01*
X159183333Y-89883333D02*
X159216666Y-89850000D01*
X159283333Y-89816666D01*
X159450000Y-89816666D01*
X159516666Y-89850000D01*
X159550000Y-89883333D01*
X159583333Y-89950000D01*
X159583333Y-90016666D01*
X159550000Y-90116666D01*
X159150000Y-90516666D01*
X159583333Y-90516666D01*
X152016666Y-87650000D02*
X151683333Y-87883333D01*
X152016666Y-88050000D02*
X151316666Y-88050000D01*
X151316666Y-87783333D01*
X151350000Y-87716666D01*
X151383333Y-87683333D01*
X151450000Y-87650000D01*
X151550000Y-87650000D01*
X151616666Y-87683333D01*
X151650000Y-87716666D01*
X151683333Y-87783333D01*
X151683333Y-88050000D01*
X151383333Y-87383333D02*
X151350000Y-87350000D01*
X151316666Y-87283333D01*
X151316666Y-87116666D01*
X151350000Y-87050000D01*
X151383333Y-87016666D01*
X151450000Y-86983333D01*
X151516666Y-86983333D01*
X151616666Y-87016666D01*
X152016666Y-87416666D01*
X152016666Y-86983333D01*
X151316666Y-86750000D02*
X151316666Y-86316666D01*
X151583333Y-86550000D01*
X151583333Y-86450000D01*
X151616666Y-86383333D01*
X151650000Y-86350000D01*
X151716666Y-86316666D01*
X151883333Y-86316666D01*
X151950000Y-86350000D01*
X151983333Y-86383333D01*
X152016666Y-86450000D01*
X152016666Y-86650000D01*
X151983333Y-86716666D01*
X151950000Y-86750000D01*
X116316666Y-64550000D02*
X115983333Y-64783333D01*
X116316666Y-64950000D02*
X115616666Y-64950000D01*
X115616666Y-64683333D01*
X115650000Y-64616666D01*
X115683333Y-64583333D01*
X115750000Y-64550000D01*
X115850000Y-64550000D01*
X115916666Y-64583333D01*
X115950000Y-64616666D01*
X115983333Y-64683333D01*
X115983333Y-64950000D01*
X115683333Y-64283333D02*
X115650000Y-64250000D01*
X115616666Y-64183333D01*
X115616666Y-64016666D01*
X115650000Y-63950000D01*
X115683333Y-63916666D01*
X115750000Y-63883333D01*
X115816666Y-63883333D01*
X115916666Y-63916666D01*
X116316666Y-64316666D01*
X116316666Y-63883333D01*
X115850000Y-63283333D02*
X116316666Y-63283333D01*
X115583333Y-63450000D02*
X116083333Y-63616666D01*
X116083333Y-63183333D01*
X96150000Y-70916666D02*
X95916666Y-70583333D01*
X95750000Y-70916666D02*
X95750000Y-70216666D01*
X96016666Y-70216666D01*
X96083333Y-70250000D01*
X96116666Y-70283333D01*
X96150000Y-70350000D01*
X96150000Y-70450000D01*
X96116666Y-70516666D01*
X96083333Y-70550000D01*
X96016666Y-70583333D01*
X95750000Y-70583333D01*
X96416666Y-70283333D02*
X96450000Y-70250000D01*
X96516666Y-70216666D01*
X96683333Y-70216666D01*
X96750000Y-70250000D01*
X96783333Y-70283333D01*
X96816666Y-70350000D01*
X96816666Y-70416666D01*
X96783333Y-70516666D01*
X96383333Y-70916666D01*
X96816666Y-70916666D01*
X97450000Y-70216666D02*
X97116666Y-70216666D01*
X97083333Y-70550000D01*
X97116666Y-70516666D01*
X97183333Y-70483333D01*
X97350000Y-70483333D01*
X97416666Y-70516666D01*
X97450000Y-70550000D01*
X97483333Y-70616666D01*
X97483333Y-70783333D01*
X97450000Y-70850000D01*
X97416666Y-70883333D01*
X97350000Y-70916666D01*
X97183333Y-70916666D01*
X97116666Y-70883333D01*
X97083333Y-70850000D01*
X96216666Y-75150000D02*
X95883333Y-75383333D01*
X96216666Y-75550000D02*
X95516666Y-75550000D01*
X95516666Y-75283333D01*
X95550000Y-75216666D01*
X95583333Y-75183333D01*
X95650000Y-75150000D01*
X95750000Y-75150000D01*
X95816666Y-75183333D01*
X95850000Y-75216666D01*
X95883333Y-75283333D01*
X95883333Y-75550000D01*
X95583333Y-74883333D02*
X95550000Y-74850000D01*
X95516666Y-74783333D01*
X95516666Y-74616666D01*
X95550000Y-74550000D01*
X95583333Y-74516666D01*
X95650000Y-74483333D01*
X95716666Y-74483333D01*
X95816666Y-74516666D01*
X96216666Y-74916666D01*
X96216666Y-74483333D01*
X95516666Y-73883333D02*
X95516666Y-74016666D01*
X95550000Y-74083333D01*
X95583333Y-74116666D01*
X95683333Y-74183333D01*
X95816666Y-74216666D01*
X96083333Y-74216666D01*
X96150000Y-74183333D01*
X96183333Y-74150000D01*
X96216666Y-74083333D01*
X96216666Y-73950000D01*
X96183333Y-73883333D01*
X96150000Y-73850000D01*
X96083333Y-73816666D01*
X95916666Y-73816666D01*
X95850000Y-73850000D01*
X95816666Y-73883333D01*
X95783333Y-73950000D01*
X95783333Y-74083333D01*
X95816666Y-74150000D01*
X95850000Y-74183333D01*
X95916666Y-74216666D01*
X99516666Y-78550000D02*
X99183333Y-78783333D01*
X99516666Y-78950000D02*
X98816666Y-78950000D01*
X98816666Y-78683333D01*
X98850000Y-78616666D01*
X98883333Y-78583333D01*
X98950000Y-78550000D01*
X99050000Y-78550000D01*
X99116666Y-78583333D01*
X99150000Y-78616666D01*
X99183333Y-78683333D01*
X99183333Y-78950000D01*
X98883333Y-78283333D02*
X98850000Y-78250000D01*
X98816666Y-78183333D01*
X98816666Y-78016666D01*
X98850000Y-77950000D01*
X98883333Y-77916666D01*
X98950000Y-77883333D01*
X99016666Y-77883333D01*
X99116666Y-77916666D01*
X99516666Y-78316666D01*
X99516666Y-77883333D01*
X98816666Y-77650000D02*
X98816666Y-77183333D01*
X99516666Y-77483333D01*
X116950000Y-93216666D02*
X116716666Y-92883333D01*
X116550000Y-93216666D02*
X116550000Y-92516666D01*
X116816666Y-92516666D01*
X116883333Y-92550000D01*
X116916666Y-92583333D01*
X116950000Y-92650000D01*
X116950000Y-92750000D01*
X116916666Y-92816666D01*
X116883333Y-92850000D01*
X116816666Y-92883333D01*
X116550000Y-92883333D01*
X117216666Y-92583333D02*
X117250000Y-92550000D01*
X117316666Y-92516666D01*
X117483333Y-92516666D01*
X117550000Y-92550000D01*
X117583333Y-92583333D01*
X117616666Y-92650000D01*
X117616666Y-92716666D01*
X117583333Y-92816666D01*
X117183333Y-93216666D01*
X117616666Y-93216666D01*
X118016666Y-92816666D02*
X117950000Y-92783333D01*
X117916666Y-92750000D01*
X117883333Y-92683333D01*
X117883333Y-92650000D01*
X117916666Y-92583333D01*
X117950000Y-92550000D01*
X118016666Y-92516666D01*
X118150000Y-92516666D01*
X118216666Y-92550000D01*
X118250000Y-92583333D01*
X118283333Y-92650000D01*
X118283333Y-92683333D01*
X118250000Y-92750000D01*
X118216666Y-92783333D01*
X118150000Y-92816666D01*
X118016666Y-92816666D01*
X117950000Y-92850000D01*
X117916666Y-92883333D01*
X117883333Y-92950000D01*
X117883333Y-93083333D01*
X117916666Y-93150000D01*
X117950000Y-93183333D01*
X118016666Y-93216666D01*
X118150000Y-93216666D01*
X118216666Y-93183333D01*
X118250000Y-93150000D01*
X118283333Y-93083333D01*
X118283333Y-92950000D01*
X118250000Y-92883333D01*
X118216666Y-92850000D01*
X118150000Y-92816666D01*
X119016666Y-69550000D02*
X118683333Y-69783333D01*
X119016666Y-69950000D02*
X118316666Y-69950000D01*
X118316666Y-69683333D01*
X118350000Y-69616666D01*
X118383333Y-69583333D01*
X118450000Y-69550000D01*
X118550000Y-69550000D01*
X118616666Y-69583333D01*
X118650000Y-69616666D01*
X118683333Y-69683333D01*
X118683333Y-69950000D01*
X118383333Y-69283333D02*
X118350000Y-69250000D01*
X118316666Y-69183333D01*
X118316666Y-69016666D01*
X118350000Y-68950000D01*
X118383333Y-68916666D01*
X118450000Y-68883333D01*
X118516666Y-68883333D01*
X118616666Y-68916666D01*
X119016666Y-69316666D01*
X119016666Y-68883333D01*
X119016666Y-68550000D02*
X119016666Y-68416666D01*
X118983333Y-68350000D01*
X118950000Y-68316666D01*
X118850000Y-68250000D01*
X118716666Y-68216666D01*
X118450000Y-68216666D01*
X118383333Y-68250000D01*
X118350000Y-68283333D01*
X118316666Y-68350000D01*
X118316666Y-68483333D01*
X118350000Y-68550000D01*
X118383333Y-68583333D01*
X118450000Y-68616666D01*
X118616666Y-68616666D01*
X118683333Y-68583333D01*
X118716666Y-68550000D01*
X118750000Y-68483333D01*
X118750000Y-68350000D01*
X118716666Y-68283333D01*
X118683333Y-68250000D01*
X118616666Y-68216666D01*
X120416666Y-69550000D02*
X120083333Y-69783333D01*
X120416666Y-69950000D02*
X119716666Y-69950000D01*
X119716666Y-69683333D01*
X119750000Y-69616666D01*
X119783333Y-69583333D01*
X119850000Y-69550000D01*
X119950000Y-69550000D01*
X120016666Y-69583333D01*
X120050000Y-69616666D01*
X120083333Y-69683333D01*
X120083333Y-69950000D01*
X119716666Y-69316666D02*
X119716666Y-68883333D01*
X119983333Y-69116666D01*
X119983333Y-69016666D01*
X120016666Y-68950000D01*
X120050000Y-68916666D01*
X120116666Y-68883333D01*
X120283333Y-68883333D01*
X120350000Y-68916666D01*
X120383333Y-68950000D01*
X120416666Y-69016666D01*
X120416666Y-69216666D01*
X120383333Y-69283333D01*
X120350000Y-69316666D01*
X119716666Y-68450000D02*
X119716666Y-68383333D01*
X119750000Y-68316666D01*
X119783333Y-68283333D01*
X119850000Y-68250000D01*
X119983333Y-68216666D01*
X120150000Y-68216666D01*
X120283333Y-68250000D01*
X120350000Y-68283333D01*
X120383333Y-68316666D01*
X120416666Y-68383333D01*
X120416666Y-68450000D01*
X120383333Y-68516666D01*
X120350000Y-68550000D01*
X120283333Y-68583333D01*
X120150000Y-68616666D01*
X119983333Y-68616666D01*
X119850000Y-68583333D01*
X119783333Y-68550000D01*
X119750000Y-68516666D01*
X119716666Y-68450000D01*
X121816666Y-69550000D02*
X121483333Y-69783333D01*
X121816666Y-69950000D02*
X121116666Y-69950000D01*
X121116666Y-69683333D01*
X121150000Y-69616666D01*
X121183333Y-69583333D01*
X121250000Y-69550000D01*
X121350000Y-69550000D01*
X121416666Y-69583333D01*
X121450000Y-69616666D01*
X121483333Y-69683333D01*
X121483333Y-69950000D01*
X121116666Y-69316666D02*
X121116666Y-68883333D01*
X121383333Y-69116666D01*
X121383333Y-69016666D01*
X121416666Y-68950000D01*
X121450000Y-68916666D01*
X121516666Y-68883333D01*
X121683333Y-68883333D01*
X121750000Y-68916666D01*
X121783333Y-68950000D01*
X121816666Y-69016666D01*
X121816666Y-69216666D01*
X121783333Y-69283333D01*
X121750000Y-69316666D01*
X121816666Y-68216666D02*
X121816666Y-68616666D01*
X121816666Y-68416666D02*
X121116666Y-68416666D01*
X121216666Y-68483333D01*
X121283333Y-68550000D01*
X121316666Y-68616666D01*
X123216666Y-69550000D02*
X122883333Y-69783333D01*
X123216666Y-69950000D02*
X122516666Y-69950000D01*
X122516666Y-69683333D01*
X122550000Y-69616666D01*
X122583333Y-69583333D01*
X122650000Y-69550000D01*
X122750000Y-69550000D01*
X122816666Y-69583333D01*
X122850000Y-69616666D01*
X122883333Y-69683333D01*
X122883333Y-69950000D01*
X122516666Y-69316666D02*
X122516666Y-68883333D01*
X122783333Y-69116666D01*
X122783333Y-69016666D01*
X122816666Y-68950000D01*
X122850000Y-68916666D01*
X122916666Y-68883333D01*
X123083333Y-68883333D01*
X123150000Y-68916666D01*
X123183333Y-68950000D01*
X123216666Y-69016666D01*
X123216666Y-69216666D01*
X123183333Y-69283333D01*
X123150000Y-69316666D01*
X122583333Y-68616666D02*
X122550000Y-68583333D01*
X122516666Y-68516666D01*
X122516666Y-68350000D01*
X122550000Y-68283333D01*
X122583333Y-68250000D01*
X122650000Y-68216666D01*
X122716666Y-68216666D01*
X122816666Y-68250000D01*
X123216666Y-68650000D01*
X123216666Y-68216666D01*
X100816666Y-78550000D02*
X100483333Y-78783333D01*
X100816666Y-78950000D02*
X100116666Y-78950000D01*
X100116666Y-78683333D01*
X100150000Y-78616666D01*
X100183333Y-78583333D01*
X100250000Y-78550000D01*
X100350000Y-78550000D01*
X100416666Y-78583333D01*
X100450000Y-78616666D01*
X100483333Y-78683333D01*
X100483333Y-78950000D01*
X100116666Y-78316666D02*
X100116666Y-77883333D01*
X100383333Y-78116666D01*
X100383333Y-78016666D01*
X100416666Y-77950000D01*
X100450000Y-77916666D01*
X100516666Y-77883333D01*
X100683333Y-77883333D01*
X100750000Y-77916666D01*
X100783333Y-77950000D01*
X100816666Y-78016666D01*
X100816666Y-78216666D01*
X100783333Y-78283333D01*
X100750000Y-78316666D01*
X100116666Y-77650000D02*
X100116666Y-77216666D01*
X100383333Y-77450000D01*
X100383333Y-77350000D01*
X100416666Y-77283333D01*
X100450000Y-77250000D01*
X100516666Y-77216666D01*
X100683333Y-77216666D01*
X100750000Y-77250000D01*
X100783333Y-77283333D01*
X100816666Y-77350000D01*
X100816666Y-77550000D01*
X100783333Y-77616666D01*
X100750000Y-77650000D01*
X112650000Y-70616666D02*
X112416666Y-70283333D01*
X112250000Y-70616666D02*
X112250000Y-69916666D01*
X112516666Y-69916666D01*
X112583333Y-69950000D01*
X112616666Y-69983333D01*
X112650000Y-70050000D01*
X112650000Y-70150000D01*
X112616666Y-70216666D01*
X112583333Y-70250000D01*
X112516666Y-70283333D01*
X112250000Y-70283333D01*
X112883333Y-69916666D02*
X113316666Y-69916666D01*
X113083333Y-70183333D01*
X113183333Y-70183333D01*
X113250000Y-70216666D01*
X113283333Y-70250000D01*
X113316666Y-70316666D01*
X113316666Y-70483333D01*
X113283333Y-70550000D01*
X113250000Y-70583333D01*
X113183333Y-70616666D01*
X112983333Y-70616666D01*
X112916666Y-70583333D01*
X112883333Y-70550000D01*
X113916666Y-70150000D02*
X113916666Y-70616666D01*
X113750000Y-69883333D02*
X113583333Y-70383333D01*
X114016666Y-70383333D01*
X89350000Y-78316666D02*
X89116666Y-77983333D01*
X88950000Y-78316666D02*
X88950000Y-77616666D01*
X89216666Y-77616666D01*
X89283333Y-77650000D01*
X89316666Y-77683333D01*
X89350000Y-77750000D01*
X89350000Y-77850000D01*
X89316666Y-77916666D01*
X89283333Y-77950000D01*
X89216666Y-77983333D01*
X88950000Y-77983333D01*
X89583333Y-77616666D02*
X90016666Y-77616666D01*
X89783333Y-77883333D01*
X89883333Y-77883333D01*
X89950000Y-77916666D01*
X89983333Y-77950000D01*
X90016666Y-78016666D01*
X90016666Y-78183333D01*
X89983333Y-78250000D01*
X89950000Y-78283333D01*
X89883333Y-78316666D01*
X89683333Y-78316666D01*
X89616666Y-78283333D01*
X89583333Y-78250000D01*
X90650000Y-77616666D02*
X90316666Y-77616666D01*
X90283333Y-77950000D01*
X90316666Y-77916666D01*
X90383333Y-77883333D01*
X90550000Y-77883333D01*
X90616666Y-77916666D01*
X90650000Y-77950000D01*
X90683333Y-78016666D01*
X90683333Y-78183333D01*
X90650000Y-78250000D01*
X90616666Y-78283333D01*
X90550000Y-78316666D01*
X90383333Y-78316666D01*
X90316666Y-78283333D01*
X90283333Y-78250000D01*
X127450000Y-62616666D02*
X127216666Y-62283333D01*
X127050000Y-62616666D02*
X127050000Y-61916666D01*
X127316666Y-61916666D01*
X127383333Y-61950000D01*
X127416666Y-61983333D01*
X127450000Y-62050000D01*
X127450000Y-62150000D01*
X127416666Y-62216666D01*
X127383333Y-62250000D01*
X127316666Y-62283333D01*
X127050000Y-62283333D01*
X127683333Y-61916666D02*
X128116666Y-61916666D01*
X127883333Y-62183333D01*
X127983333Y-62183333D01*
X128050000Y-62216666D01*
X128083333Y-62250000D01*
X128116666Y-62316666D01*
X128116666Y-62483333D01*
X128083333Y-62550000D01*
X128050000Y-62583333D01*
X127983333Y-62616666D01*
X127783333Y-62616666D01*
X127716666Y-62583333D01*
X127683333Y-62550000D01*
X128716666Y-61916666D02*
X128583333Y-61916666D01*
X128516666Y-61950000D01*
X128483333Y-61983333D01*
X128416666Y-62083333D01*
X128383333Y-62216666D01*
X128383333Y-62483333D01*
X128416666Y-62550000D01*
X128450000Y-62583333D01*
X128516666Y-62616666D01*
X128650000Y-62616666D01*
X128716666Y-62583333D01*
X128750000Y-62550000D01*
X128783333Y-62483333D01*
X128783333Y-62316666D01*
X128750000Y-62250000D01*
X128716666Y-62216666D01*
X128650000Y-62183333D01*
X128516666Y-62183333D01*
X128450000Y-62216666D01*
X128416666Y-62250000D01*
X128383333Y-62316666D01*
X124416666Y-63350000D02*
X124083333Y-63583333D01*
X124416666Y-63750000D02*
X123716666Y-63750000D01*
X123716666Y-63483333D01*
X123750000Y-63416666D01*
X123783333Y-63383333D01*
X123850000Y-63350000D01*
X123950000Y-63350000D01*
X124016666Y-63383333D01*
X124050000Y-63416666D01*
X124083333Y-63483333D01*
X124083333Y-63750000D01*
X123716666Y-63116666D02*
X123716666Y-62683333D01*
X123983333Y-62916666D01*
X123983333Y-62816666D01*
X124016666Y-62750000D01*
X124050000Y-62716666D01*
X124116666Y-62683333D01*
X124283333Y-62683333D01*
X124350000Y-62716666D01*
X124383333Y-62750000D01*
X124416666Y-62816666D01*
X124416666Y-63016666D01*
X124383333Y-63083333D01*
X124350000Y-63116666D01*
X123716666Y-62450000D02*
X123716666Y-61983333D01*
X124416666Y-62283333D01*
X104950000Y-73016666D02*
X104716666Y-72683333D01*
X104550000Y-73016666D02*
X104550000Y-72316666D01*
X104816666Y-72316666D01*
X104883333Y-72350000D01*
X104916666Y-72383333D01*
X104950000Y-72450000D01*
X104950000Y-72550000D01*
X104916666Y-72616666D01*
X104883333Y-72650000D01*
X104816666Y-72683333D01*
X104550000Y-72683333D01*
X105183333Y-72316666D02*
X105616666Y-72316666D01*
X105383333Y-72583333D01*
X105483333Y-72583333D01*
X105550000Y-72616666D01*
X105583333Y-72650000D01*
X105616666Y-72716666D01*
X105616666Y-72883333D01*
X105583333Y-72950000D01*
X105550000Y-72983333D01*
X105483333Y-73016666D01*
X105283333Y-73016666D01*
X105216666Y-72983333D01*
X105183333Y-72950000D01*
X106016666Y-72616666D02*
X105950000Y-72583333D01*
X105916666Y-72550000D01*
X105883333Y-72483333D01*
X105883333Y-72450000D01*
X105916666Y-72383333D01*
X105950000Y-72350000D01*
X106016666Y-72316666D01*
X106150000Y-72316666D01*
X106216666Y-72350000D01*
X106250000Y-72383333D01*
X106283333Y-72450000D01*
X106283333Y-72483333D01*
X106250000Y-72550000D01*
X106216666Y-72583333D01*
X106150000Y-72616666D01*
X106016666Y-72616666D01*
X105950000Y-72650000D01*
X105916666Y-72683333D01*
X105883333Y-72750000D01*
X105883333Y-72883333D01*
X105916666Y-72950000D01*
X105950000Y-72983333D01*
X106016666Y-73016666D01*
X106150000Y-73016666D01*
X106216666Y-72983333D01*
X106250000Y-72950000D01*
X106283333Y-72883333D01*
X106283333Y-72750000D01*
X106250000Y-72683333D01*
X106216666Y-72650000D01*
X106150000Y-72616666D01*
X102216666Y-78550000D02*
X101883333Y-78783333D01*
X102216666Y-78950000D02*
X101516666Y-78950000D01*
X101516666Y-78683333D01*
X101550000Y-78616666D01*
X101583333Y-78583333D01*
X101650000Y-78550000D01*
X101750000Y-78550000D01*
X101816666Y-78583333D01*
X101850000Y-78616666D01*
X101883333Y-78683333D01*
X101883333Y-78950000D01*
X101516666Y-78316666D02*
X101516666Y-77883333D01*
X101783333Y-78116666D01*
X101783333Y-78016666D01*
X101816666Y-77950000D01*
X101850000Y-77916666D01*
X101916666Y-77883333D01*
X102083333Y-77883333D01*
X102150000Y-77916666D01*
X102183333Y-77950000D01*
X102216666Y-78016666D01*
X102216666Y-78216666D01*
X102183333Y-78283333D01*
X102150000Y-78316666D01*
X102216666Y-77550000D02*
X102216666Y-77416666D01*
X102183333Y-77350000D01*
X102150000Y-77316666D01*
X102050000Y-77250000D01*
X101916666Y-77216666D01*
X101650000Y-77216666D01*
X101583333Y-77250000D01*
X101550000Y-77283333D01*
X101516666Y-77350000D01*
X101516666Y-77483333D01*
X101550000Y-77550000D01*
X101583333Y-77583333D01*
X101650000Y-77616666D01*
X101816666Y-77616666D01*
X101883333Y-77583333D01*
X101916666Y-77550000D01*
X101950000Y-77483333D01*
X101950000Y-77350000D01*
X101916666Y-77283333D01*
X101883333Y-77250000D01*
X101816666Y-77216666D01*
X120816666Y-57050000D02*
X120483333Y-57283333D01*
X120816666Y-57450000D02*
X120116666Y-57450000D01*
X120116666Y-57183333D01*
X120150000Y-57116666D01*
X120183333Y-57083333D01*
X120250000Y-57050000D01*
X120350000Y-57050000D01*
X120416666Y-57083333D01*
X120450000Y-57116666D01*
X120483333Y-57183333D01*
X120483333Y-57450000D01*
X120350000Y-56450000D02*
X120816666Y-56450000D01*
X120083333Y-56616666D02*
X120583333Y-56783333D01*
X120583333Y-56350000D01*
X120116666Y-55950000D02*
X120116666Y-55883333D01*
X120150000Y-55816666D01*
X120183333Y-55783333D01*
X120250000Y-55750000D01*
X120383333Y-55716666D01*
X120550000Y-55716666D01*
X120683333Y-55750000D01*
X120750000Y-55783333D01*
X120783333Y-55816666D01*
X120816666Y-55883333D01*
X120816666Y-55950000D01*
X120783333Y-56016666D01*
X120750000Y-56050000D01*
X120683333Y-56083333D01*
X120550000Y-56116666D01*
X120383333Y-56116666D01*
X120250000Y-56083333D01*
X120183333Y-56050000D01*
X120150000Y-56016666D01*
X120116666Y-55950000D01*
X121900000Y-54516666D02*
X121666666Y-54183333D01*
X121500000Y-54516666D02*
X121500000Y-53816666D01*
X121766666Y-53816666D01*
X121833333Y-53850000D01*
X121866666Y-53883333D01*
X121900000Y-53950000D01*
X121900000Y-54050000D01*
X121866666Y-54116666D01*
X121833333Y-54150000D01*
X121766666Y-54183333D01*
X121500000Y-54183333D01*
X122500000Y-54050000D02*
X122500000Y-54516666D01*
X122333333Y-53783333D02*
X122166666Y-54283333D01*
X122600000Y-54283333D01*
X123233333Y-54516666D02*
X122833333Y-54516666D01*
X123033333Y-54516666D02*
X123033333Y-53816666D01*
X122966666Y-53916666D01*
X122900000Y-53983333D01*
X122833333Y-54016666D01*
X116050000Y-73116666D02*
X115816666Y-72783333D01*
X115650000Y-73116666D02*
X115650000Y-72416666D01*
X115916666Y-72416666D01*
X115983333Y-72450000D01*
X116016666Y-72483333D01*
X116050000Y-72550000D01*
X116050000Y-72650000D01*
X116016666Y-72716666D01*
X115983333Y-72750000D01*
X115916666Y-72783333D01*
X115650000Y-72783333D01*
X116650000Y-72650000D02*
X116650000Y-73116666D01*
X116483333Y-72383333D02*
X116316666Y-72883333D01*
X116750000Y-72883333D01*
X116983333Y-72483333D02*
X117016666Y-72450000D01*
X117083333Y-72416666D01*
X117250000Y-72416666D01*
X117316666Y-72450000D01*
X117350000Y-72483333D01*
X117383333Y-72550000D01*
X117383333Y-72616666D01*
X117350000Y-72716666D01*
X116950000Y-73116666D01*
X117383333Y-73116666D01*
X116150000Y-76216666D02*
X115916666Y-75883333D01*
X115750000Y-76216666D02*
X115750000Y-75516666D01*
X116016666Y-75516666D01*
X116083333Y-75550000D01*
X116116666Y-75583333D01*
X116150000Y-75650000D01*
X116150000Y-75750000D01*
X116116666Y-75816666D01*
X116083333Y-75850000D01*
X116016666Y-75883333D01*
X115750000Y-75883333D01*
X116750000Y-75750000D02*
X116750000Y-76216666D01*
X116583333Y-75483333D02*
X116416666Y-75983333D01*
X116850000Y-75983333D01*
X117050000Y-75516666D02*
X117483333Y-75516666D01*
X117250000Y-75783333D01*
X117350000Y-75783333D01*
X117416666Y-75816666D01*
X117450000Y-75850000D01*
X117483333Y-75916666D01*
X117483333Y-76083333D01*
X117450000Y-76150000D01*
X117416666Y-76183333D01*
X117350000Y-76216666D01*
X117150000Y-76216666D01*
X117083333Y-76183333D01*
X117050000Y-76150000D01*
X131816666Y-74650000D02*
X131483333Y-74883333D01*
X131816666Y-75050000D02*
X131116666Y-75050000D01*
X131116666Y-74783333D01*
X131150000Y-74716666D01*
X131183333Y-74683333D01*
X131250000Y-74650000D01*
X131350000Y-74650000D01*
X131416666Y-74683333D01*
X131450000Y-74716666D01*
X131483333Y-74783333D01*
X131483333Y-75050000D01*
X131350000Y-74050000D02*
X131816666Y-74050000D01*
X131083333Y-74216666D02*
X131583333Y-74383333D01*
X131583333Y-73950000D01*
X131350000Y-73383333D02*
X131816666Y-73383333D01*
X131083333Y-73550000D02*
X131583333Y-73716666D01*
X131583333Y-73283333D01*
X130316666Y-71850000D02*
X129983333Y-72083333D01*
X130316666Y-72250000D02*
X129616666Y-72250000D01*
X129616666Y-71983333D01*
X129650000Y-71916666D01*
X129683333Y-71883333D01*
X129750000Y-71850000D01*
X129850000Y-71850000D01*
X129916666Y-71883333D01*
X129950000Y-71916666D01*
X129983333Y-71983333D01*
X129983333Y-72250000D01*
X129850000Y-71250000D02*
X130316666Y-71250000D01*
X129583333Y-71416666D02*
X130083333Y-71583333D01*
X130083333Y-71150000D01*
X129616666Y-70550000D02*
X129616666Y-70883333D01*
X129950000Y-70916666D01*
X129916666Y-70883333D01*
X129883333Y-70816666D01*
X129883333Y-70650000D01*
X129916666Y-70583333D01*
X129950000Y-70550000D01*
X130016666Y-70516666D01*
X130183333Y-70516666D01*
X130250000Y-70550000D01*
X130283333Y-70583333D01*
X130316666Y-70650000D01*
X130316666Y-70816666D01*
X130283333Y-70883333D01*
X130250000Y-70916666D01*
X127150000Y-71916666D02*
X126916666Y-71583333D01*
X126750000Y-71916666D02*
X126750000Y-71216666D01*
X127016666Y-71216666D01*
X127083333Y-71250000D01*
X127116666Y-71283333D01*
X127150000Y-71350000D01*
X127150000Y-71450000D01*
X127116666Y-71516666D01*
X127083333Y-71550000D01*
X127016666Y-71583333D01*
X126750000Y-71583333D01*
X127750000Y-71450000D02*
X127750000Y-71916666D01*
X127583333Y-71183333D02*
X127416666Y-71683333D01*
X127850000Y-71683333D01*
X128416666Y-71216666D02*
X128283333Y-71216666D01*
X128216666Y-71250000D01*
X128183333Y-71283333D01*
X128116666Y-71383333D01*
X128083333Y-71516666D01*
X128083333Y-71783333D01*
X128116666Y-71850000D01*
X128150000Y-71883333D01*
X128216666Y-71916666D01*
X128350000Y-71916666D01*
X128416666Y-71883333D01*
X128450000Y-71850000D01*
X128483333Y-71783333D01*
X128483333Y-71616666D01*
X128450000Y-71550000D01*
X128416666Y-71516666D01*
X128350000Y-71483333D01*
X128216666Y-71483333D01*
X128150000Y-71516666D01*
X128116666Y-71550000D01*
X128083333Y-71616666D01*
X121050000Y-77816666D02*
X120816666Y-77483333D01*
X120650000Y-77816666D02*
X120650000Y-77116666D01*
X120916666Y-77116666D01*
X120983333Y-77150000D01*
X121016666Y-77183333D01*
X121050000Y-77250000D01*
X121050000Y-77350000D01*
X121016666Y-77416666D01*
X120983333Y-77450000D01*
X120916666Y-77483333D01*
X120650000Y-77483333D01*
X121650000Y-77350000D02*
X121650000Y-77816666D01*
X121483333Y-77083333D02*
X121316666Y-77583333D01*
X121750000Y-77583333D01*
X121950000Y-77116666D02*
X122416666Y-77116666D01*
X122116666Y-77816666D01*
X119350000Y-73916666D02*
X119116666Y-73583333D01*
X118950000Y-73916666D02*
X118950000Y-73216666D01*
X119216666Y-73216666D01*
X119283333Y-73250000D01*
X119316666Y-73283333D01*
X119350000Y-73350000D01*
X119350000Y-73450000D01*
X119316666Y-73516666D01*
X119283333Y-73550000D01*
X119216666Y-73583333D01*
X118950000Y-73583333D01*
X119950000Y-73450000D02*
X119950000Y-73916666D01*
X119783333Y-73183333D02*
X119616666Y-73683333D01*
X120050000Y-73683333D01*
X120416666Y-73516666D02*
X120350000Y-73483333D01*
X120316666Y-73450000D01*
X120283333Y-73383333D01*
X120283333Y-73350000D01*
X120316666Y-73283333D01*
X120350000Y-73250000D01*
X120416666Y-73216666D01*
X120550000Y-73216666D01*
X120616666Y-73250000D01*
X120650000Y-73283333D01*
X120683333Y-73350000D01*
X120683333Y-73383333D01*
X120650000Y-73450000D01*
X120616666Y-73483333D01*
X120550000Y-73516666D01*
X120416666Y-73516666D01*
X120350000Y-73550000D01*
X120316666Y-73583333D01*
X120283333Y-73650000D01*
X120283333Y-73783333D01*
X120316666Y-73850000D01*
X120350000Y-73883333D01*
X120416666Y-73916666D01*
X120550000Y-73916666D01*
X120616666Y-73883333D01*
X120650000Y-73850000D01*
X120683333Y-73783333D01*
X120683333Y-73650000D01*
X120650000Y-73583333D01*
X120616666Y-73550000D01*
X120550000Y-73516666D01*
X116950000Y-94716666D02*
X116716666Y-94383333D01*
X116550000Y-94716666D02*
X116550000Y-94016666D01*
X116816666Y-94016666D01*
X116883333Y-94050000D01*
X116916666Y-94083333D01*
X116950000Y-94150000D01*
X116950000Y-94250000D01*
X116916666Y-94316666D01*
X116883333Y-94350000D01*
X116816666Y-94383333D01*
X116550000Y-94383333D01*
X117550000Y-94250000D02*
X117550000Y-94716666D01*
X117383333Y-93983333D02*
X117216666Y-94483333D01*
X117650000Y-94483333D01*
X117950000Y-94716666D02*
X118083333Y-94716666D01*
X118150000Y-94683333D01*
X118183333Y-94650000D01*
X118250000Y-94550000D01*
X118283333Y-94416666D01*
X118283333Y-94150000D01*
X118250000Y-94083333D01*
X118216666Y-94050000D01*
X118150000Y-94016666D01*
X118016666Y-94016666D01*
X117950000Y-94050000D01*
X117916666Y-94083333D01*
X117883333Y-94150000D01*
X117883333Y-94316666D01*
X117916666Y-94383333D01*
X117950000Y-94416666D01*
X118016666Y-94450000D01*
X118150000Y-94450000D01*
X118216666Y-94416666D01*
X118250000Y-94383333D01*
X118283333Y-94316666D01*
X95450000Y-78216666D02*
X95216666Y-77883333D01*
X95050000Y-78216666D02*
X95050000Y-77516666D01*
X95316666Y-77516666D01*
X95383333Y-77550000D01*
X95416666Y-77583333D01*
X95450000Y-77650000D01*
X95450000Y-77750000D01*
X95416666Y-77816666D01*
X95383333Y-77850000D01*
X95316666Y-77883333D01*
X95050000Y-77883333D01*
X96083333Y-77516666D02*
X95750000Y-77516666D01*
X95716666Y-77850000D01*
X95750000Y-77816666D01*
X95816666Y-77783333D01*
X95983333Y-77783333D01*
X96050000Y-77816666D01*
X96083333Y-77850000D01*
X96116666Y-77916666D01*
X96116666Y-78083333D01*
X96083333Y-78150000D01*
X96050000Y-78183333D01*
X95983333Y-78216666D01*
X95816666Y-78216666D01*
X95750000Y-78183333D01*
X95716666Y-78150000D01*
X96550000Y-77516666D02*
X96616666Y-77516666D01*
X96683333Y-77550000D01*
X96716666Y-77583333D01*
X96750000Y-77650000D01*
X96783333Y-77783333D01*
X96783333Y-77950000D01*
X96750000Y-78083333D01*
X96716666Y-78150000D01*
X96683333Y-78183333D01*
X96616666Y-78216666D01*
X96550000Y-78216666D01*
X96483333Y-78183333D01*
X96450000Y-78150000D01*
X96416666Y-78083333D01*
X96383333Y-77950000D01*
X96383333Y-77783333D01*
X96416666Y-77650000D01*
X96450000Y-77583333D01*
X96483333Y-77550000D01*
X96550000Y-77516666D01*
X119016666Y-89450000D02*
X118683333Y-89683333D01*
X119016666Y-89850000D02*
X118316666Y-89850000D01*
X118316666Y-89583333D01*
X118350000Y-89516666D01*
X118383333Y-89483333D01*
X118450000Y-89450000D01*
X118550000Y-89450000D01*
X118616666Y-89483333D01*
X118650000Y-89516666D01*
X118683333Y-89583333D01*
X118683333Y-89850000D01*
X118316666Y-88816666D02*
X118316666Y-89150000D01*
X118650000Y-89183333D01*
X118616666Y-89150000D01*
X118583333Y-89083333D01*
X118583333Y-88916666D01*
X118616666Y-88850000D01*
X118650000Y-88816666D01*
X118716666Y-88783333D01*
X118883333Y-88783333D01*
X118950000Y-88816666D01*
X118983333Y-88850000D01*
X119016666Y-88916666D01*
X119016666Y-89083333D01*
X118983333Y-89150000D01*
X118950000Y-89183333D01*
X119016666Y-88116666D02*
X119016666Y-88516666D01*
X119016666Y-88316666D02*
X118316666Y-88316666D01*
X118416666Y-88383333D01*
X118483333Y-88450000D01*
X118516666Y-88516666D01*
X117016666Y-89450000D02*
X116683333Y-89683333D01*
X117016666Y-89850000D02*
X116316666Y-89850000D01*
X116316666Y-89583333D01*
X116350000Y-89516666D01*
X116383333Y-89483333D01*
X116450000Y-89450000D01*
X116550000Y-89450000D01*
X116616666Y-89483333D01*
X116650000Y-89516666D01*
X116683333Y-89583333D01*
X116683333Y-89850000D01*
X116316666Y-88816666D02*
X116316666Y-89150000D01*
X116650000Y-89183333D01*
X116616666Y-89150000D01*
X116583333Y-89083333D01*
X116583333Y-88916666D01*
X116616666Y-88850000D01*
X116650000Y-88816666D01*
X116716666Y-88783333D01*
X116883333Y-88783333D01*
X116950000Y-88816666D01*
X116983333Y-88850000D01*
X117016666Y-88916666D01*
X117016666Y-89083333D01*
X116983333Y-89150000D01*
X116950000Y-89183333D01*
X116383333Y-88516666D02*
X116350000Y-88483333D01*
X116316666Y-88416666D01*
X116316666Y-88250000D01*
X116350000Y-88183333D01*
X116383333Y-88150000D01*
X116450000Y-88116666D01*
X116516666Y-88116666D01*
X116616666Y-88150000D01*
X117016666Y-88550000D01*
X117016666Y-88116666D01*
X150066666Y-54616666D02*
X150066666Y-55183333D01*
X150100000Y-55250000D01*
X150133333Y-55283333D01*
X150200000Y-55316666D01*
X150333333Y-55316666D01*
X150400000Y-55283333D01*
X150433333Y-55250000D01*
X150466666Y-55183333D01*
X150466666Y-54616666D01*
X151166666Y-55316666D02*
X150766666Y-55316666D01*
X150966666Y-55316666D02*
X150966666Y-54616666D01*
X150900000Y-54716666D01*
X150833333Y-54783333D01*
X150766666Y-54816666D01*
X146466666Y-67016666D02*
X146466666Y-67583333D01*
X146500000Y-67650000D01*
X146533333Y-67683333D01*
X146600000Y-67716666D01*
X146733333Y-67716666D01*
X146800000Y-67683333D01*
X146833333Y-67650000D01*
X146866666Y-67583333D01*
X146866666Y-67016666D01*
X147166666Y-67083333D02*
X147200000Y-67050000D01*
X147266666Y-67016666D01*
X147433333Y-67016666D01*
X147500000Y-67050000D01*
X147533333Y-67083333D01*
X147566666Y-67150000D01*
X147566666Y-67216666D01*
X147533333Y-67316666D01*
X147133333Y-67716666D01*
X147566666Y-67716666D01*
X156066666Y-64016666D02*
X156066666Y-64583333D01*
X156100000Y-64650000D01*
X156133333Y-64683333D01*
X156200000Y-64716666D01*
X156333333Y-64716666D01*
X156400000Y-64683333D01*
X156433333Y-64650000D01*
X156466666Y-64583333D01*
X156466666Y-64016666D01*
X156733333Y-64016666D02*
X157166666Y-64016666D01*
X156933333Y-64283333D01*
X157033333Y-64283333D01*
X157100000Y-64316666D01*
X157133333Y-64350000D01*
X157166666Y-64416666D01*
X157166666Y-64583333D01*
X157133333Y-64650000D01*
X157100000Y-64683333D01*
X157033333Y-64716666D01*
X156833333Y-64716666D01*
X156766666Y-64683333D01*
X156733333Y-64650000D01*
X122666666Y-64616666D02*
X122666666Y-65183333D01*
X122700000Y-65250000D01*
X122733333Y-65283333D01*
X122800000Y-65316666D01*
X122933333Y-65316666D01*
X123000000Y-65283333D01*
X123033333Y-65250000D01*
X123066666Y-65183333D01*
X123066666Y-64616666D01*
X123700000Y-64850000D02*
X123700000Y-65316666D01*
X123533333Y-64583333D02*
X123366666Y-65083333D01*
X123800000Y-65083333D01*
X97766666Y-72616666D02*
X97766666Y-73183333D01*
X97800000Y-73250000D01*
X97833333Y-73283333D01*
X97900000Y-73316666D01*
X98033333Y-73316666D01*
X98100000Y-73283333D01*
X98133333Y-73250000D01*
X98166666Y-73183333D01*
X98166666Y-72616666D01*
X98833333Y-72616666D02*
X98500000Y-72616666D01*
X98466666Y-72950000D01*
X98500000Y-72916666D01*
X98566666Y-72883333D01*
X98733333Y-72883333D01*
X98800000Y-72916666D01*
X98833333Y-72950000D01*
X98866666Y-73016666D01*
X98866666Y-73183333D01*
X98833333Y-73250000D01*
X98800000Y-73283333D01*
X98733333Y-73316666D01*
X98566666Y-73316666D01*
X98500000Y-73283333D01*
X98466666Y-73250000D01*
X124466666Y-97416666D02*
X124466666Y-97983333D01*
X124500000Y-98050000D01*
X124533333Y-98083333D01*
X124600000Y-98116666D01*
X124733333Y-98116666D01*
X124800000Y-98083333D01*
X124833333Y-98050000D01*
X124866666Y-97983333D01*
X124866666Y-97416666D01*
X125500000Y-97416666D02*
X125366666Y-97416666D01*
X125300000Y-97450000D01*
X125266666Y-97483333D01*
X125200000Y-97583333D01*
X125166666Y-97716666D01*
X125166666Y-97983333D01*
X125200000Y-98050000D01*
X125233333Y-98083333D01*
X125300000Y-98116666D01*
X125433333Y-98116666D01*
X125500000Y-98083333D01*
X125533333Y-98050000D01*
X125566666Y-97983333D01*
X125566666Y-97816666D01*
X125533333Y-97750000D01*
X125500000Y-97716666D01*
X125433333Y-97683333D01*
X125300000Y-97683333D01*
X125233333Y-97716666D01*
X125200000Y-97750000D01*
X125166666Y-97816666D01*
X127266666Y-73716666D02*
X127266666Y-74283333D01*
X127300000Y-74350000D01*
X127333333Y-74383333D01*
X127400000Y-74416666D01*
X127533333Y-74416666D01*
X127600000Y-74383333D01*
X127633333Y-74350000D01*
X127666666Y-74283333D01*
X127666666Y-73716666D01*
X127933333Y-73716666D02*
X128400000Y-73716666D01*
X128100000Y-74416666D01*
X144366666Y-81516666D02*
X144366666Y-82083333D01*
X144400000Y-82150000D01*
X144433333Y-82183333D01*
X144500000Y-82216666D01*
X144633333Y-82216666D01*
X144700000Y-82183333D01*
X144733333Y-82150000D01*
X144766666Y-82083333D01*
X144766666Y-81516666D01*
X145133333Y-82216666D02*
X145266666Y-82216666D01*
X145333333Y-82183333D01*
X145366666Y-82150000D01*
X145433333Y-82050000D01*
X145466666Y-81916666D01*
X145466666Y-81650000D01*
X145433333Y-81583333D01*
X145400000Y-81550000D01*
X145333333Y-81516666D01*
X145200000Y-81516666D01*
X145133333Y-81550000D01*
X145100000Y-81583333D01*
X145066666Y-81650000D01*
X145066666Y-81816666D01*
X145100000Y-81883333D01*
X145133333Y-81916666D01*
X145200000Y-81950000D01*
X145333333Y-81950000D01*
X145400000Y-81916666D01*
X145433333Y-81883333D01*
X145466666Y-81816666D01*
X91016666Y-81416666D02*
X91016666Y-81916666D01*
X90983333Y-82016666D01*
X90916666Y-82083333D01*
X90816666Y-82116666D01*
X90750000Y-82116666D01*
X91450000Y-81716666D02*
X91383333Y-81683333D01*
X91350000Y-81650000D01*
X91316666Y-81583333D01*
X91316666Y-81550000D01*
X91350000Y-81483333D01*
X91383333Y-81450000D01*
X91450000Y-81416666D01*
X91583333Y-81416666D01*
X91650000Y-81450000D01*
X91683333Y-81483333D01*
X91716666Y-81550000D01*
X91716666Y-81583333D01*
X91683333Y-81650000D01*
X91650000Y-81683333D01*
X91583333Y-81716666D01*
X91450000Y-81716666D01*
X91383333Y-81750000D01*
X91350000Y-81783333D01*
X91316666Y-81850000D01*
X91316666Y-81983333D01*
X91350000Y-82050000D01*
X91383333Y-82083333D01*
X91450000Y-82116666D01*
X91583333Y-82116666D01*
X91650000Y-82083333D01*
X91683333Y-82050000D01*
X91716666Y-81983333D01*
X91716666Y-81850000D01*
X91683333Y-81783333D01*
X91650000Y-81750000D01*
X91583333Y-81716666D01*
D12*
X163050000Y-60174999D02*
X163016666Y-60208332D01*
X162916666Y-60241665D01*
X162850000Y-60241665D01*
X162750000Y-60208332D01*
X162683333Y-60141665D01*
X162650000Y-60074999D01*
X162616666Y-59941665D01*
X162616666Y-59841665D01*
X162650000Y-59708332D01*
X162683333Y-59641665D01*
X162750000Y-59574999D01*
X162850000Y-59541665D01*
X162916666Y-59541665D01*
X163016666Y-59574999D01*
X163050000Y-59608332D01*
X163683333Y-59541665D02*
X163350000Y-59541665D01*
X163316666Y-59874999D01*
X163350000Y-59841665D01*
X163416666Y-59808332D01*
X163583333Y-59808332D01*
X163650000Y-59841665D01*
X163683333Y-59874999D01*
X163716666Y-59941665D01*
X163716666Y-60108332D01*
X163683333Y-60174999D01*
X163650000Y-60208332D01*
X163583333Y-60241665D01*
X163416666Y-60241665D01*
X163350000Y-60208332D01*
X163316666Y-60174999D01*
X164383333Y-60241665D02*
X163983333Y-60241665D01*
X164183333Y-60241665D02*
X164183333Y-59541665D01*
X164116666Y-59641665D01*
X164050000Y-59708332D01*
X163983333Y-59741665D01*
X139450000Y-60400000D02*
X139483333Y-60433333D01*
X139516666Y-60533333D01*
X139516666Y-60600000D01*
X139483333Y-60700000D01*
X139416666Y-60766666D01*
X139350000Y-60800000D01*
X139216666Y-60833333D01*
X139116666Y-60833333D01*
X138983333Y-60800000D01*
X138916666Y-60766666D01*
X138850000Y-60700000D01*
X138816666Y-60600000D01*
X138816666Y-60533333D01*
X138850000Y-60433333D01*
X138883333Y-60400000D01*
X138816666Y-59766666D02*
X138816666Y-60100000D01*
X139150000Y-60133333D01*
X139116666Y-60100000D01*
X139083333Y-60033333D01*
X139083333Y-59866666D01*
X139116666Y-59800000D01*
X139150000Y-59766666D01*
X139216666Y-59733333D01*
X139383333Y-59733333D01*
X139450000Y-59766666D01*
X139483333Y-59800000D01*
X139516666Y-59866666D01*
X139516666Y-60033333D01*
X139483333Y-60100000D01*
X139450000Y-60133333D01*
X138883333Y-59466666D02*
X138850000Y-59433333D01*
X138816666Y-59366666D01*
X138816666Y-59200000D01*
X138850000Y-59133333D01*
X138883333Y-59100000D01*
X138950000Y-59066666D01*
X139016666Y-59066666D01*
X139116666Y-59100000D01*
X139516666Y-59500000D01*
X139516666Y-59066666D01*
M02*
