M48
; DRILL file {KiCad (5.1.4)-1} date 2020-09-15 19:50:36
; FORMAT={-:-/ absolute / metric / decimal}
; #@! TF.CreationDate,2020-09-15T19:50:36+03:00
; #@! TF.GenerationSoftware,Kicad,Pcbnew,(5.1.4)-1
FMAT,2
METRIC
T1C0.400
T2C0.600
T3C1.100
T4C0.650
%
G90
G05
T1
X87.0Y-82.1
X87.3Y-73.6
X87.4Y-70.2
X90.6Y-71.1
X90.7Y-81.3
X91.2Y-99.0
X92.0Y-87.45
X92.05Y-92.35
X92.1Y-83.3
X92.15Y-94.9
X92.25Y-89.8
X93.2Y-76.95
X94.094Y-68.194
X94.2Y-75.9
X94.2Y-81.3
X94.5Y-72.6
X95.6Y-87.35
X95.7Y-78.3
X95.9Y-93.4
X96.0Y-95.15
X96.0Y-98.7
X97.05Y-84.95
X97.2Y-79.45
X97.85Y-87.9
X98.1Y-69.0
X98.4Y-99.1
X98.404Y-74.37
X98.65Y-95.0
X98.806Y-94.012
X99.05Y-92.9
X99.35Y-79.45
X99.35Y-82.75
X99.5Y-91.712
X99.6Y-66.2
X100.64Y-67.975
X100.7Y-70.3
X100.7Y-79.45
X100.9Y-87.3
X101.1Y-84.7
X101.4Y-95.85
X102.0Y-71.6
X102.4Y-96.65
X102.8Y-54.0
X103.1Y-64.2
X103.2Y-97.45
X103.8Y-84.9
X104.1Y-87.3
X105.4Y-58.1
X105.6Y-73.3
X106.5Y-83.3
X106.75Y-92.7
X106.8Y-71.3
X107.1Y-87.05
X107.295Y-88.095
X107.55Y-91.3
X107.6Y-84.9
X107.9Y-83.0
X108.0Y-79.45
X108.2Y-58.0
X108.2Y-61.1
X108.25Y-89.45
X108.305Y-87.045
X109.0Y-76.3
X109.1Y-98.2
X109.2Y-88.55
X109.3Y-87.15
X109.9Y-75.4
X110.1Y-67.65
X110.2Y-79.4
X110.4Y-54.4
X111.3Y-80.7
X112.4Y-68.7
X112.705Y-79.295
X113.1Y-99.0
X113.6Y-66.3
X114.1Y-99.2
X114.18Y-84.83
X114.239Y-83.711
X114.5Y-63.4
X115.05Y-88.95
X115.5Y-86.8
X116.05Y-88.5
X116.2Y-91.1
X116.3Y-82.0
X116.55Y-85.75
X117.1Y-92.1
X117.25Y-81.0
X117.3Y-82.0
X117.5Y-69.0
X117.5Y-89.4
X118.1Y-91.65
X118.7Y-87.1
X119.0Y-88.6
X119.4Y-76.6
X119.8Y-92.2
X119.827Y-87.615
X120.0Y-81.1
X120.1Y-54.7
X120.55Y-72.15
X120.824Y-85.683
X121.1Y-92.2
X121.55Y-61.575
X121.7Y-69.4
X121.8Y-85.9
X121.8Y-87.4
X122.5Y-92.2
X122.8Y-90.15
X123.3Y-59.1
X123.4Y-56.4
X123.8Y-81.1
X123.8Y-90.9
X124.0Y-72.9
X124.2Y-82.9
X124.4Y-87.0
X126.3Y-87.0
X126.375Y-76.25
X127.6Y-54.325
X128.0Y-83.45
X129.0Y-80.3
X129.3Y-72.4
X129.5Y-56.2
X131.7Y-67.4
X131.7Y-99.3
X132.0Y-91.3
X132.4Y-93.1
X133.7Y-91.3
X133.8Y-89.1
X134.2Y-86.9
X134.3Y-69.6
X134.5Y-75.4
X134.835Y-84.365
X135.0Y-82.2
X135.2Y-56.8
X135.2Y-63.25
X135.8Y-60.8
X136.3Y-67.7
X136.3Y-87.3
X136.35Y-88.4
X136.712Y-77.453
X137.1Y-62.0
X137.8Y-96.9
X137.9Y-74.1
X138.7Y-64.4
X138.9Y-67.7
X139.1Y-70.8
X139.5Y-54.4
X139.8Y-61.3
X140.0Y-95.1
X140.4Y-69.0
X140.59Y-62.21
X140.95Y-86.65
X141.5Y-76.8
X141.5Y-80.8
X141.8Y-92.6
X142.7Y-85.0
X142.8Y-57.7
X142.995Y-67.155
X143.1Y-62.8
X143.4Y-61.0
X143.4Y-92.3
X143.4Y-95.1
X143.5Y-64.1
X144.051Y-91.541
X144.4Y-65.2
X144.8Y-80.9
X144.9Y-76.3
X144.9Y-78.3
X145.1Y-72.75
X145.4Y-63.1
X146.318Y-57.05
X146.4Y-96.4
X146.9Y-93.1
X146.9Y-98.8
X147.0Y-66.9
X147.0Y-71.4
X147.1Y-78.2
X147.2Y-74.6
X147.2Y-76.3
X147.6Y-61.0
X148.0Y-53.6
X148.1Y-71.4
X149.2Y-65.9
X149.2Y-69.4
X150.2Y-64.4
X150.4Y-61.9
X151.4Y-64.9
X151.6Y-70.8
X151.6Y-72.1
X152.0Y-98.9
X152.1Y-95.3
X152.3Y-80.9
X152.8Y-53.6
X152.9Y-58.1
X153.4Y-64.4
X153.5Y-77.3
X153.9Y-73.2
X154.2Y-89.7
X154.8Y-84.2
X155.0Y-62.1
X155.0Y-70.2
X155.0Y-74.7
X155.7Y-91.15
X155.9Y-73.0
X156.1Y-65.0
X156.8Y-95.3
X156.8Y-99.0
X157.3Y-87.4
X157.65Y-77.8
X157.8Y-73.1
X158.3Y-55.3
X159.3Y-79.8
X159.3Y-95.7
X160.0Y-62.0
X160.0Y-65.8
X160.0Y-67.8
X162.0Y-63.4
X162.8Y-54.4
X162.8Y-76.9
X162.9Y-69.7
X162.9Y-84.9
X163.1Y-92.1
X163.3Y-98.5
X164.3Y-66.8
X164.7Y-61.0
X167.1Y-54.4
X167.1Y-59.2
X167.2Y-62.7
X167.2Y-72.0
X167.2Y-87.7
X167.2Y-96.6
X167.3Y-74.9
X167.3Y-77.9
X167.3Y-81.5
X167.3Y-84.9
T3
X150.075Y-75.38
X150.075Y-77.92
X150.075Y-80.46
X150.075Y-83.0
X150.075Y-85.54
X150.075Y-88.08
X150.075Y-90.62
T4
X90.5Y-69.16
X90.5Y-74.94
T2
G00X87.15Y-67.73
M15
G01X86.55Y-67.73
M16
G05
G00X87.15Y-76.37
M15
G01X86.55Y-76.37
M16
G05
G00X91.58Y-67.73
M15
G01X90.48Y-67.73
M16
G05
G00X91.58Y-76.37
M15
G01X90.48Y-76.37
M16
G05
T0
M30
